<svg id="Layer_1" data-name="Layer 1" xmlns="http://www.w3.org/2000/svg" viewBox="0 0 767.7 541.41"><defs><style>.cls-1{fill:#dbdbdb;stroke:#1d1e1e;stroke-miterlimit:10;}</style></defs><path class="cls-1" d="M745,21.77a645.13,645.13,0,0,1-112.85,0c-36.91-3.24-55.2-8-74.39-10.26-39.17-4.53-96.88,0-174.41,43.6V533.57C460.92,490,518.63,485.44,557.8,490c19.19,2.21,37.48,7,74.39,10.26a646.13,646.13,0,0,0,112.85,0Z"/><path class="cls-1" d="M21.73,21.77a645.24,645.24,0,0,0,112.86,0c36.91-3.24,55.19-8,74.38-10.26,39.17-4.53,96.88,0,174.42,43.6V533.57C305.85,490,248.14,485.44,209,490c-19.19,2.21-37.47,7-74.38,10.26a646.23,646.23,0,0,1-112.86,0Z"/></svg>