<svg id="Layer_1" data-name="Layer 1" xmlns="http://www.w3.org/2000/svg" viewBox="0 0 19.14 76.79"><defs><style>.cls-1{fill:#1d1e1e;}</style></defs><path class="cls-1" d="M17.75,46.73l-1.22.61c.58.94,1.45,1.81,1.59,2.79s-.45,2-.78,3.27c.18.38.83,1.09.82,1.8,0,1.35-.05,2.59.95,3.69.14.16-.26,1.12-.64,1.39a20,20,0,0,1-2.69,1.38l0,.4,1.59.19.39,2.51c-2.3,1.34-5.15,8-4.39,10.24-1.9,1.3-3.07,1-4.84-1.76,0,1.62-1.45,1.68-1.85,2.83-.31.91-1.82.81-2.56,0l-1,.66-.76-1.25c2.48-.83,4.37-2.23,5.05-4.73l-.73-1a46.49,46.49,0,0,0,3.2-4.31c.43-.72.25-1.78.39-2.68.2-1.23.81-1.9,2.37-1.33-1.06-.71-.66-2.07-1.79-2.55-.24-.1-.16-1-.18-1.51,0-.21.27-.49.21-.63-.88-1.81,0-3,1.35-4.07,1.11-.9.57-2.16.34-3.32a5,5,0,0,1,0-1.29c-.78.63-1.64.18-2.22-.63-.19-.26.26-1,.53-1.45,0-1.07-2.61-1-1.19-2.84.7-.9,1.16-.9,2.77-.06.23-1.11.18-1.91-1.33-1.73-1,.11-2.48-1.76-2.41-3,0-.23,0-.46,0-.78-1.19.09-1.66-.42-1.63-1.59a5.68,5.68,0,0,1-.17.82c-.11.29-.21.7-.43.79s-.61-.08-.87-.23c-1.22-.67-.78-1.94-1-3s-.49-2.08-2-2.11c-.46,0-1-.64-1.32-1.12-.18-.32.06-.89.16-1.68l-.57-1L1.82,28a3.57,3.57,0,0,1-.59-3.86c.12-.25,0-.59,0-.89a5.51,5.51,0,0,1,.36-1.84c-.85-2.44-.85-2.44.79-2.87-.29-1.47-.59-2.95-.92-4.6l1.32-.44-.15-5.4,1.57,0a5.23,5.23,0,0,1-.44-1.53,2.7,2.7,0,0,1,.6-1.4A10.39,10.39,0,0,1,5.56,3.9C4.79,1.68,5.06,1,7.17.09,8.24.84,8.89,1.67,7.85,3a1.17,1.17,0,0,0-.15.93c.69,2-.25,3.52-1.15,5.14a18.38,18.38,0,0,0-1,2.35,25.75,25.75,0,0,1,.8,3.1c.23,1.63,0,3.24.62,4.91.39,1.12-.24,2.67-.65,4-.27.84-.86,1.57-.49,2.51.84,2.19,1.66,4.39,2.55,6.56a1.5,1.5,0,0,0,.88.71c.75.24,1.65.06,2.16.95.08.15.72.15,1,0,1.21-.76,1.85.06,2.69.74,2.09,1.73,2.41,4.3,3.11,6.61.36,1.17-.23,2.63-.38,4C17.81,45.81,17.79,46.24,17.75,46.73Zm-1.51,17s-.06.1,0,.12.07,0,.11.06.06-.09.05-.12S16.28,63.78,16.24,63.76Z"/></svg>