<svg id="Layer_1" data-name="Layer 1" xmlns="http://www.w3.org/2000/svg" viewBox="0 0 78.69 78.8"><defs><style>.cls-1{fill:#1d1e1e;}</style></defs><path class="cls-1" d="M73.34,15.1c-.39.17-.9.29-1.45.51.06-.9.1-1.55.14-2.36-.18-.22-.36-.44-.54-.64-1.25-.52-2.65-1.09-4-1.7a.9.9,0,0,1-.51-.54c-.09-.49-.16-1-.22-1.49a16.06,16.06,0,0,0-2.93-1.12,1.28,1.28,0,0,1-1.22,1c-.31,0-.67-.53-1-.82A4.87,4.87,0,0,0,62,7.33C57.75,6.51,53.29,6.77,49.14,6a1.37,1.37,0,0,0,.13.2c-.35.23-.74.69-1.05.64C47.07,6.66,46,6.33,44.38,6l1.36,2.38-3,.5c-.07-.62-.12-1.07-.17-1.48l-2,.29L42.4,11.5c.25.12,1.1.42,1.07.52-.25,1.12-.36,2.84-1,3.13A14.87,14.87,0,0,0,40,16.56a5.78,5.78,0,0,1-1.65.46c-.09-.72-.15-1.16-.27-2-.27.53-.32.81-.48.9a4.49,4.49,0,0,1-1.43.65c-.2,0-.73-.48-.69-.62a5.65,5.65,0,0,1,.71-1.16c.21-.33.39-.67.6-1l-2.26.39V12.38a4.91,4.91,0,0,0,1.25-.74,1.25,1.25,0,0,0,.06-.9c-1.33-.31-1-1.35-1.06-2.24-.08-1.17-.86-1.2-1.72-1-.43.12-.84.32-1.24.47.09.44.17.88.26,1.31L32.46,9c.47.49,1.34,1,1.31,1.48,0,.66-.73,1.29-1.21,2a3.08,3.08,0,0,0-1,0,7.22,7.22,0,0,0-1.16.62,6.82,6.82,0,0,1,.78.94,13,13,0,0,1,.59,1.36l-1.66.4,1.91,1.22c.66.43,1.44,1.36,2,1.23,2-.54,1.75.69,1.7,2L31.39,21c-.57-1.46-1-2.62-1.33-3.4L27.84,18l1,.8c0,.2-.08.8-.13,1.27.52.16,1.26.17,1.61.54a1.54,1.54,0,0,1,0,1.54,7.35,7.35,0,0,1-2.7,1.67c-1.24.36-2-.44-2.05-1.88A7.79,7.79,0,0,1,24.72,24c-.27.32-1,.25-1.51.35a3.27,3.27,0,0,1-.12-1.4,7.81,7.81,0,0,1,1.16-2.07c.2-.27.83-.52,1-.4a5.12,5.12,0,0,1,1.08,1.27l.57-.26L26.52,19l-1.1-.46v0h-.05v1.33l-3.33,1V18.88l3.33-.34v-.05l.05,0V17L26.6,17l1.06.86a19.76,19.76,0,0,0,1-2.06,2,2,0,0,0,.07-1.46c-.17-.26-.91-.12-1.38-.22a4.56,4.56,0,0,1-1.33-.4,2.28,2.28,0,0,0-2.83.69,1.8,1.8,0,0,1-1.34.6c-1.13-.1-2.11-.18-2.22,1.29h-3c.25-1.32.48-2.58.74-3.93l-2.22-.23,1.59-1.64c0,.21.08.41.11.62l2.07,1.39V14.7h.24c.29-.74.58-1.48.93-2.39-2.79-.43-2.66-2.71-3.28-5l2.85.43-.1.24,2.06-.75c0-.86,0-1.8,0-2.74,0-1.6-.79-2-2.34-1.52a25.67,25.67,0,0,1-5,1.28,1.86,1.86,0,0,0-1.82,1.49,2.41,2.41,0,0,1-2.7,1.33,8.87,8.87,0,0,0-1.16-.26c.41.77.91,1.47,1.47,1.53,1.43.15,1.15,1,1.08,2.1l-4-.58c.68,1.24,3.28,1.17,2.68,3.51,1.08,0,1.45.45.8,1.41a7.71,7.71,0,0,1-1.17,1.48,13.19,13.19,0,0,1-1.71,1.11l-.44-.37c.18-1.27.36-2.54.54-3.86A1.83,1.83,0,0,0,6,14.86a4.59,4.59,0,0,0,.65,2.75c.79,1.26,2-.36,3.29.19l-1,1.73c.49.5,1.24,1.16,1.86,1.91.49.6-.17,2.72-1,3a6.79,6.79,0,0,1,1.59,1.12,3.42,3.42,0,0,1,.66,1.78c0,.17-.87.48-1.37.58a7.17,7.17,0,0,1-1.54,0,15.66,15.66,0,0,1-.51,2.51c-.13.38-.65.63-1,.94a4.07,4.07,0,0,1-.8-1.09A3.81,3.81,0,0,1,7,29H5.77C6,32.9,5.85,34,3.06,34.49c.61.7,1,1.63,1.56,1.69,1.06.13,2.33,0,2.33-2.11l2,1.7c.07-.5.14-1,.2-1.43h1.73v1.21c.58-.12,1.44-.49,1.6-.29a7.85,7.85,0,0,1,.95,1.88,25.27,25.27,0,0,1-2.53,1.61c-.47.23-1.25.44-1.58.21a11.77,11.77,0,0,1-1.84-2c-1.14,1.24,2.59,2.88-.6,3.73.21,3.89-2,.44-2.64.69-.44,1.72,2.39,1.53,1.51,3.5L4,45l0,.39c.69,0,1.38-.06,2.07-.14s1.46-.21,2.33-.35a5.13,5.13,0,0,1,0-1.34c.1-.4.39-1,.69-1.06,2.24-.53.92,2.37,2.45,2.66.08,0,.19,1.29-.06,1.44A8.87,8.87,0,0,1,8.79,47.7c-.36.09-.85-.41-1.29-.65-.13.59.06,2-1.44,1.6-1.34-.39-2.49.32-3.79.07.26.57.46,1,.65,1.44,1.33.58,3.06-1.35,4,.41.6-.2,1.25-.67,1.76-.55,2,.44,4,1.07,6,1.63.16,2.35-1.42,1.07-2,1.14-.5.54-1,1.26-1.13,1.19a21.36,21.36,0,0,1-2.59-1.36L6.71,53.68c-.16-.84-.25-1.33-.33-1.77H4.59c1.48,2.2,1.48,2.2,1.17,4.26l-1.37.2c.79.18,1.33.32,1.88.4s1,.09,1.56.13c-.15-1-.25-1.71-.36-2.45,2.46-.13,2.85.45,1.92,2.8l1.85.41c0,1.83.07,3.67-.06,5.5,0,.34-.8.63-1.23.94-.29-.44-.81-.87-.83-1.32,0-1.13.18-2.26.2-3.39,0-.21-.42-.43-.44-.45-.3.88-.36,1.79-.85,2.27s-1,.74.13,1.08a1.25,1.25,0,0,1,.5,1.11c-.09.39-.55.73-.91,1a2.48,2.48,0,0,1-.89.23c2.22.67.9,2.27.95,3.07l3.13,2.12c.44-.11.87-.25,1.31-.34s.79-.12,1.18-.18l1.65-.24c0,.61.17,1.53-.15,1.79a2.49,2.49,0,0,0-.73,2.93c1.54-1.49,1.94,0,2.5,1.21.37-1.69.64-3.12,2.62-3.18.27,0,.58-.83.74-1.32a4.48,4.48,0,0,0,0-1.28h1.72q.29,1.55.54,2.85l1.19.58c.75-.44,1.26-.68,1.7-1,.6-.45,1.13-1,1.73-1.45.36-.28.81-.71,1.18-.67,1,.1,2.07,2.35,1.54,3.2a1.36,1.36,0,0,1-1.16.46,23.73,23.73,0,0,1-2.67-1l-.62,2.21-4.6.35c1.45.49,2,1.18,1.91,3l.45-.16a5.36,5.36,0,0,1,.55-2.5l1.9.58a28.18,28.18,0,0,1,2.82-1.43,4.53,4.53,0,0,1,1.68,0c-.08.57-.17,1.14-.25,1.71,1.52.57,1.92-.82,2.68-1.55l-2-1.71-.47.06c.23-.75.46-1.5.71-2.29l-1.12-1.49.37-.43,2.65.32.06-.24L30.5,68c0-.39-.07-.88-.11-1.37l-1.83-.27,1-1.84-1.42-1.67c-.27,1.18-.47,2.06-.75,3.27a5.36,5.36,0,0,1-1.92-.69A2.73,2.73,0,0,1,25,62c.15-.27,1.33,0,2.41.08.82-.77-.36-2.16-.06-3.41a2.29,2.29,0,0,1,2.41,2.51l-1.16.23c.71.9,1.14,1.21,1.56-.1.69-2.15,2.37-2.54,4.41-1.2a6.22,6.22,0,0,0,1.57.44c-.28,1.12-.56,2.24-.84,3.4,2.51.35,3.39.06,3.56-1a7.72,7.72,0,0,1-1.46.31c-.11,0-.42-.81-.32-.9.72-.65,1.51-1.22,2.28-1.81l.39.34V58.84l-.4-.16c-.21.49-.41,1-.63,1.51-1.72.25-2.61-.58-2.58-1.88,1.15-1,2-1.7,2.82-2.39.21-.16.65-.36.77-.26a5.3,5.3,0,0,1,.89.94c.27-.33.68-.81,1.13-1.33-.13-1.07-.27-2.37-.42-3.68l-.44-.3c.46,3.1-1.63,3.89-3.48,5.19-.84.33-2,1.17-2.44.89a3.3,3.3,0,0,1-1.25-2.5,1.47,1.47,0,0,1,2.16-1.38c.54.26.76,1.22,1.12,1.88l2.52-2.63-2.72.4c-.05-.7-.09-1.26-.14-2a16.29,16.29,0,0,1-1.92.66,9,9,0,0,1-1.64,0c.16-.58.31-1.16.47-1.75l-.1,0c0-.55.09-1.11.14-1.67h0v0a12.32,12.32,0,0,1-1.27.61c-.54.18-1.1.28-1.79.46,0-.64-.06-1-.08-1.41l3.14-1.52v1.86l0,0v.05l1.83.63c.25-.46-.32-2.25,1.53-1.43.15-2.58.51-2.85,2.55-2,.55-.69,1.1-1,1.62,0,1.36-.27,2.72-.59,4.09-.81.85-.13,1.73-.11,2.8-.18.1-.13.45-.64,1-1.43a23.84,23.84,0,0,0-2.4-1.61c-.11-.05-.68.76-1.28,1.45L44,42.94l-.13,1.69c-.51-.11-1.21-.06-1.43-.36s0-1,0-1.48a11,11,0,0,0,.06-1.62,13.33,13.33,0,0,0-.5-1.85l-4.36.85c0,.32.16.85,0,1.12a6.24,6.24,0,0,1-1.31,1.12,5.33,5.33,0,0,1-.82-1.24,6.1,6.1,0,0,1-.26-2.08,2,2,0,0,1,.64-1.27c.34-.26,1.21-.46,1.33-.29.92,1.19,1.81.93,2.82.19.17-.13.47-.08.74-.11,0-.62.06-1.13.1-1.74l1.75-.12c-.22-.68-.41-1.31-.72-2.28l4,.87,1.69-5.06H46c-.1,1.07-.76,1.41-1.78,1.09v.05h0l.57,2.49H42.8V30.52l1.35-.1,0-.05h0c-.13-.41-.25-.81-.28-.91L41.75,30c.13-1.24.23-2.23.37-3.53-2.44,1.91-.07,3.94-1,6.09L39,31.38c-.26,1.06-.59,2.35-.94,3.7-1.22.35-1.86,0-1.71-1.44a.29.29,0,0,0,0-.16c-1-2,.16-3.17,1.77-3.87,1-.44.51-.65.11-1-.83-.78-1.45-1.5-.44-2.68s1.6-1.11,2.32.06a7.75,7.75,0,0,0,1-.89,1.18,1.18,0,0,0,.12-.75c-1.78-.63-.28-1.68-.45-2.51,2-.22,3,.65,3.13,2.41.07,1.36-.43,1.85-1.74,1.34L42,26l2,.64c1.14-2.09,2.81-2.25,4.07-.49a1.59,1.59,0,0,0,1,.55,19.81,19.81,0,0,0,2.31,0c.15,1.84-.1,2-2,1.69,0,.25,0,.5-.09.74s-.12.38-.23.71c.33-.09.6-.15.85-.24.5-.19,1.16-.7,1.48-.54A12.29,12.29,0,0,1,54.05,31a5.18,5.18,0,0,1,.81,1.57c-.57.13-1.13.27-1.7.35-.16,0-.35-.13-.64-.25V34l1.62-.14c-.22,1.09-.41,2-.62,3,1.45-1.7,1.87,1,3.2.68.11-.79.44-1.64-.71-2.1-.19-.07-.45-.42-.41-.51.57-1.19.09-2.79,1.46-3.64l4.49-2.81c-.82.08-1.34.11-1.86.18s-1.36.43-1.6.2-.26-1.09-.39-1.81c-1.47-.71-1.47-.71-2.19.25h1.56c0,.46,0,.91.08,1.71l-4.94-.77c-.17-.8-.31-1.42-.4-1.82l3.06-1.91c.64-.75,1.28-1.53,2-2.25.07-.08.75.21.75.33a19.24,19.24,0,0,1-.14,2.15L59,26.75l.18-.17a16.78,16.78,0,0,1-.76-3.36c0-1.54,1.15-.73,1.89-.76A1.51,1.51,0,0,1,61,20c.89-.45,1.86-.74,2.75-1.19.28-.15.42-.59.62-.9h-1.6l-.9-5.79,2.34.49L65,16.91,68,16.1l.37.53-.92,1.53.74.66.08-.76c1.24.3,2.42.51,3.53.9.23.08.23.81.33,1.26.47-.82,1-1.63,1.39-2.48.57-1.19.58-2.72,2.21-3.25v0a7.83,7.83,0,0,0-2.33.66Zm-48.73-.57.37.27v1.62l-.33.4c-.38-.37-1.06-.74-1.06-1.12S24.24,14.92,24.61,14.53ZM9.92,33.22c-.2.09-.71-.52-1.41-1.07.74-.63,1.18-1.3,1.6-1.28s1.12.83,1.05,1.15A2.16,2.16,0,0,1,9.92,33.22Zm29.39,8.65H41c.36,1.46-.31,1.88-1.7,1.74Zm-3.47,1.56h1.57c.41,1.57.28,1.73-1.57,1.71ZM32,22.34c.32,0,.69.33,1.42.73-.73.4-1.1.77-1.42.74s-.63-.48-.94-.74C31.37,22.81,31.66,22.38,32,22.34Zm-2.67,3.32c.35,1.3,0,2-1.07,1.92-.34,0-.94-.58-.93-.88C27.38,25.18,28.57,26,29.33,25.66ZM24.2,29.9c.28-.57,1.15-.85,1.75-1.26l.38.51c-.13.76.47,1.88-1,2C24.39,31.14,23.85,30.61,24.2,29.9ZM27,34.2,25.6,35.46l-.78-.71L26,33.3Zm-9-10.11a2.46,2.46,0,0,1,2,.24c.37.21.4,1,.63,1.66H16.94C17.31,25.19,17.45,24.3,17.91,24.09ZM17.13,31l-1.42.13c.12.6.23,1.13.44,2.11l4.53-1.35c0-.56,0-1.17,0-1.78,0-.81.26-1.51,1.11-1.17a2,2,0,0,1,1,1.57,13.7,13.7,0,0,1-.73,3l-1.15.19c0,.53.07,1.07.1,1.6l-.32-.23a20.77,20.77,0,0,1-1.5,1.47,1.67,1.67,0,0,1-1.11.48,1.45,1.45,0,0,1-.82-.87,6.39,6.39,0,0,1,0-1.69l-3.35.83c0-.59-.08-1-.11-1.48l1.43-.46,0-.26-1.25-.17a1.82,1.82,0,0,1,.73-2.46,3.3,3.3,0,0,0,1.29-1C17.33,29,17.31,29.91,17.13,31Zm-2.35,4.49c.94-.28,1.43.27,1.49,1.23.1,1.47-.61,2.11-2.61,2.12C14.3,37.77,12.7,36.12,14.78,35.52Zm1.55,2.85c1.57-.12,2.49.34,2.11,2-.1.42-.7,1.13-.88,1.07C16.09,40.93,16.23,39.7,16.33,38.37ZM11.35,13a4.51,4.51,0,0,1,1-2.5c.25-.34,1.09-.34,1.65-.32.15,0,.47.78.35,1-.19.4-.67.66-.85.82.21.68.6,1.28.49,1.78s-1.05.95-1.2.85C12.18,14.25,11.36,13.6,11.35,13Zm2,9.23a3.15,3.15,0,0,1-.08-1.74c.1-.27.91-.44,1.34-.35a1.17,1.17,0,0,1,.63,1,2.23,2.23,0,0,0,.34,2.26c.14.19,0,.6,0,.9l-.5.37c-.36-.4-.74-.79-1.06-1.22A3.91,3.91,0,0,1,13.39,22.25Zm1,25.11c0-.48-.15-1,0-1.27.81-1.4-1-2.27-1.13-2.28-1.56-.15-1.1-1.19-1-2.11H10.08V40.38c4.23-.76,4.23-.76,4.34,2.24,1.32-.27,2.69-.57,4.07-.83,2.14-.42,2.37,1.58,3,2.24L25,45.1c0-.44.1-.9.21-2,.79.67,1.62,1,1.65,1.49a6,6,0,0,1-.75,2.18,6,6,0,0,1-1.2,0c-1.05-.21-1.31.05-.91,1.1.13.36-.21.9-.34,1.36l-1.13-.56s0-.12-.06-.12c-2.43-.21-1.64-2.17-1.84-3.46h-2.7c0,.21-.11.56-.2,1H16c0,.34-.1.78-.16,1.28ZM24,50.07v1.4l-1.72.08V50.07ZM22.5,57.54a1.22,1.22,0,0,1-.79.86c-1.26.12-1-.84-1-1.7C21.69,56.38,22.4,56.53,22.5,57.54ZM20.32,48.2a2.6,2.6,0,0,1-2.25,2.65A2,2,0,0,1,20.32,48.2Zm-2.83,5.4L17,54c-.76,0-1.76.31-1.63-1,0-.4.59-.74.91-1.11Zm-3.16.5c.38.25.59.75,1.1,1.46h-2.2c0-.43-.07-.87-.12-1.41C13.58,54.12,14.07,53.93,14.33,54.1Zm-1.73,3h4.8c.06.58.12,1.06.17,1.54h.06v.08l1.48.89-.8.81a18.41,18.41,0,0,1,.72,3c0,.27-.75.62-1.26,1a3.53,3.53,0,0,1,0,1.08,1.12,1.12,0,0,1-.63.74,1.19,1.19,0,0,1-1-.23,2.07,2.07,0,0,1,.53-3.24l.71-.31-.27-.41-5.5,1.09c.18-1.51.31-2.62.44-3.73l3.4.62-.1.34,2.08-.45c0-.26.08-.73.13-1.21l-.05,0v-.05c-.86,0-1.71.09-2.56.11s-1.55,0-2.41,0Zm-1.93-.3V54.63c.68.53,1.38.79,1.46,1.18C12.34,56.84,11.59,56.94,10.67,56.81ZM15.48,68.4a1.14,1.14,0,0,1-.85,0c-.43-1.42-1.42-.56-2-.4-1,.26-1.55.3-1.4-.85H8.26c.22-.94.43-1.82.63-2.7L11.83,66c0-.16,0-.62.12-1.07a5.77,5.77,0,0,1,.49-1.67,1.46,1.46,0,0,1,1.22.25A3.39,3.39,0,0,1,14,65c0,.13,0,.27.36.18.54.78,1.12,1.54,1.58,2.37C16,67.7,15.72,68.21,15.48,68.4Zm.88,2.9-.53-2.72c2.09,0,3.63.87,3.57,1.76S19,71.38,16.36,71.3Zm4.47-4.46A30.68,30.68,0,0,1,18,68.47c-.48-2.13,1.29-2.15,1.88-3.07a1.26,1.26,0,0,1,.9.32C21,66,21,66.71,20.83,66.84Zm3.87-.92v1.52l-.39.33-1.59-1.55-1,.12a4.9,4.9,0,0,1,0-1.42c.09-.31.49-.76.74-.75a1.88,1.88,0,0,1,1.07.6A8.78,8.78,0,0,1,24.36,66Zm.06-9.05-1.38-1.65c-.18.32-.57.46-1.35.31-.2-1.14-.19-2,1.38-1.71a2.36,2.36,0,0,1,0,1.39c1.56-.38,2.25-.17,2.27.86C25.65,56.33,25.07,56.6,24.76,56.87ZM26,49.75h.57c.34,1.45-.18,2-1.68,1.7v-1.7h1c-.31-1.61.09-2.24,1.11-2.26.29,0,.59.52.89.8Zm8-9.94c-.8.55-1.5.72-.51,1.87.76.88-.49,2.58-1.68,2.53-.6,0-1.19.06-1.88.1.05-1-.75-2.22,1.3-2.33-.18-.77-.35-1.45-.51-2.12l-.38.1c-.31,1.06-.62,2.12-1,3.21-1.6.31-1.61.31-1.84-1.56-.92.45-2.92-.79-2.45,1.64-2,0-4-1.69-3.94-3.55l2.66.72.41-1.5c-.19-.17-.23-.22-.27-.23-.64-.16-1.63.23-1.62-.94,0-.33.37-.65.57-1,.54.36,1.07.73,1.6,1.1.22.15.45.28.67.45.39.29.78.61,1.3,1l2.36.37.12-.26-2.46-1.14c-.23-.69-.53-1.64-.9-2.76l1.39-.06c.35.66.52,1.47,1,1.77s1.32.14,1.93.18l.88,1.47c.6-.71,3.05-1.25,3.37-.72A1.69,1.69,0,0,1,33.94,39.81Zm-3.1-4.58c.41.05.77.67,1.15,1l-2.28,1.17C29.24,35.73,29.74,35.12,30.84,35.23Zm3.72-1.57a4.53,4.53,0,0,1-.48,1.66c-.15.18-.9-.11-1.37-.21-.09,0-.16-.16-.25-.17-.94-.06-1.87-.39-1.28-1.47s1.5-.56,2.24.09c0,0,.19,0,.73-.11-.58-.57-.94-1.22-1.41-1.32-1.22-.25-1.19-.92-.86-2-1.79.53-3-.4-2.9-2,.89-.06,1.79-.09,2.68-.19.22,0,.42-.3.63-.46a2.1,2.1,0,0,1-.47-.47c-.25-.47-.46-1-.68-1.44l1.47-.47,0,.18c.39-.26.86-.79,1.17-.71a1.55,1.55,0,0,1,1,1.07c.12,1.24,0,2.5,0,4.15l-2-1.05c-.75,1.44.6,1,1,1.09.55.83.95,1.49,1.41,2.11C35.79,32.75,35.49,33.44,34.56,33.66ZM54.3,11c.34,0,.72.48,1.35,1-.6.4-1,.84-1.26.79s-.68-.55-1-.84C53.68,11.63,54,11.06,54.3,11ZM49,15.57c-.07-1.87,0-1.92,2.3-1.64C51.54,15.61,51.31,15.78,49,15.57ZM48.29,12a6,6,0,0,1,1.16-1.28H51a11,11,0,0,1-.62,1.46,2.47,2.47,0,0,1-.84.83,4.87,4.87,0,0,1-1.16.34C48.33,12.87,48.13,12.34,48.29,12Zm-5.85-.58V9.19c.87-.21,1.61-.12,1.44.91C43.81,10.5,43.13,10.8,42.44,11.39ZM39.81,22.27c-.06.32-.47.58-.64.77l.57,1.78-2-.2a1.36,1.36,0,0,1-.35.66c-.31.23-.92.48-1.09.34s-.58-.93-.44-1.15a29.13,29.13,0,0,1,2.49-3.25,1.17,1.17,0,0,1,1.12,0A1.27,1.27,0,0,1,39.81,22.27Zm6.85.76a3.29,3.29,0,0,1-3.54-2c-.91.24-1.82.75-2.15-.9-.1-.47-1.62-.66-2.56-1-.21-1.7.28-2.09,2.49-1.75,1.11-2.91,2.17.43,3.29-.09v2.06l.29.13,1-1.88h1.17Zm-2.5-12a11.16,11.16,0,0,1,3.06.76c.41.24.3,1.39.42,2.11C44.92,14.38,43.64,13.21,44.16,11Zm6.4,12.25,0-.05h0c-.12.59-.08,1.33-.42,1.73s-1.37.36-1.5.15a8.85,8.85,0,0,1-1.16-2.76c-.28-1.25.27-1.91,1.59-1.55l1.51,2.43h0v-2a8.17,8.17,0,0,1,1.7.51c.16.09.18.92.07,1a10.52,10.52,0,0,1-1.77.49Zm-.36-3.93a13.34,13.34,0,0,1,2.22-.74c0,.86,0,1.27,0,1.68,0,.2,0,.4-.1,1a16.51,16.51,0,0,1-2.2-.88C50,20.29,50,19.42,50.2,19.33ZM51.85,25c-.4,0-.8-.62-1.2-1l.24-.45,1.61-.07.42.41C52.56,24.33,52.21,25,51.85,25ZM55,20.63c-.11,1.12-.61,1.59-1.82,1.23V18.5c-1.36-.3-2.58-.54-3.78-.89-.11,0,0-.75,0-1.34h4c.69-1.06,1.7-1.27,1.81-.17a10.74,10.74,0,0,1-.3,2.27l1.69-2c.6,1.13.91,2,0,1.9-.6.7-1,1.08-1.27,1.5A1.76,1.76,0,0,0,55,20.63Zm5.16-1.75c-.29.43-.88.8-.92,1.25C59,22.06,57.82,21.78,56,21.4c.78-1.12,1.35-2,2-2.86a5.38,5.38,0,0,1,1.6-1.24c.16-.08.76.32.87.61S60.32,18.58,60.12,18.88ZM61.45,15h-1.7v-1.7C61.24,12.93,61.78,13.48,61.45,15Zm0-3.72c-.9.35-2,.31-2.22,1.65,0,.17-.86.21-1.33.32-.17-1.9,1.83-3.79,3.49-3.47.28.06.73.47.7.64A1.29,1.29,0,0,1,61.46,11.24Zm5.73,4.29c.48-1,.68-2.31,1.39-2.74.49-.32,1.68.48,2.67.82C71.14,15,69.62,15.74,67.19,15.53Zm4.35,2.61a14.84,14.84,0,0,1-2.72-.34V16.47a1.68,1.68,0,0,1,.46-.14,10.67,10.67,0,0,1,2.19,0c.39.07.71.51,1.07.79C72.21,17.5,71.89,18.12,71.54,18.14Z"/></svg>