<svg id="Layer_1" data-name="Layer 1" xmlns="http://www.w3.org/2000/svg" viewBox="0 0 33.65 102.24"><defs><style>.cls-1{fill:#1d1e1e;}</style></defs><path class="cls-1" d="M15.58,55.59c-1.19-2-2.28-3.8,1.41-4.39.53-.08,1-1.62,1.19-2.55.36-1.75.94-3.65.54-5.27-.19-.75-2.46-1-4-1.52V38.94l8,1.37c-.14-.91.05-2.28-.54-3.07-1.79-2.42-1.87-4.13,1.4-5-.23-.41-2.94-.87-5.58-1,.73-1.51,1.33-2.76,1.94-4Q19.53,25,19,21.93c-3-.75-1.39-4.18-1.72-6.23-.66-4.2.59-6.39,2.42-7-2.3-1.38-2.62-4.91-.23-5.9,2.21-.92,4.76-1,6.66-2.8.27-.25,1,0,2.62.08C26.11,2.58,28.63,6.89,24,7.91c-.27.06-.52,1.69-.26,2.4.82,2.26.64,2.78-1.74,3.32,3.28,2.44,5.51,5.23,6.23,9.6.48,2.91,2.74,5.67,4.65,8.15,1.36,1.77.88,6.29-1.28,7.12s-4,4.43-3.47,6.76c1.4,6.1-2.88,13.24-9,15.12-.69.21-1.61.8-1.76,1.38-.66,2.54-1,5.16-1.61,7.71-.36,1.54-1.09,3-1.51,4.51-.8,3-1.54,6-2.17,9-.06.3.86.78,1.29,1.22,1.6,1.64,1.55,6.46.07,8.27-.51.63-.52,1.63-.87,2.41a27.72,27.72,0,0,1-2.23,4.46,21,21,0,0,1-3.19,2.94H0c-.8-5.83-.39-6.43,4.69-5.52C1.63,91.93,6.3,89.49,8,85.93l-4.9-1.44V81.24l3.05-.67c0-.19,0-.39,0-.58l-2.8-.57c-.6-3.37-.6-3.37,3.41-4-.19-1.82-.69-3.7-.47-5.5.14-1.12,1.32-2.13,2.06-3.18.32-.44.83-.78,1-1.26,1-2.53,1.72-5.17,2.93-7.58C12.79,56.94,14.28,56.47,15.58,55.59Z"/></svg>