<svg id="Layer_1" data-name="Layer 1" xmlns="http://www.w3.org/2000/svg" viewBox="0 0 86.77 153.03"><defs><style>.cls-1{fill:#1d1e1e;}</style></defs><path class="cls-1" d="M85.23,103.64l0,0v0Z"/><path class="cls-1" d="M73,98.64l0,0h.11l-.07,0Z"/><path class="cls-1" d="M41,117.48a2,2,0,0,1,1.44-.16c.24-.18.42-.49.68-.67a5.2,5.2,0,0,1,1-.4v-.9l1.42.28a5.31,5.31,0,0,0,.82-1h0a3.55,3.55,0,0,1,.87-.93,1.51,1.51,0,0,1-.09-.18c-.1-.23-.11-.67,0-.78a2,2,0,0,1,.93-.23,4.56,4.56,0,0,1,.73,0h0c-.1-.08-.24-.16-.26-.25a2.47,2.47,0,0,1-.12-1.21c.17-.43.57-.3.95,0,.12.09.51-.07.66-.22s0-.44,0-.61c-.29-.6,0-1,.71-1.18a3.28,3.28,0,0,0,1.23-1c.07-.08-.3-.51-.45-.78a2.66,2.66,0,0,1-.14-.29c.64-.88,1.23-1.68,1.83-2.48-.75-.44-.74-.63-.13-1.13.35-.29.74-.23,1.09-.32s1.22-.42,1.27-1.18a9.44,9.44,0,0,0-.12-1.23c.91-.81.91-.8.26-2.11-.27-.54,0-.78.5-.82l.43.81c.66-.55.63-.74.09-1.16-.23-.18-.48-.69-.38-.9s.55-.39.94-.08c.17.14.53,0,.93.06a4.05,4.05,0,0,1-.25-.63c-.16-.82-.43-1.61.36-2.37a1.86,1.86,0,0,0,.57-2.1l.78-.39c-.27-1.21-.33-1.28-1.1-1.23l-.22-.56a8.63,8.63,0,0,1,.37-.84c.1-.16.24-.38.4-.42s.37.11.53.22a2.45,2.45,0,0,1,.39.48c0-1.28.74-.9,1.38-.67l.06-.2-1.17-1.34,2-1.67c-.33-.28-.8-.49-.9-.81s.26-.69.42-1.07c-.11-.16-.54-.48-.5-.75s.45-.62.71-.93l.29.15c0,.3,0,.6,0,.87,1.47.59.4-1,.95-1.13l-.66-1a8.44,8.44,0,0,0,.95-.38,5.42,5.42,0,0,0,.63-.47l-.46-.85,1.1-.28c-.18-1-.18-.94-1.2-.72a.62.62,0,0,1-.54-.29c-.06-.15.06-.53.19-.57.78-.28,1-1.09,1.28-1.66s.41-.69.84-.7.54-.32.49-.7a0,0,0,0,0,0,0h0c-.48,1-1.12.14-1.51,0S63.41,72.51,63,72c.61-.36,1-.57,1.24.26,0,.21.4.34.61.51l.72.56,0,0h0c.17-.35.13-.58-.3-.76s-.72-.66-.22-1a.9.9,0,0,0,.42-1.17l1.18-1.24.39,1-.7.22.25.63a6.27,6.27,0,0,0,.76-.81,1.67,1.67,0,0,0,.35-.93,7.54,7.54,0,0,0-.32-1.4L65.84,69l-.3-.77c.49-.45.9-.82,1.29-1.2s.75-.8,1.19-1.28c-.06-.06-.17-.27-.33-.32-.48-.17-.65-.29-.29-.82.52-.77.35-.87-.55-1.07-.52-.12-1.24-.29-1.35-1.3A3.65,3.65,0,0,0,68.91,62c0-.4,0-.79,0-1.19-.14.07-.27.14-.42.2l-.42.13a1.34,1.34,0,0,1,.57-1.85c.13.21.27.41.4.61l.18-.08-.45-1.35,1.39.07-.72-1.36.9-.51a3.52,3.52,0,0,1-.72-.34c-.3-.27-.57-.58-.85-.87.22-.16.44-.3.65-.46s.3-.28.56-.52l-1.05.35c0-.39-.13-.83,0-1,.57-.47,1.18-1,2-.23-.08-1.05-.39-2,.76-2.53-.1-.54-.1-.54.79-1.15,0-.1-.06-.2-.1-.3-.54-1.46-.45-1.61,1-1.82.21,0,.52-.25.54-.42a1.57,1.57,0,0,0-.24-.78c-.12-.25-.45-.6-.38-.7a8.76,8.76,0,0,1,1.07-1.19c.23.41.33.61.44.81l.21,0v-1c.1-.12.41-.34.37-.44-.25-.7.28-.74.68-1a3.59,3.59,0,0,0,.63-.48l-.85-.87.14-.28.88.09c0-1.14.92-1.77,1.84-2.41-.12-.17-.18-.28-.26-.37a1.32,1.32,0,0,1,.23-2.25c.55-.34.54-.61.23-1a1.83,1.83,0,0,1-.16-.55,3.58,3.58,0,0,1,1-.07c.13,0,.16.45.27.85l1.36-2.06-.23-1.69h0v0c-.37.11-.79.55-1-.09a.68.68,0,0,1,.26-.61c.65-.25.61.36.79.7h0v0l1.34-.2-.49-1.73a5.09,5.09,0,0,0,.89-.37c.24-.15.58-.39.6-.61a2.32,2.32,0,0,1,.88-2.05s.06-.1.07-.11c-.68-.67-1.12,0-1.64.22v0h0l.21.7-1,.37c0-.36-.14-.72,0-.91s.49-.12.76-.16v0h0a3,3,0,0,1-.17-.69c.6-.27.46-.82.52-1.28.11-.89.46-1.79-.2-2.52a1.31,1.31,0,0,1-.8-.11,7.3,7.3,0,0,1-1.19-.95c-.28-.28-.35-.65.14-.84a4.77,4.77,0,0,1,.59-.11c-.52-.6-.36-1,.3-1.42-.27-.39-.44-.93-.77-1-.88-.32-1.18-.78-.72-1.68l-.79.16c-.81-1,.51-.87.79-1.39L78.13,16c-.37-.47-.31-.81.16-1.09.11-.07.17-.22.26-.33a1.88,1.88,0,0,1-.38-.15c-.2-.15-.45-.29-.52-.49s.23-.36.39-.5.58-.42.87-.63l-.07-.24-1.36-.21c0-.29-.1-.69-.16-1.1-1.47-.53-2.4-2.29-1.66-2.9L74.88,8v.14L74,8c.08-.31.16-.63.24-1,0,0-.15-.24-.3-.3-1.16-.43-1.3-.73-1.23-2a1.41,1.41,0,0,0-.6-1c-.28-.2-.76-.1-1.09-.26a5.39,5.39,0,0,1-1-.8L71,2.09,69.9,1.83,69.49,3.1l-.71.28c.13-.51.2-.83.31-1.26l-.3-.53c-1.61.24-1.82.32-2.18.87l.71-.39,1.22,1.07-1.13.45-.47-.68c-.13.64-.22,1-.32,1.51l.85-.25.09,1.08c.49-.15.58.13.56.61a3.66,3.66,0,0,0,.14.92c0,.26.13.52.2.82l.9-.15L69,6.35a4,4,0,0,1,1,.12c.12,0,.14.37.2.55l-.6.36.18,1.29-1.44.57c1,1.25.41,2.3-.39,3.41l.79-.22.61.62a1.6,1.6,0,0,1,.45.57c0,.09-.25.4-.4.41s-.35-.23-.55-.32a2.09,2.09,0,0,0-.84-.28c-.12,0-.25.4-.34.63-.24.66-.47,1.33-.7,2,.74-.26.6.38.84.86L67,17a13.77,13.77,0,0,0,0,1.45c0,.29,0,.68.54.67s.88.42.72,1.06-.27,1.17-.41,1.76l.3.2,1.19-1c.38.83-.08,1.61-1.11,2.09l-.07.71a4.51,4.51,0,0,1,.7.82c.16.36.16.79.32,1.15a5.16,5.16,0,0,1,.26,3.82,5.75,5.75,0,0,1-.7,1.18,2,2,0,0,1,.58.32c.08.08,0,.33,0,.48a8.36,8.36,0,0,1-.4.79l-.06-.06-1,1.37.83.73c-1.24.63-1.29.83-1.1,1.71l-.81.41c.53.82.2,1.22-.6,1.42a10.78,10.78,0,0,0-1.07.42c-.5.18-.76.42-.4,1,.11.16,0,.51-.1.74A1.76,1.76,0,0,0,64.59,42a.63.63,0,0,1,0,.58c-.09.13-.36.13-.56.17s-.26,0-.36,0c-.29.13-.56.29-1,.52a8.23,8.23,0,0,0,.34.84,3.8,3.8,0,0,0,.46.53c-.24,0-.47.12-.71.15l-1,.12,0,.18.55-.14.84,1.52-.69.28-.36-.7-.55.26a17.26,17.26,0,0,1,.19,1.89c0,.21-.31.41-.4.64a11.15,11.15,0,0,1-.68,2,3.73,3.73,0,0,0-.28,2.34,6.36,6.36,0,0,1-.15,1c.34.88.3,1-.39,1.78-.29.33-.53.75,0,1.19a1.65,1.65,0,0,1,.42.89c.07.35,0,.73,0,1.09s.59.9.07,1.42c0,0,.14.35.23.52s.24.44.33.59c-.61.74-.87-.07-1.27-.14-.56-.11-1,.15-1,.57.54-.05,1.28-.71,1.44.19a3.4,3.4,0,0,1-.41,1c-.16.17-.53.36-.69.28-.73-.34-1.31-.08-1.44.72a9.27,9.27,0,0,1-.29,1.07,1.35,1.35,0,0,1,.3,1.74.57.57,0,0,0,0,.46c.37.69.1,1-.85,1,.36.44.61.71.81,1a1,1,0,0,1,.23.56c0,.13-.29.37-.38.34-.64-.19-.69.39-.91.6a10.76,10.76,0,0,0,.41,1c.35.65.26,1.05-.51,1.26-.2.06-.52.35-.5.51a8.37,8.37,0,0,0,.35,1.86c.27.88.21,1-.61,1.32-.1.31-.23.73-.45.78a.92.92,0,0,0-.75,1.1c.32.93-.5,1.1-.92,1.72.21.14.42.28.62.44s.46.31.52.52a.79.79,0,0,1-.29.61,2.48,2.48,0,0,0-1.27,1.89c1,0,1.17.65,1.13,1.42l-2,1.92.52-.11c.08.2.22.37.19.5a1.73,1.73,0,0,0,.46,1.66c.07.08-.08.45-.22.57a2.88,2.88,0,0,1-.77.32l.22.74c-1.05.35-1.13,1.13-.68,2.81-.23,0-.59.14-.64.06a4.1,4.1,0,0,1-.33-1c-.39,0-.87,1.1-.82,1.8-.57.38-1.38.64-1.56,1.12a3.06,3.06,0,0,1-1.48,1.51l.61,1.14c-.35.07-.61.21-.79.14-.46-.17-.63-.14-.62.41,0,.34-.06.85-.29,1-.75.51-.52,1.3-.82,1.91a3.11,3.11,0,0,0-.67.91c-.19.4-.6.44-1,.06.05.65.18,1.24-.64,1.69-.57.31-1.46.72-1.42,1.51.06,1-.66,1-1.19,1.16s-.46.22-.5.55a4,4,0,0,1-.22.67,2.87,2.87,0,0,1-.67-.28,5,5,0,0,1-1-.9c-.13-.17-.05-.51,0-.77a2,2,0,0,1,.16-.44,1.85,1.85,0,0,0-.55.13,7.64,7.64,0,0,0-.62.51c-.26.21-.53.39-.8.58l.12.18.83-.25.54.61c.3,0,.63-.15.7-.06a1.34,1.34,0,0,1,.29.78,14.35,14.35,0,0,1-.18,2.08,1.69,1.69,0,0,1-.5,1.07c-.43.3-.48,1.13-1.26,1a.65.65,0,0,0-.16.4c.15.58-.31.74-.63.73a2.22,2.22,0,0,1-1.18-.42,5,5,0,0,1-.84-1l-.73.47.39,1c.81-.61.89-.58,1.51.46.39.65-.13.77-.56,1a.86.86,0,0,0-.33.3c-.35.48-.72.52-1,.18l-.44.72.25.64-.89.27c0-1,0-1.81,0-2.6l-.95-.36c.12.48-.25,1.07.36,1.49.11.08.11.5,0,.64a.66.66,0,0,1-.63.12,5.74,5.74,0,0,1-.86-.74l-1.46.91a5,5,0,0,1,.55,1c0,.19-.2.66-.28.65-1.11-.08-1.1.91-1.49,1.5s-.17,1.89-1.19,2.36c-.3.13-.61.46-.85.41s-.48-.44-.61-.57l.86-1h0c-.74.42-1,0-1.09-.64h0v0c-.39.06-.89.27-1.14.11a1.13,1.13,0,0,1-.18-1.1,7.86,7.86,0,0,1,1.3-1.36l1.11,1.47c-.33.49-1.22,0-1.09.88h0v0l.74-.23c.12.3.23.59.35.87h0l0,0h0c.71-.49,1-1.11.58-1.83-.25-.08-.52-.1-.66-.25s.05-.37.09-.56l1.06.45.85-1.13a2.53,2.53,0,0,1-2.09-1.84l1.08-.71c-.1-.25-.19-.46-.18-.45a4.75,4.75,0,0,1,.5-.93,2.75,2.75,0,0,1,.65-.44,3.79,3.79,0,0,1,.29.65c0,.12,0,.27-.08.41l.2.17c.25-.23.71-.47.7-.69a2.62,2.62,0,0,0-.48-1.21c-.14-.22-.43-.33-.82-.61l.94-.27-.1-.52c.44-.34,1.25-.08,1.34-.9,0,0,.26,0,.36-.07.36-.24.92-.18.89-1,0-.46.6-.94.93-1.4l.34.16c0,.49-.06,1-.1,1.52l1.31-.8.29.51.37-.64-.59-2.15.85-.28,0-.19h-.92l-.25-.72,2.8-.25-.32-.56c.21-.39.5-.67.44-.83-.32-.85.3-1,.82-1.17.29-.12.55-.32.84-.46l1.73-.83a5.06,5.06,0,0,0,.08-1.37,2.23,2.23,0,0,1,.08-1.84c0-.06-.19-.34-.32-.49-.42-.44-.85-.87-1.27-1.3L38,96.3c.32.07.64.16,1,.21a3,3,0,0,0,.52,0,3,3,0,0,1,.07-1,.78.78,0,0,1,.74-.21c.17.07.16.49.27.74a1,1,0,0,0,.35.34s.2-.12.27-.21.32-.44.48-.67l.36.2-.27.75a.84.84,0,0,0-.1.33c0,.05.16.12.24.12s.47,0,.62-.07c0-.58,0-1.1,0-1.76l-1.82.19c-.11-.4-.23-.89-.36-1.38l-.25-.06c-.42,1.2-1.22.57-2,.46,0,.46.08.84.12,1.22L38,95.3a13,13,0,0,1-1,1.32c-.51.51-1.11.95-1.67,1.42l-.24.33a2.37,2.37,0,0,0,.54-.13c.82-.43,1.05,0,1.17.84-1-.1-1.77.64-2.76.84L35.34,101l-.19.37L34,101.16c0,.1.25.35.19.46s-.36.29-.56.43c-.31-.73-1-.41-1.53-.48.36.89.13,1.53-1,1.84.34.29.57.45.76.65a1.09,1.09,0,0,1,.35.57c0,.13-.23.35-.4.4-.55.19-1.05,1-1.72.21l-.11.05.12.71-1.72.08c.13.62.25,1.22.41,2a1,1,0,0,0,1.34-.77l-.82.07-.22-.75,1.48-.28a14.09,14.09,0,0,1,.21,2c0,.18-.35.43-.59.54a5,5,0,0,1-1,.23,2.39,2.39,0,0,1,.07.32c0,.32.09.72-.07.92-.29.37-.58.06-.83-.19s-.43-.4-.65-.59l-.16.36.19.66-.66.23a4.56,4.56,0,0,1,.18,1.22c0,.25-.55.53-.5.69.3,1-.51.83-.95,1.11-.1-.14-.16-.3-.25-.33a3.15,3.15,0,0,0-1-.16c-.07,0-.08.49-.17.73a1.64,1.64,0,0,1-.45.76c-.48.3-.45.62-.22,1l1.33-.45.33.62-.46.28c.18.33.34.65.51,1l-.94.39a3.61,3.61,0,0,1-.46.17,3,3,0,0,1-.83.11c-.08,0-.24-.41-.19-.47a2.52,2.52,0,0,1,.67-.49c.09-.06.24,0,.42,0l-.49-.86c-.23,0-.57.19-.68.09-.88-.8-.74-.06-.85.5a1.23,1.23,0,0,1-.55.87c-.3.12-.72-.09-1.06-.16L19,118.57l.63,1c.14-.53.26-1.26.87-.82A9.14,9.14,0,0,1,22,120.49l.78-.26.62,2.17-1.86.49c.13-.78.24-1.47.36-2.15l-1.77.15L19,120c.09,1.68-.79,2.4-2,1.92-.51-.2-.57,0-.56.22a15.52,15.52,0,0,0,2,.51c.57.08,1,1,1.7.21l.21.14-.25,1.14a2.35,2.35,0,0,1-.6,1.65,1.24,1.24,0,0,1-.37.11l-.21-.54.61-.8-.18-.13a1,1,0,0,1-1.58.39,1.1,1.1,0,0,0-.74,0,3.31,3.31,0,0,0-.66.25l-.24-.12.33-1-.79.16c0-.37-.06-.71-.09-1l-1.36.22c.47.22.83.36,1.17.55s.27.77-.44,1.22c.13.09.31.16.37.28.28.55.49.53.92.08s.74-.16.83.33l-.44.61-.41.58a3,3,0,0,1-.57-.43,2.5,2.5,0,0,1-.27-.57,1.92,1.92,0,0,0-.76,2c0,.19.12.47.25.52a.65.65,0,0,1,.35,1.07c-.14.23-.55.29-.82.46s-.48.34-.73.5-.53.28-.84.45l.16.94.74-.29-.17-.11a3.93,3.93,0,0,1,.41-.79c.05,0,.38.13.58.21l-.39,1c0,.28.05.66.08,1l-1.14.05a2.75,2.75,0,0,1,.26.7c.07.55-.52.59-.91.06-1.39,1-1.45,1-2.07.17a4,4,0,0,0,.06,1.1,3.57,3.57,0,0,0,.55.82l-1.06.61A1,1,0,0,1,9,137.67l-.69,1.45-.87-.41,0,1.07.71-.19.23.75c-.48.06-.89.68-1.27-.07,0,.37,0,.39-.94.6l-.49.44.29.92a10,10,0,0,0-1.74.84,2.28,2.28,0,0,0-1,1.24,12.85,12.85,0,0,0,.14,2.51l-.79.39c.34.47.49.83-.19,1.1a.9.9,0,0,0-.57,1.2,6.48,6.48,0,0,1,.09.77H2v0l.64-.56.36.92c-.58.46-.81.1-1-.36l0,0v0l-.15.08c.55.72.73,1.84,1.56,1.91.52-.2,1-2.18,1.68-1.87l.08.07a2,2,0,0,1,.66-.5c-.08.38-.15.62-.18.83,1.51.83,2.44-.92,4-1-.32.73.93.84-.11,1.26,2.61-1,2.2-2.08,2.94-4.79-.21-.52,2.39,1.47,3,0,.64-2.32,2.42-2.88,4.23-3.51l.19-.3c-.44-.89-.32-1.15.87-1.79.29-.16.45-.54.67-.82h0a4,4,0,0,1-.77.39c-.06,0-.35-.39-.31-.46a13.91,13.91,0,0,1,.86-1.16l.35.14c0,.37-.09.73-.13,1.09h0v0l1.83-1.72-.88-.94.11-.28a2.61,2.61,0,0,0,1,.06c.28-.11.48-.45.72-.69l-.16-.23,1.75-.7c.13-.05.25-.13.38-.19l-.29-.39-.47-.68c.25-.1.45-.11.53-.22.22-.31.82,1,.8-.21A8.61,8.61,0,0,1,27,132.3c.4-.11,1-.88,1.51.33.17-1,.16-1,1.14-.63.15.05.36-.1.54-.15l.16-.52c-.2,0-.43.18-.57.11-.45-.2-.63-.51-.17-.91a17,17,0,0,0,1.49-1.33,3.76,3.76,0,0,0,.48-1c0-.28-.2-.84-.06-.94.46-.32,1-.71,1.73,0l-.2-.68a5.26,5.26,0,0,0,.72-1.26,1.31,1.31,0,0,1,1.28-1c.83,0,.84-.58.85-1a.77.77,0,0,1,.64-.84,4.1,4.1,0,0,0,.94-.65,2.45,2.45,0,0,1-.46-.45,3.12,3.12,0,0,1-.33-.88c0-.09.31-.35.39-.31a2.74,2.74,0,0,1,.62.47c.09.09.17.2.27.29.6.64.59.78-.13,1.28l.15.71c0,.19.09.39.14.63l.77-.3c-.07-1-.13-1.94-.2-3-.06,0-.24.09-.33,0a2,2,0,0,1-.41-.46c.15-.12.38-.38.43-.35.8.5,1.47-.26,2.3-.13l.28.54c.09-.54-.41-1.26.59-1.32a2,2,0,0,1,0,2.34c-.21.45,0,1.07-.64,1.39-.29.14-.47.57-.64.9s-.19.64-.32,1-.41.69-.86.22c-.08-.08-.33,0-.5,0l.31,2.51.81.79-1.89.45c-.15-.53-.33-1.12-.51-1.74-.47.29-.47.29-.06,1.89-.54.17-1.11.78-1.47-.28l-1.14,1.28,1.13-.38.4,1-.43.27.26.85h0v0c.62-.27,1-.06,1,.65l-.91.36c0-.38-.06-.69-.09-1h0v0l-.8.19.83,1-1.55.28.5.91a5.94,5.94,0,0,1-1,.89,2.64,2.64,0,0,1-1,.15l-.11-.93c-.13.12-.47.32-.44.42a3.15,3.15,0,0,0,.51,1,12.25,12.25,0,0,0,.88,1l-.66.36.52.65c1-.37.45-1.75,1.27-2.14l-.41-.74c.48-.44.81-.43,1.07.43a5.06,5.06,0,0,0,.55-1,1.15,1.15,0,0,1,1.79-.7,4.21,4.21,0,0,0,.28-.45c.22-.53.43-1.05.63-1.58.07-.2,0-.49.19-.61.43-.41.91-.76,1.36-1.15.08-.07.07-.24.14-.34s.34-.45.52-.68l.19.12,0-.92,1.35.06c-.14-.47-.27-1-.42-1.48l1.56-1.14c.28.57.57,1-.22,1.21-.14,0-.24.2-.35.3.16.06.32.19.47.18.57-.06,1.14-.15,1.68-.23A11.71,11.71,0,0,0,47,124.8l0,0c-.1-.08-.44.13-.89.27,0-.39-.08-.82.09-1s.6-.09,1-.12c0-.06.12-.31.28-.41s.53-.07.57,0a.79.79,0,0,1,.08.26l.33-.35c-.13-.37-.55-.74.09-1,.12-.06.47.11.59.27,1-1.18,1.91-2.41,2.87-3.49l.07-.08c0-.07-.06-.14,0-.16a12.26,12.26,0,0,1,1.26-1.28v.1l.21-.2a2.74,2.74,0,0,1-.11-.28c.33-.13.63-.28.93-.4,1.14-.9,2.43-1.73,3.66-2.58,0-.16-.08-.31-.13-.46s.33-.51.51-.76l.38.15.06.49c.32-.23.63-.47.93-.7h-.26c-.48-.63,0-.81.54-1-.1-.4-.28-.86.33-.82l-.7-1.52,1.28.16c.28-.2.57-.56.75-.51a1.45,1.45,0,0,1,.83.54c.05-.11.1-.21.14-.32l-.53-.71c.47-.26.71-.39.87-.35a5.63,5.63,0,0,0,.11-.93h.21l0-.14c.21-.09.49-.14.63-.31a.67.67,0,0,0,.08-.6,13.19,13.19,0,0,1-.57-1.21,3.67,3.67,0,0,1,0-1.28s.59-.1.64,0a8.49,8.49,0,0,1,.41,1.26l.94-.28a1.89,1.89,0,0,0-.41-1.74c.34-.17.75-.26.79-.42.22-1.12,1-.43,1.52-.5a1.57,1.57,0,0,1,.32,0c0-.48-.11-1,.08-1.32s.71-.23,1-.33c-.68-.91-.68-.91-1-2.77l.75-.3.44.66c-.27-.73-.1-1.2.83-2.07l-1-1.46-.5.07a1.3,1.3,0,0,1,.46-2L68.28,92l1.26-.5-.15-.77.74-.3c.05.36.12.65.13.94a4.35,4.35,0,0,1,0,.72l1.17-.46c-.15-.73-.31-1.55-.5-2.49l-1,.88c-.43-.45-.91-.75-1.1-1.18s.25-1,.89-1.13l.37.76a11,11,0,0,0,1.2-1,.67.67,0,0,0-.12-.64c-.77-.29-.76-.26-.39-1a.69.69,0,0,0-.07-.57.53.53,0,0,0-.46-.17.69.69,0,0,0-.24.51,2.3,2.3,0,0,0,.16.86c.26.67-.27,1-.64.9-.7-.16-1.07.25-1.55.56.24.7-.15.85-.73.76s-.85-.23-1.36-.37a15.32,15.32,0,0,1,1.31,1.45.78.78,0,0,1-.17.73c-.74.65-1.53,1.24-2.32,1.86.3.45,1.13.3.67,1.3-.36.81-1.19.19-1.32.7l.93,1-.93.88.8,1,0,0v0a4.13,4.13,0,0,1,.75-.39c.06,0,.36.38.31.46a3.71,3.71,0,0,1-.65.73l-.41-.8,0,0v0l-.76.52c.06.4.12.79.18,1.21l-.66.26-.22-.57-.65,1,0,.44a2.57,2.57,0,0,1,.69.18c.08,0,0,.48,0,.49a8.61,8.61,0,0,1-1.1.12,2.79,2.79,0,0,0,.17.41c.18.32.39.63.55,1,0,0-.43.34-.48.3a8.64,8.64,0,0,1-.85-.86s0,0-.11-.09c-.4.16-1.07-.12-1.29.78l1.21-.61c0,.41.17.83,0,.94a3.42,3.42,0,0,1-1,.39l-1.06.34.23,1-1.26-.33a7.68,7.68,0,0,1,.38,1,.66.66,0,0,1-.13.55c-.08.09-.34,0-.53,0a1.12,1.12,0,0,0-.62.12,4.16,4.16,0,0,0-.58.78c.34.23,1.12-.45,1.15.43,0,.25-.51.52-.78.77.51,0,1.28-.26,1.36.71l-.34.27c-.77.57-1.37,1.49-2.54,1.28a1.46,1.46,0,0,0-.58,0c-.18.06-.47.28-.45.35.21.72-.27.78-.75.84-.66.07-1.29.09-1.67.83-.24.45-1.87.35-2.2-.11l-1.43.56,0,0h0c.52,1.27.33,1.68-1,2.1a11.16,11.16,0,0,1-.62-1,3.55,3.55,0,0,0-.87.93l.69-.27.33.83-.68.32-.34-.87a5.31,5.31,0,0,1-.82,1l1.23.24.4,1L46,116.71l0-.06c-.26,0-.51,0-.76.09a3.81,3.81,0,0,0-.45.13,1.51,1.51,0,0,0,.18.45c.45.44.52.78-.09,1.18-.43.28-1,.63-.48,1.37l-.93.36c-.12-.59-.65-1.13,0-1.58l-.56-.76-.86,1c-.47-.72-.8-1.18.14-1.53a1.19,1.19,0,0,0,.15-.09,2,2,0,0,0-1.44.16M68.31,4.81c-.52-.71-.49-.81.4-1.15C69.16,4.29,69.06,4.68,68.31,4.81ZM35.57,101.74c0-.5-.56-1.3.65-1.33a3.78,3.78,0,0,1,.4,1.09,1,1,0,0,1-.39.87C35.71,102.62,35.58,102.08,35.57,101.74ZM32.37,103a2.87,2.87,0,0,1,1.05-.11.82.82,0,0,1,.31.76c-.11.27-.47.43-.82.73ZM5.09,147.23c-.55.2-1.07.35-1.28-.44C4.71,146.28,4.88,146.33,5.09,147.23Zm10.45-18.39L15,127.49l1.52-.36C16.93,128,16.68,128.47,15.54,128.84Zm1.94-3.1c0-.09.37-.26.44-.21a4.17,4.17,0,0,1,.7.7l-1.08.42A4.21,4.21,0,0,1,17.48,125.74ZM17.25,127c.15-.07.4,0,.82.13-.3.32-.42.56-.59.6s-.38-.13-.58-.21C17,127.34,17.09,127.08,17.25,127Zm.31,2.09-.27-.69.84-.33C18.55,128.77,18.15,129,17.56,129.09Zm.67-1.39c-.08-.12.1-.59.26-.66.8-.38.84.41,1.22.82C19.06,128.31,18.57,128.2,18.23,127.7Zm2.28,0c.2,0,.48.23.89.45l-1.06.42C20.07,128.14,20,127.76,20.51,127.65Zm2.1,4.88c-.06-.21.27-.54.42-.81l1,.93C23.31,133.06,22.81,133.18,22.61,132.53Zm-1.94-6.28a1.15,1.15,0,0,1,1.71.55A1.14,1.14,0,0,1,20.67,126.25Zm1.65-1.78a2.82,2.82,0,0,1-.64.68l-.47.6-.93-.83.28-.15a2.68,2.68,0,0,1,.56-.68,1.15,1.15,0,0,1,.81-.13C22.1,124,22.36,124.37,22.32,124.47Zm.64,1.4-.37-.94,1.49-.86c.33.51.3.79-.27,1C23.5,125.21,23.29,125.56,23,125.87Zm2.64,1.54c0,.2-.23.47-.45.88l-.42-1.06C25.12,127,25.49,126.88,25.6,127.41ZM22,119.28a.73.73,0,0,1-.66-.26c-.2-.64.24-.83.78-.94C22.34,118.54,22.62,119,22,119.28Zm9.14-.52a1.21,1.21,0,0,1-.91.48c-.16,0-.54-.59-.46-.72.18-.33.56-.54,1.08-1C31,118.13,31.21,118.54,31.1,118.76Zm5.41,10.17a1.49,1.49,0,0,1,2.22.53C37.55,130.44,36.88,130.27,36.51,128.93Zm3,.11L39.07,128c.45.16.84.17.94.35C40.3,128.77,39.93,128.93,39.5,129ZM41,126l-.48-.21.26-.89.67.22Zm27.51-36.3.58,1.46-.64.25C67.71,90.19,67.72,90.06,68.48,89.69Zm-1.81,4.76a.48.48,0,0,1,.57.75,5.15,5.15,0,0,1-.94.66C65.8,95.12,66.31,94.78,66.67,94.45Zm-2,4.41a1.62,1.62,0,0,1,.56-.51,5.39,5.39,0,0,1,.81-.23,2.19,2.19,0,0,1,.7-.2c.11,0,.31.38.27.5a3.73,3.73,0,0,1-.53.74L66.35,99a2.81,2.81,0,0,1-.72.35,1.37,1.37,0,0,1-.75-.06C64.76,99.27,64.61,99,64.66,98.86Zm-2.46,8.26c.47-.29.64.08.74.51l-1.08.43C62,107.61,62,107.23,62.2,107.12Zm-6.54,7.42-1,.4-.33-.68C54.91,114,55.43,113.58,55.66,114.54Zm-5,4.71-.07-.73c-.21-.15-.5-.27-.5-.39a1.72,1.72,0,0,1,.28-.85.55.55,0,0,1,.55-.14,8.35,8.35,0,0,1,.86.92C51.38,118.4,51.7,119.36,50.68,119.25Zm-.58-5.15c.57-.14,1.11-.29,1.66-.38a.77.77,0,0,1,.21.53c0,.16-.28.31-.46.38s-.36-.06-.52,0a2.14,2.14,0,0,0-.55.33ZM49,115.38c0-.17.3-.49.53-.63s.41.07.63.11c0,.23-.12.46-.15.7s0,.41,0,.49c.64.58.62.76-.34,1.22A17.08,17.08,0,0,1,49,115.38Zm-.73,5.14a2.72,2.72,0,0,1,.89.35c.08.07-.14.5-.23.76l-.89-.64Zm-2.46,2.06a10.61,10.61,0,0,1,1.34-1l.24.59a10.12,10.12,0,0,1-.85,1.3.74.74,0,0,1-.68,0A.9.9,0,0,1,45.84,122.58Zm-2.5-1.47-.13.31-1,.4.24-1.12ZM54,102l-.82.33-.32-.67.87-.34Zm1.51-4.64c-.63.36-1.1.38-1.33-.42l1-.4Zm1.18-2.22c-.17.07-.44-.1-.67-.16.09-.23.12-.56.3-.68s.48,0,.73,0l.11.26C57,94.78,56.92,95.07,56.72,95.16Zm-.18-5.34c-.17.18-.33.51-.5.51a1,1,0,0,1-.72-.37c-.07-.08.13-.58.23-.59a2.88,2.88,0,0,1,.9.15Zm-.11-7c-.2.06-.63-.07-.68-.22-.29-.7.39-.62.8-.87C56.78,82.18,57.09,82.6,56.43,82.81Zm1.5,1.32-.33-.83.79-.31C58.88,83.73,58.86,83.8,57.93,84.13ZM59.59,86a.76.76,0,0,1-.68-.23c-.23-.62.21-.84.82-1C59.83,85.21,60.37,85.68,59.59,86ZM61,84.43a3.7,3.7,0,0,1-.91.07c-.1,0-.27-.37-.21-.45a4.45,4.45,0,0,1,.69-.69Zm1.07-4.59a7.15,7.15,0,0,1-1.34-.1c-.14,0-.29-.38-.27-.57s.34-.39.44-.35C61.33,79,62,78.86,62.05,79.84Zm2.2-19.56c-.74.51-.82.48-1.15-.41l.85-.34Zm3.06,1.9-.84-.46.22-.5.9.33Zm-.11-1.9-.8.31-.34-.67.86-.34Zm8.25-26.51-.27-.67.81-.37.36.68Zm6.93-5c-.21.46-.43.91-.64,1.37a3.39,3.39,0,0,1-.92-.5,5.62,5.62,0,0,1-.67-1.12l.75-.29.35.68c.19-.14.36-.32.53-.34A1.47,1.47,0,0,1,82.38,28.74ZM78.83,16.59c.35.25.64.36.68.53s-.16.41-.26.62c-.21-.1-.51-.15-.6-.31S78.73,17,78.83,16.59Zm1.91,3.52s.06.19.13.45l-.83.33-.33-.84.59-.27a3.14,3.14,0,0,1,.39-.82c0-.06.34.11.52.17Z"/></svg>