<svg id="Layer_1" data-name="Layer 1" xmlns="http://www.w3.org/2000/svg" viewBox="0 0 132.22 164.6"><defs><style>.cls-1{fill:#1d1e1e;}</style></defs><path class="cls-1" d="M47.29,76.77l-.13.2v.09l.05,0Z"/><path class="cls-1" d="M81.05,56.17s-.07.08-.1.08-.06-.06-.09-.1l.1-.08Z"/><path class="cls-1" d="M81.05,4.66s-.06.06-.1.09l-.09-.1.1-.09S81.05,4.63,81.05,4.66Z"/><path class="cls-1" d="M77.26,59.07s-.06.06-.09.09l-.09-.1.1-.08S77.27,59,77.26,59.07Z"/><path class="cls-1" d="M81.74,40.73a.16.16,0,0,1,.1-.08s.06.06.09.09l-.1.09S81.74,40.76,81.74,40.73Z"/><path class="cls-1" d="M82.62,67.21s.06-.06.09-.09l.09.1s-.07.09-.1.08S82.61,67.24,82.62,67.21Z"/><path class="cls-1" d="M83.38,24.74s-.07.08-.1.08-.08-.06-.08-.09.06-.06.09-.09Z"/><path class="cls-1" d="M86,99.52s-.06.06-.09.09l-.09-.1.1-.09S86,99.49,86,99.52Z"/><path class="cls-1" d="M95.6,146.38l-.1.08s-.08-.06-.08-.1.06-.08.09-.08S95.57,146.34,95.6,146.38Z"/><path class="cls-1" d="M91.4,18.06a1,1,0,0,1-.08-.25s.06-.06.09-.1l.14.19Z"/><path class="cls-1" d="M91.55,18.81l-.17.11a1.17,1.17,0,0,1,0-.26s.07-.06.1-.09Z"/><path class="cls-1" d="M118.5,45.3s.08.07.08.1-.06.06-.1.09l-.08-.1Z"/><path class="cls-1" d="M55.85,67.5s.06-.06.09-.09l.09.1s-.07.09-.1.09A.16.16,0,0,1,55.85,67.5Z"/><path class="cls-1" d="M62.14,126s-.07.08-.1.08S62,126,62,126l.1-.08Z"/><path class="cls-1" d="M47.59,107.67l-.1.09s-.08-.07-.08-.1.06-.08.1-.08S47.56,107.64,47.59,107.67Z"/><path class="cls-1" d="M31.88,101.56s-.07.08-.1.08-.08-.06-.08-.09.06-.06.09-.09Z"/><path class="cls-1" d="M44.84,37.19l-.09.24-.15.2.11-.24Z"/><path class="cls-1" d="M30.92,15.91,31,16s-.07.08-.1.08-.06-.06-.09-.09Z"/><path class="cls-1" d="M12.3,132l.09.1s-.07.08-.1.08-.08-.06-.08-.09S12.27,132.05,12.3,132Z"/><path class="cls-1" d="M119.42-1.5c1.09.38,1.09,1.56,1.53,2.4.53,1,1,2.06,1.48,3.12a6.22,6.22,0,0,1,.69,2.11c0,.38-.55,1-1,1.14a2.65,2.65,0,0,0-1.74,3.13c.19,1.11.71,2.22.4,3.33s-.46,2.19-1.57,2.73a1.48,1.48,0,0,1-1.15,0c-1.4-.71-2.1-.37-2.37,1.23a8.94,8.94,0,0,1-.33,1l.88.87L114,21.42l-1.09-.09-1.42,1.84-.1-.06c-.09.32-.17.65-.23,1l1.15,1.38-1.42.2c-.36,2.66-.39,5.26-1.83,7.57l.67-.3a3.14,3.14,0,0,1-2.23,2.82l.68-1.34a10.66,10.66,0,0,1-1.85,1.6l.84,0A12.48,12.48,0,0,1,105.58,38c-1.28,1-3,1.47-3.74,3.15-1.25-.11-.65,1.65-1.71,1.38-.45-.06-1-.31-1.32-.13-.47.28-.59.78-.11,1.37a1.58,1.58,0,0,1,.11,1.45c-.17.33-.82.4-1.37.63.64,1.58-1,2.22-1.82,3.18s-1.5,1.9-2.23,2.84-.8,2.11-1.29,3.1a9.37,9.37,0,0,0-.37,2.23,2.79,2.79,0,0,1-.44,1.4c-1.35,1.35-1.45,3.15-1.86,4.83a8.18,8.18,0,0,1-1.87,3.11c-.07.09-.25.12-.29.21-.89,2-1.72,4-2.66,5.89-.49,1-1.19,1.93-1.74,2.92a4.14,4.14,0,0,0-.62,1.68,6.54,6.54,0,0,1-1.94,3.86,17.37,17.37,0,0,0-1.6,2.83.47.47,0,0,0,0,.26c.35,2-.75,3.8-1.77,5.19-1.68,2.27-2.32,5-3.65,7.34-.52.93-.4,2.2-.63,3.31a10.62,10.62,0,0,1-.49,1.51,15.86,15.86,0,0,1-.75,1.87c-.26.52-.69,1-1,1.49a9.26,9.26,0,0,0-.39,1.57c-.44.72-1.09,1.84-1.81,2.92a3.78,3.78,0,0,1-1,1c-.61.45-1.32.8-1,1.77,0,.12-.07.33-.16.46-.77,1-1.63,2-2.32,3.12s-1,2.06-1.55,3.1a7,7,0,0,1-.46.74l-.42,0c0-1.1.07-2.2.11-3.46-.36.08-.91.16-.91.23,0,1.81-1.41,2.17-2.69,2.66a2.42,2.42,0,0,1-.36.1c-.15,1.72-.54,2.11-2,1.85a3.83,3.83,0,0,0,1.11-.55,1.22,1.22,0,0,0,.22-.66l-3-1.21,1.75-1.77.23.25a4.21,4.21,0,0,0-.48,1.12c0,.15.44.48.7.49s.43-.33.6-.48c.44,0,1.08.13,1.39-.12a1.43,1.43,0,0,0,.35-1.34,3.85,3.85,0,0,0-1.47-1.11c-1.24-.65-2.27.36-3.39.58-.28.06-.41,1-.67,1.62l-1.54.59-1.53-2.5,2.91.68c.06-1.68-1.33-.91-1.77-1.4.43-.61.87-1.22,1.18-1.67l.2-.2a10.49,10.49,0,0,0-2.91,0l.88.61a6,6,0,0,1-1.6.53c-1.68,0-2,1.37-2.61,2.51a4,4,0,0,1-.5.66l-1.86,2.23-1.49-.23.15,1.68c-1,.58-2.28.68-2.3,2.15,0,.07-.24.13-.4.19,0,.12.1.25.06.34s-.2.14-.31.17a22.76,22.76,0,0,0-2.2.75c-.19.09-.18.6-.26.91-.44-.18-.92-.56-1.35-.5s-.51.68-.91,1.27a6.46,6.46,0,0,0-.79-.09c-.33,0-.66.06-1,.09-.28,1-.08,2.11-1.38,2.54-.26.08-.29.76-.52,1.09a9.05,9.05,0,0,1-1.09,1.23c-.13.13-.51.16-.51.25-.1,1.61-1.34,1.38-2.38,1.62-.58.14-1.05.77-1.57,1.18-.25.2-.52.38-.56.41l-2-.71c.44,2.91-2.84,3.62-3.18,6.18-1.61.86-1.61.86-1.89,2.24a4.32,4.32,0,0,0-1.68-.25c-.26.06-.35.81-.26,1.37l-1.29.93c-.07-.38-.13-.69-.2-1.1H13.15c.09.48,0,1,.28,1.22.93.88.06,1.79.14,2.67,0,.07-.48.24-.73.25-.41,0-.81-.1-1,.16a13.56,13.56,0,0,0-2.17,2.73A15.68,15.68,0,0,0,9,154c-.84.72-2.1.31-3.12,1.42-1.2,1.3.36,2.21-.18,3.22-.71-.22-1.46-.74-1.76.61-.07.35-.93.54-1.73.95l1.47,2.1-.41,0-.65,1.15,14.85-1.37c.42-.55-.18-1.48.84-1.88s1.77-.84,1.74-2.08c0-.1.54-.33.81-.3a3.73,3.73,0,0,1,1,.44c.07-.47.14-.94.2-1.41.09-.64,0-1.34.95-1.51,1.29-.22,2.46-.68,1.61-2.41,0,0,.05-.15.1-.28a1.78,1.78,0,0,0,.7.14,6.87,6.87,0,0,0,1.11-.43c-.19-.35-.3-.91-.59-1a18.27,18.27,0,0,0-2.53-.65c0,.9.06,1.39.06,1.51l-2.51.87c-.27-1.1-.56-2.28-.88-3.61.84-.92,2-.12,2.91.18s1.41.29,1.88-1.06c.15,1.94,1.35,1.4,2.11,1.57-.07.47-.14.93-.23,1.45,1.2-.05,2.69,1,2.67-1.28l3.33.36c.48-2-1-1.8-2-2.25.82-.2,2,.46,2-.78.62-.28,1.46-.43,1.53-.74a14.75,14.75,0,0,0,.06-2.82L33,144l2.12-1.48a4.39,4.39,0,0,0-.06.91c.08.41.18,1.15.31,1.16a5.48,5.48,0,0,0,2.1-.21c.44-.15.75-.66,1.12-1l-.11,0,2.17-3.17c.35.3.81.9,1,.82,1-.37,2-.69,3-1,.59-.17.84-1.29,1.39-1.84a26.48,26.48,0,0,1,2.34-1.89c.57-.55.6-1.72,2-1.24.22.08.72-.3.92-.59.6-.89.74-2.16,2.12-2.35a.86.86,0,0,0,.47-.38c.7-1,1.32-2.15,2.09-3.13s1.76-1.79,2.55-2.76q1.81-2.22,3.47-4.55c.59-.84,1-1.81,1.51-2.69.14-.23.45-.35.68-.52a2.2,2.2,0,0,0,.54-.39c.32-.42.59-.89,1-1.49s.71-1.42,1.16-2.18.85-1.24,1.25-1.88c1-1.52,1.84-3.12,2.95-4.54.34-.44.8-.76.77-1.34-.1-1.43.94-1.91,1.77-2.33.15-1.16.57-2.26.34-3.19a2.22,2.22,0,0,1,.49-2c.43-.68.53-1.45,1.62-1.35-.08-.47-.15-.82-.17-1,.31-.37.73-.64.72-.91s-.37-.65-.7-1.15c.17-.67,0-1.9,1.28-2.07a8.4,8.4,0,0,1,.44-1.48c.78-1.45,1.92-2.72,2.07-4.47,0-.61,0-1.41.36-1.8a10.62,10.62,0,0,0,1.76-3c.46-1,1.07-2,1.54-3,.28-.6.35-1.29.62-1.88.59-1.27,1.23-2.5,1.88-3.73.3-.56.7-1.06,1-1.61.53-1,1-2,1.53-3a8.67,8.67,0,0,1,1.07-1.85,3.82,3.82,0,0,0,1.39-2.5,22.52,22.52,0,0,1,.64-3.51c0-.13.07-.33.14-.34,1.07-.27,1-1.24,1.25-2s.51-1.86,1-2c1.44-.48.82-1.45.87-2.28,0-.43,0-.87,0-1.31,0-1.59,1.49-2.25,2.31-3,1.94-1.87,3.05-4.26,4.71-6.26A15.1,15.1,0,0,1,103.58,41c1.27-1.05,2.7-1.92,4-3a24.32,24.32,0,0,0,2.76-2.51c.56-.6.78-1.53,1.39-2a42.48,42.48,0,0,1,3.67-2.43c-.12-.54-.29-1.25-.42-1.85l1.6,0c-.56-2.09.28-3.28,2-4.15A20.74,20.74,0,0,0,123,22.36a21.47,21.47,0,0,0,3.37-4.08,17,17,0,0,0,2-3.76,17.5,17.5,0,0,0,.57-3.26l-.35,0,1.47-.45-1.82-1.35a3.58,3.58,0,0,0-2.74-2.21,14.08,14.08,0,0,1-1.19-2.43c-.51-2-2.3-3.38-2.23-5.57,0-.53-2.28-2.58-2.78-2.74l-.12,0A6.66,6.66,0,0,1,119.42-1.5ZM12.73,161.35a1.79,1.79,0,0,1-.53-.41c-.27-.33-.5-.69-1-1.35.09-.27.32-.88.64-1.77.2,1,.34,1.62.5,2.29a2.21,2.21,0,0,0,.28.63,2.45,2.45,0,0,0,.36.36C12.91,161.19,12.76,161.37,12.73,161.35Zm6.92-6.45c-1.69-.1-2.79,1.22-4.22,1.73a.87.87,0,0,1-.36,0c.25-.5.8-1.15.67-1.36-1-1.49.73-4.06-2.1-4.77.79-.18.92-.32,2.55,1.26.63.6.51,2,.75,3.1.84.33,1.1-.23,1.3-1a8.11,8.11,0,0,1,.58-1.25,13.62,13.62,0,0,1,.94,1.57A1.18,1.18,0,0,1,19.65,154.9Zm3-13.18s-.08-.06-.08-.09,0-.07.07-.08.06,0,.09.08Zm6.82,4.49L29,144.74l1.58-.72,2,.62C32.25,146.2,31,146.36,29.5,146.21Zm11.16-12-.9-.7c-.15.58-.31,1.16-.47,1.74l-.17.1a18.94,18.94,0,0,1-.17-2.11c0-.17.46-.3.67-.48.55-.45,1-1.18,1.63-1.3s1.49-.88,2,.28C41.38,131.9,40.74,132.58,40.66,134.23Zm10.85-10.89c-.22-.32-.37-.79-.68-.92a6,6,0,0,0-1.58-.24c.29,1.83-.87,3-2.19,2.83a4.2,4.2,0,0,0-.16-1.35c-.16-.32-.6-.49-.91-.73l.2-.38,1.11.1c0-.85,0-1.71,0-2.32.24-.71,1.13,1,.9-.88.12,2.1,1.67,1.92,2.72,2.44.41.21.67.72,1,1.09ZM115,23a1,1,0,0,1,0-.32l.33.4A2.45,2.45,0,0,1,115,23Zm3-1.87-.38.09-.76-.84.13-.21.57.18.19-.16-.71-.83,1.15-.26C118.06,19.8,118,20.48,117.94,21.15Zm8.62-10.73c.2,0,.4.49.43.77,0,.66,0,1.33,0,2l-.3,0c-.11-.56-.21-1.11-.37-1.89l-1.08-.67A4,4,0,0,1,126.56,10.42Zm-.9,5.23L126,16c-.2.34-.38.69-.61,1s-.47.54-.71.82l-.65-.9Zm-1.1-1.85-1.76-1.65.19-.21,1.54.19C124.54,12.65,124.55,13.16,124.56,13.8Z"/><path class="cls-1" d="M13.15,71.89l-.74.31.45.29C13,72.29,13.06,72.09,13.15,71.89Z"/><path class="cls-1" d="M50,160.38s0,0,0,0h0Z"/><path class="cls-1" d="M103.32,153.16h.61A1.77,1.77,0,0,0,103.32,153.16Z"/><path class="cls-1" d="M28.83,152.36h0v-.05h-.05Z"/><path class="cls-1" d="M108.21,160.13l-1.06.75,1.13-.28Z"/><path class="cls-1" d="M38.76,24.92l.09-.24-.12.2-.12.24Z"/><path class="cls-1" d="M43.21,146.89l0,0V147h0S43.22,146.91,43.21,146.89Z"/><path class="cls-1" d="M43.38,156.11v0h0Z"/></svg>