<svg id="Layer_1" data-name="Layer 1" xmlns="http://www.w3.org/2000/svg" viewBox="0 0 85.22 251.08"><defs><style>.cls-1{fill:#1d1e1e;}</style></defs><path class="cls-1" d="M84.11,45.18l.09-.4-.27.2Z"/><path class="cls-1" d="M34,92.14h0v0Z"/><path class="cls-1" d="M6.3,15.83a7,7,0,0,1,1.19.08A7.34,7.34,0,0,0,6.4,17.44a3.65,3.65,0,0,0,.13,1.44l-.36.9a24,24,0,0,0,3,.88c.24,0,.6-.62,1.18-1.25,0,1.09,0,2,0,3l-.78-.11.7,1.92L9,24.27l1,1.9c-1.19-1.3-2.31-.55-3.47-.06-1,.39-2,.61-2.92,1a2,2,0,0,0-.86,1.1c-.06.17.43.78.58.75a6.58,6.58,0,0,0,1.46-.66c.73.63,1.23,0,1.78-.63a1.76,1.76,0,0,1,1-.63,9.36,9.36,0,0,1,1.93.18,4.78,4.78,0,0,1-.88,1.62c-1.06.91-.54,1.85.05,2.46.25.26,1.35-.33,2.14-.56l1.88,2.7-.24.22c.25.47.49.95.77,1.37l0-.12,1-.1c.18,1,.33,1.76.48,2.55,1.63-.63,2.05-1.56,1.26-2.9l1,.8c.86.69,1.71,1.38,2.58,2.05s1.8,1.36,2.72,2a24.86,24.86,0,0,1,3,2.12,26,26,0,0,1,2.48,3.2,6,6,0,0,0,5.62,2.63c1-.08,3,1.39,3.45,2.32a19.27,19.27,0,0,0,1.52,2.23C40,50.13,38.38,49.18,38,48l5.62,3.69-1,.79.89,2.37-.8.32q.84.81,1.59,1.62l1.19-.74c.35,1,.81,1.7,2,.91-.2.73-.36,1.28-.53,1.9l-.54-.64-.94-.17c1.09,1.16,2.2,2.33,3.6,3.56l-1.63,1.13c.3.92,1.35.67,2.1.66-.08.67-.15,1.28-.23,1.89l.64.23.93-1.43-.5,1,1.38-.25c-1.06,1.71,1.83.58,2,1.74l-.37.36c.16,1.36.29,2.48.44,3.73,1.35-.56,2-1.17,1.24-2.32L56.6,67l2.06.62-1.6,1.11c.44,2.24,2.07.29,3,.87-.68,1.1-.45,2,.77,3.08,1,.82,1.05.81,2.34-.24L61.43,71l.47.19c.12-.53.25-1.07.33-1.38l3.83,3.07a14.18,14.18,0,0,0-.19,3c.13.82.69,1.57-.27,2.24-.07.05-.07.28,0,.41.15,1.07,2.24,2.87,3.46,3.17l-2.68.47L67.61,84l-1.69.81c.45,2.06.85,4-1.2,5.49a1,1,0,0,0-.24,1c.2.37.64.6,1,.88-1,1-1,1,.2,2.13-.45,1-.66,2.44-1.37,2.73-1.6.66-.87,1.76-1,2.77-2.34-1.38-1.08,1.93-2.36,1.73l2.88,4.13a3.3,3.3,0,0,0-1-.35,13.55,13.55,0,0,0-1.66.24,8.84,8.84,0,0,0,.43,1.35,4.34,4.34,0,0,0,.72.84,7.37,7.37,0,0,1-1.23.89,17.33,17.33,0,0,1-2.1.59l.93,1.34,1.36-.76.32.24a13.36,13.36,0,0,1-1.13,1.62c-1.14,1.27-2.44,2.28-2,4.46.15.74.55,2.91-1.61,3.07-.16,0-.47.25-.45.31.52,2-2.47,3.11-1.42,5.35.19.41-.47,1.22-.83,2.05-.7-.27-1.61-.68-2.56-1-.24-.07-.88.33-.87.47a1.85,1.85,0,0,0,.51,1.19,28.88,28.88,0,0,0,2.48,1.57c-1,1.12-1.61,2.19-2.93,1.6.08-.73.36-1.42.13-1.71s-1-.27-1.8-.45l.79,1.52c-.26.43-.52.81-.72,1.22a13,13,0,0,0-.44,1.24l-1.33-.49a1.74,1.74,0,0,0-.73,2.27,13.32,13.32,0,0,0,2.24-.64,2,2,0,0,1,1,2.95c-.11.23.66.88,1,1.38-.13,0-.73.32-.85.18-.77-.86-1.25-.48-2.22-.11-2.11.82-2.37,1.06-.86,3,.41-.36,1.44-.24.8-1.33-.08-.13.08-.39.13-.59.2,0,.5,0,.59.17.64.91,1.24,1.85,1.75,2.63a5.93,5.93,0,0,0-1.89.26c-.42.24-.66.8-.94,1.17-.37-.26-.91-.93-1.45-.92s-.93.77-1.5,1.3l-.94-1.36,2.91-1.08c-.55-1.34-1-2.52-1.58-3.82l-1.25.67c.27.52.51,1,.84,1.58l-2.75,1.49c-.21-.64-.42-1.25-.59-1.88-.09-.34-.26-.87-.1-1,.83-.87.56-1.79.27-2.73l.08-.47a7.15,7.15,0,0,0-.18-1.68,5.69,5.69,0,0,0-.86-1.29c-1.42.77-1.64,1.44-.9,2.57.54.8-.31,1.76-1.74,2s-1.61,1-.83,2l2.29-.46c-.52.66-.47,2.15-1.93,1.34-.11-.06-.53.16-.59.32a1.35,1.35,0,0,0,0,1A6.54,6.54,0,0,0,38,142.32s.54-.47.8-.75.73-.78,1.09-1.18l.41.18c-.12.53-.45,1.15-.29,1.57s.84.59,1.26.85c-1.06,1,.32,1.15,1,1.55-.74,1.55-.45,2,2.41,3.66-.09,1.82-1.89,3.36-.79,5.46l-1-1-.63.44a9,9,0,0,0-1.9.23c-.12,0-.15,1,0,1.06a6.11,6.11,0,0,0,1.51.46,5.48,5.48,0,0,0,.51,1.47c.54.77,1.27,1.17,2.4.23-.43,1.11-2.5,1.28-1.13,2.7a3,3,0,0,0-.86,3.44c-.45.72-1.17,1.4-1,1.77a1.24,1.24,0,0,0,2,.65c1-.6,1.42.23,1.81.95l-.38.05a6.22,6.22,0,0,0,.06,1.89,8.49,8.49,0,0,0,1.2,1.79l-.39.27-.84-.87c-1.54.81-1.54.83-.11,2.63l1.2-.84,0,.29,2.36-.42L48,169.36l.3,0c.2-.66.75-1.48.53-1.94a24,24,0,0,0-2.25-3.36,1,1,0,0,1,.57.17c.49.44.86,1,1.38,1.42a3.74,3.74,0,0,0,1.63.63c.58.85,2,1.54,1.08,3-.72-.59-1.46-1.15-2.16,0,1.13,2.05,1,3-1.08,4.17a19.19,19.19,0,0,0-1.75,1.2c0,.17-.06.31,0,.34a7.65,7.65,0,0,1,2.86,4.65c0,.2.46.31.61.53a3.47,3.47,0,0,1,.32.87c-.36,0-.92.11-1-.07a10.59,10.59,0,0,1-.73-1.64c-.15-.33-.3-.79-.56-.89a1.15,1.15,0,0,0-1,.27,1.28,1.28,0,0,0,0,1c.37,1.07.76,2,.09,3.21s-.23,3.51.32,4.64a5.91,5.91,0,0,0-2.25.28c-.27.15-.19,1.44.12,2,.17.29,1.17.1,2,.13,0,.12.16.51.18.54-.31.86-.74,1.48-.63,2s.78.81,1.3,1.3l-.3.4-3-1.15-1.12.78,1.84.69c.09.84.2,1.84.3,2.85,0,.28,0,.57,0,.86a3.22,3.22,0,0,0-.71-.22c-.43,0-.86,0-1.51,0l1.15,2.6,2-1.25.27.43c-1.11.6-2.22,1.2-3.34,1.78-.48.25-1.37.42-1.39.68a5.52,5.52,0,0,0,.66,2c.08,1.95-1.69,2.56-3.18,3.44,0,.59,0,1.18,0,1.76l1.84.67,1.73-.05,0,.39c-.7.17-1.59.13-2,.56s-.46,1.32-.67,2l-.86-1.72c0,3.08-.41,5.93-3.12,7.86l.41.36c-1.26,1.87-1.37,2.76-.61,3.92l-1-1L34,223.4c1.31,3.1,1.31,3.1,2.85,4.41-.55.3-1.52.51-1.68,1-.21.64.22,1.48.4,2.31a3.12,3.12,0,0,0-.56.13c-.89.34-2.5-.55-2.44,1.48,0,.3-.68.62-1.19,1.05,1.07.62,1.25,1.67,1.43,2.85l-1.52.88a13.75,13.75,0,0,0-1.23-2c-.12-.13-1.1.22-1.09.29a6.57,6.57,0,0,0,.47,2.22,21.43,21.43,0,0,0,1.5,1.86,1.28,1.28,0,0,1,.1,1.09c-.18.34-.64.54-1,.79.89,2.26,2.71,3.64,4.46,5.05.25.2.84,0,1.46-.08l-.81-1.51c.32-.59.6-1.13.94-1.77,2.06,1.2,2.75-.94,4-2.09-.85-1.55.49-2.34,1.27-3.46-.22-.31-.39-.83-.72-1-.76-.32-1.27-1-1-1.56s.45-1.47,1.58-1.6c.59-.07,1.07-1.17,1.48-1.92.55-.19,1.16,1.33,1.88.05-.11-1.39-.2-2.73-.31-4.11.71-.21,1.24-.55.62-1.68-.21-.4.15-1.2.42-1.73A23,23,0,0,1,46.84,222c.79.26,3.41-.85,3.67-1.73a1.18,1.18,0,0,0-.11-.93,27.33,27.33,0,0,0-2.16-2.52,4.33,4.33,0,0,0-1.28-.52l1.4-1.77c-.1-.34-.37-.76-.3-1.13a1.67,1.67,0,0,1,.72-.85c.72.42,1.35.23,1.5-.46.08-.36-.54-.87-.92-1.41.23-.13,0-1.57,1.18-.52.08.07.69-.29.86-.56a1.06,1.06,0,0,0,0-1c-.17-.22-.63-.25-1-.26a3.91,3.91,0,0,0-.88.17l-.15-.34,1-1c-.6-.84-.33-1.45.3-2.33s1.94-1.88,1.51-3.52c-.13-.51.54-1.28.95-1.85.64-.92,1.37-1.79,2-2.61-.34-.72-.58-1.34-.9-1.91-.86-1.5.68-2.41.89-3.66a12.3,12.3,0,0,1,1.08-2.58c-.38-.81-.38-.81-2.18-.73.43-1.2.87-2.39,1.33-3.65a4.08,4.08,0,0,1,.89-5.28l-.71-1.33a8.82,8.82,0,0,0,2.18-5l1.06-.53c.37,1,.74,1.89,1.1,2.81,1.38-.39,1.52-1.11.72-2.2l2-.59.07.24-1.46.68.65,1.3-1.44.68,1.15,1.65,1.09-.59-.14.34,1.51.74.43-1.25a6.53,6.53,0,0,1,1,1.59,1.39,1.39,0,0,1-.73,1.14c-1.28.31-1.1.88-.78,1.9.19.59,1.39,1.26.28,2.06q.25.5.48,1l-2.66,1.85a5.83,5.83,0,0,0-1.69.05,2.1,2.1,0,0,0,0,1.24c.84.22,1.67,1.06,2.6,0a19.64,19.64,0,0,1,2.34-1.9c-.1,1.23-1.53,2.82.88,3.15,0,.52.06,1,.09,1.68l-1.37-2c-1.34.84-1.27,1.15.75,3.48-1.81-.71-2.82-.32-2.81,1.51l-2.73.67,2.08,2-1.93,2a6,6,0,0,0,1.91.8c.24,0,.49-.92.76-1.41s.69-1.22,1.25-2.2c.44,1,.73,1.6,1,2.23l-1.69.91c.19,1.53.37,2.91.59,4.71l-2.42-.9,1.63-1.14-.65-1.17a2.53,2.53,0,0,1-.68.3c-.9,0-1.4,1.28-2.52.77-.14-.06-.64.67-1,1.05l-.88-1.14c-1,.44-1.21,1-.47,1.76.27.29.4.7.68,1s.68.6.88.53a2.71,2.71,0,0,0,.93-.89,4.18,4.18,0,0,0,.37-.8c.34.42.95.83,1,1.26,0,.82.18,1.16,1,1.19.46,0,.9.27,1.36.33s1.18.12,1.79.17A12,12,0,0,1,68,203.13c.2-.73.37-1.33.55-2l.31.79a13.39,13.39,0,0,0,1.59-.83c.85-.58.79-1.27,0-1.9s-1.34-1.16-2.15-1.87l2.12-.09-1.51-2.17c1.75.73,3,0,3.34-1.91l-3.16.36,1-2.69,2-.28-.82,1.59,1.07.55c1.46-1.77.21-3.16-.75-4.65l1.34-1.19a7.44,7.44,0,0,0-1.91-.61c-.73,0-2.83-.89-3.07-1.5l1.22.05.07-.52-.62.19c.45-1.06.89-2.07,1.42-3.3l-1.77-1.77c.43-.61,1.44-1.23.13-2.09-.09-.06.08-.52.19-1.2l1,1.76,1.31-.59-.47-1.23.91-.77c-.38-.94-.72-1.81-1.11-2.77l1.67-1.15-1.56-2.24-.81,1.53-.45-.12c0-.14-.08-.23,0-.28.41-.77.17-1.11-.66-1.43-.55-.22-.86-1-1.4-1.35-.79-.51-.52-.89-.24-1.6A26.8,26.8,0,0,0,68,161.52a3.63,3.63,0,0,0-.28-1.51c-.54-2-.26-4.14-.48-6.11-.19-1.68,1-3.51-.33-5.14-.17-.2.47-1.06.82-1.81l-1.13-1.62c.8-1.09,1.35-2,.62-3.42-.29-.55.28-1.51.34-2.29.06-.93-.05-1.86,0-2.79,0-.62.18-1.24.14-1.85a3.15,3.15,0,0,0-.46-1.35,13.36,13.36,0,0,0-1.33-1.51c1.7-.3,3.28-.4,3.72-2.47l-1.83-.52,2.42-1.28c-.23-.72-.46-1.42-.69-2.12l.28.07L70.2,124,69,123.82a5.05,5.05,0,0,0-.44-1.94c-.21-.32-1.11-.19-2-.3l1.64-1.14c-.46-1.39-.63-2.68.6-4,.59-.63.63-1.79.92-2.7,1.13.45,1.31.34,1.33-.89,0-.11.14-.22.22-.33-1.13.28-1.06-.39-.81-1.09a12.78,12.78,0,0,1,.84-1.75,7.78,7.78,0,0,1,.58-.82c-2-1.32-.32-2.75.1-4s1.44-2.2,2.12-3.34a5.38,5.38,0,0,0,.55-1.8c0-1.68,2.83,0,2.41-2.08l1.14-.57a11.8,11.8,0,0,0,.92-2.6c0-.4,0-.82-.07-1.28l.28-.38c.12-3.07-1.29-5.64-2.43-8.46L76,85c-.21-.69-.42-1.39-.64-2.09l.31-.43.52.19c-.12-.36-.22-.72-.32-1.09h-.09a6.16,6.16,0,0,0-.64-2.19,9.2,9.2,0,0,0-2.36-1.48c1.23-.71,2.14-1.2,3-1.76.29-.18.65-.53.66-.82a1.33,1.33,0,0,0-.57-.91,8.21,8.21,0,0,0-1.24-.66c.46-1.07.87-2,1.27-3,.4-.22,1.29-.55,1.26-.7a10.32,10.32,0,0,0-.9-2.37c-.12-.26-.53-.36-.69-.61-.37-.57-.93-1.15-1.43-.58-.31.36,0,1.28.07,1.94,0,.13.21.23.53.54-1.6,0-3,.21-3.93-1.08-.56-.77-1.38-1.49-.61-2.74.43.73.6,2,1.8,1.36.66-.33,2,0,1.78-1.39a2.05,2.05,0,0,0-2.46-1.53,16.42,16.42,0,0,0-1.7-2.33c-.23-.23-.94,0-1,0-.78-.61-1.36-1.1-2-1.5-.06,0-.45.45-.75.76-1.34-1.86-2.74.07-4.28.09l-.51-1.26c-.5.15-1,.45-1.36.35a3.75,3.75,0,0,1-1.22-1s.08-.36.19-.44a.62.62,0,0,1,.47,0c.34,1.27,1.15.27,1.57.19s1-.71,1.72-.35a18.57,18.57,0,0,0,2.08.8c.21-.28.48-.94.92-1.11s1.56-.29,1.87,0c1.53,1.64,2-.38,3.3-.5l0,0,0,0,.4.37c0-.29-.07-.47-.06-.42l2.79.32C72,56.79,70,54.54,69.69,52.93a1.73,1.73,0,0,1,.31-.07A7.47,7.47,0,0,0,68.53,51c-1.27.28-2.55.51-3.83.7a20.11,20.11,0,0,1-2,.13,2.7,2.7,0,0,0,.15-1c0-.19-.54-.49-.63-.43a6.87,6.87,0,0,0-.92.77c-2.59.59-5,.91-7.33,2-.25-1.28-.78-1.74-2-1a3.13,3.13,0,0,1-1.79.15,15.62,15.62,0,0,1-1.9-.39l-.14.41a3.47,3.47,0,0,0-.69-.69c-1.82-1-3.65-2-5.47-3.05a3.75,3.75,0,0,1-.69-.36c-1.42-1.25-2.66-2.43-5-2.15-1.82.22-3.8-.51-5.66-1-.52-.14-.95-.83-1.31-1.34a13.47,13.47,0,0,1-1-1.81l1.08-.75c-.79-1.51-1-1.54-2.09-.41-.66-.38-1.34-.75-2-1.16C24.26,39,23.12,38.25,22,37.47c-.69-.48-1.3-1.06-2-1.56a8.49,8.49,0,0,1-1.66-1.17,8.63,8.63,0,0,1-2.12-4.18,7.75,7.75,0,0,1-.15-3.19c.46-1.69-1.17-1.42-1.68-2.15-.08-.13-.85.25-1.32.33s-1,.12-1.07,0a16.09,16.09,0,0,1-.4-2.07c.62-.39,1.38-1.05,1.27-1.48-.22-.86.18-1.14.7-1.5l1.47-1c-.78-.61-1.7-1-1.77-1.46a4.26,4.26,0,0,1,.55-2.59c.87-1.39.71-2.21-1-2.8a2,2,0,0,0,.12-.19C10.68,13,8.27,13.63,6.3,15.83Zm32.57,201c.47-.78.91-1.52,1.46-2.46a4.53,4.53,0,0,1,.56,1.33C40.94,217.08,39.86,216.8,38.87,216.81Zm2.29-.68c1.24.53,2-2.16,3.38-.48C43.28,214.9,42.47,217.57,41.16,216.13Zm11.55-41-2.84.76-.1-.4c.69-.29,1.94-.2,1.1-1.49l1.69.67Zm13.52,18.55,1.16-2.33c.25.29.71.8,1.1,1.23Zm-9.46-39.16-.25.42c-.65-.42-1.33-.8-2-1.26s-1.29-1.06-1.93-1.6l.13-.32Zm-11.23-9.72,1.58-.73.3.23-1.69,2.31C45.65,145.92,45.6,145.39,45.54,144.83Zm2.87,4.94c-.28-.64-.42-.94-.61-1.37l-.57,1.44c-.47-2.13,1.43-2,2.64-2.64ZM69.29,173c.41,1.23-1.18,1-2.1,1.61,0-1.05,0-2.1-.07-3.21C67.93,171.94,69.07,172.31,69.29,173Zm-7.15-9.44c.25-.54.48-1,.78-1.67l-1.57.18,0-.39a9.49,9.49,0,0,1,1.68-.07,12.28,12.28,0,0,1,1.81.54ZM59.29,147.1c-.95,1.1-.7,1.75,1,2.33.32.11.49.75.66,1.18a10.85,10.85,0,0,0,.38,1.3c.53,1,1.17,1.87,1.69,2.84.08.14-.23.63-.46.75-.44.22-1.37.32-1.36.41a12.78,12.78,0,0,0,.48,2.17.64.64,0,0,0,.16.29,19.28,19.28,0,0,1-2,.52,5,5,0,0,1-1.29-.21c.87-1,1.48-1.7,2.2-2.53-.58-.35-1.43-.6-1.81-1.17s-.13-1.33-.17-2.43c.32-.54,1.37-1.63-.89-1.68-.13,0-.29-.43-.38-.68-.21-.57-.38-1.16-.58-1.8.91-1.09.82-1.46-.31-1.77.41-.76.84-1.57,1.23-2.31Zm-3.15-6.55c.16-1,.29-1.77.44-2.69l1.47,1.36Zm1.92-7.85-2.33,2.21c0-.88-.26-1.65,0-1.79a11.2,11.2,0,0,1,2.24-1Zm1.9-3.91a3.81,3.81,0,0,1,4.34-.14Zm5.28-7.87c-1.06-.64-1.86-1.13-2.59,0-.16.26-.73.26-1.12.38,0-.49-.28-1.1-.08-1.44a21.4,21.4,0,0,1,1.86-2.28Zm0-17.65-.42.06a11.49,11.49,0,0,1-.5-2.68,11.94,11.94,0,0,1,.85-2.73C66.73,99.94,65.34,101.59,65.2,103.27ZM73,92.76c-.58.92-2,1.32-3.15,2l-.5-1.11c2.76.2,3.48-.87,1.93-3.29L73,89.19C73.05,90.59,73.52,92,73,92.76Z"/><path class="cls-1" d="M28.46,69.67l0,0h0Z"/><path class="cls-1" d="M16.16,10.78a.06.06,0,0,0,0,0h.05Z"/><path class="cls-1" d="M22.67,1h0l0,0Z"/></svg>