<svg id="Layer_1" data-name="Layer 1" xmlns="http://www.w3.org/2000/svg" viewBox="0 0 29.47 81.4"><defs><style>.cls-1{fill:#1d1e1e;}</style></defs><path class="cls-1" d="M27.58,54.5c-.1.8-.23,1.61-.29,2.42a8.34,8.34,0,0,1-.06,2A20.54,20.54,0,0,1,26,60.87a6.49,6.49,0,0,0-.87,2.57c0,1.75-.26,2.3-1.92,2.93L22.13,70a3.77,3.77,0,0,1,.59.47c.18.2.45.6.39.7-.74,1-1.52,2-2.32,2.9a1.9,1.9,0,0,1-.74.36l-1.66.61,1.06,1.48L19,77.67l.42.18a12.86,12.86,0,0,0,.49-1.44c.11-.58.12-1.18.19-2l1.36.77a11.24,11.24,0,0,1-.18,2.72c-.12.42-.87.65-1.46,1l1.52,1.22c-.15.8-.62,1.45-1.43,1-1-.56-2-.15-3-.59A11.91,11.91,0,0,0,15.33,80c.23-1.36.05-2.85.71-3.56,1-1.12.74-2.54,1.32-3.47.83-1.35,2.07-2.27,1.57-4.16-.13-.48.63-1.2.95-1.82s1-1.3.33-2.39c-.35-.58.21-1.83.58-2.68a5,5,0,0,0-.16-4.15c-.2-.47.13-1.16.25-2l-.68-.6a5.87,5.87,0,0,1,.18-2c.23-.49.84-.81,1.37-1.28l-1.29-1c.48-1.32.6-1.34,2.05-.37q-.54-2.88-1-5.54l-2.16-.6c-.29.47-1.06.82-1.58-.15a6.74,6.74,0,0,1-.1-2.5c-.95,2.06-1.8,2-3.68-.11l-.79.82-1.33-.76c.31-.74.45-1.63,1.65-1a.54.54,0,0,0,.41,0c.95-.56,1.9-1.14,3.2-1.93-1.77.08-5.13-1.59-5.3-2.55a27.58,27.58,0,0,1-2.3,2.79,3.18,3.18,0,0,1-1.82.61c-.27,0-.79-.47-.83-.77s.35-.74.67-1,.61,0,1,.08c.09-1.08,0-1.9-1.36-2-.69,0-1.13-.46-.81-1.32.1-.28-.19-.69-.35-1.17l-.64,2c-.43-.37-1.06-.67-1.25-1.14s.19-1,.36-1.73l-.6-.43,1.41-2.49A11.41,11.41,0,0,1,4,29.33a3.12,3.12,0,0,1-1.15-.76c-.49-.7-.84-1.5-1.42-2.18-.11-1.24-.42-2.84,1.82-2.88L0,22.66l2.23-2.05c-1.1-1.28-2-2.49-1.85-4.42a33.13,33.13,0,0,0,.53-3.31c-.1-1.8,1-3.38.63-5.16a1.11,1.11,0,0,1,.3-.9C2.76,6,3.43,5.06,3,3.68,3,3.42,3.32,3,3.36,3a5.22,5.22,0,0,1,0-1.75,1.42,1.42,0,0,1,1.19-.1,7.26,7.26,0,0,1,.87,2.16,5.36,5.36,0,0,1-.1,1.61A20.27,20.27,0,0,1,5.8,7.44c0,.73-.25,1.47-.24,2.21A11.57,11.57,0,0,0,6,11.52c.11.5.2,1,.36,1.81.63.42,1.83,1,1,2.21a23,23,0,0,0,2.38,3.11c1.92,1.77,2.27,4.53,4.38,6.28,1.4,1.16,2.06,3.23,3,4.89a5.36,5.36,0,0,0,3.69,2.46c2.37.53,4.74,1.11,6.77,1.59.24,1.78.37,3.11.6,4.42s.6,2.63.84,4c.05.28-.22.61-.32.92s-.3.69-.22,1c.25.86,1.15,1.6.39,2.61,1.2.76.35,1.84,0,2.38-.76,1.24-.67,2.55-.92,3.84a8.27,8.27,0,0,1-.61,1.53ZM12,27.25c-.08-.74-.15-1.48-.25-2.42l-1.42-.93c-.75.76-.81.81-1.54,0-.55-.63-1.46-1.64-1.27-2.09.38-.89.2-1.27-.42-1.54a1.51,1.51,0,0,1-1.07.3c-.25-.07-.43-.4-.64-.62a5.81,5.81,0,0,0-1.32-.87,8,8,0,0,0-.86-.33l-.12.36,3.84,3.48L6,24.13,7.9,26l.9-1.28c.38.36.71.9,1,.9,1.28,0,1,.74.85,1.53,0,.17.21.4.32.61a.73.73,0,0,0,.19.2c1,.49,1,.44.21,1.16-.19.19-.09.85.1,1.18s.62.44,1,.71c-.32-.76-1-1.56.51-1.54.19,0,.54-.59.55-.91C13.64,27.5,12.73,27.45,12,27.25Zm4.21,9.31c0-.64-.11-1.28.13-1.5a1.79,1.79,0,0,1,3,1.11,1.51,1.51,0,0,0,1.11.89c2,0,3,1.42,2.23,3.28-.07.15,0,.37,0,.24.59.29,1.14.39,1.32.71a3.38,3.38,0,0,1,.13,1.36c1.71-.95,1.84-1.7.42-2.93a2.71,2.71,0,0,1-.45-.73,3.14,3.14,0,0,1,.86-.08c.52.09,1,.27,1.56.41l.07-.17-1.43-.81c.07-.84.37-2,.13-2.09a34.54,34.54,0,0,0-4.19-1.8,10.4,10.4,0,0,1-2.81-1,22.86,22.86,0,0,1-2.73-3.13l-.16.39-2.06-.37-.16,2c-.1.34.27.94.13,1.11-.75.9.17,1.25.55,1.59A20.78,20.78,0,0,0,16.19,36.56ZM7.78,33.75a12.56,12.56,0,0,0,1.36,0c.23,0,.61-.21.62-.35a.81.81,0,0,0-.33-.69,1,1,0,0,0-.86.06A5.27,5.27,0,0,0,7.78,33.75Z"/></svg>