<svg id="Layer_1" data-name="Layer 1" xmlns="http://www.w3.org/2000/svg" viewBox="0 0 42.44 47.72"><defs><style>.cls-1{fill:#1d1e1e;}</style></defs><path class="cls-1" d="M26.43,3.89a.05.05,0,0,1,0,0l.11,0-.07,0Z"/><path class="cls-1" d="M38.47,30.32c.13-.08.51.22.81.36l1-.93c-.12-.19-.31-.55-.5-.88a9.55,9.55,0,0,1-.85.77c-.05,0-.48-.32-.45-.4a4.46,4.46,0,0,1,.6-.95l-3.61.52c-.06-.1-.13-.17-.11-.21a2.87,2.87,0,0,0-.33-2.08c-.35-.74,0-1.1.85-.93.39.08.79.13,1.18.19l.21-.28a5.24,5.24,0,0,1-.87-.82,12.84,12.84,0,0,1-.66-1.58l2.74.19V21h0l0,0h0L37.43,21c0-.44,0-.8,0-1.07l-.92-.76c-1.08,1.14-2.39.49-3.62.54a1.92,1.92,0,0,1,1.86-2.24,3,3,0,0,0,1-.49c.33-.2.65-.43,1-.65l.23.21v-1l-1.8.63a.45.45,0,0,1-.06.25c-.12.15-.29.38-.43.38a.74.74,0,0,1-.55-.34,1,1,0,0,1,.13-.64c.19-.37.42-.73.63-1.09-.33-.19-.66-.4-1-.57a2,2,0,0,0-.54-.07V12.89l1,.16a7.43,7.43,0,0,1-.23-1.3c0-.43.29-.89.2-1.28-.31-1.3,0-1.69,1.4-1.62-.12.63.81,1.39-.3,1.93a6.83,6.83,0,0,0,.29.8c.42-.77,1-1.35,1-1.94A5.3,5.3,0,0,0,36,7.77l-1.39.49-.23-.33.67-1.09L35,6.61l-1.21.63V9.15H32.26c-.2-.31-.38-.75-.49-.73a2.58,2.58,0,0,0-.78.45c-.63.4,0,.72.09,1.06A6.55,6.55,0,0,0,31.45,11,5.39,5.39,0,0,1,32,12c.15.48.15,1,.3,1.48.27.82.6,1.62.93,2.5.64.25.89.82.44,1.18a1.57,1.57,0,0,1-2.27-.95c-.09-.58-.17-1.17-.23-1.64l-1.42,2h-1c.08-1.21-.74-1.14-1.54-1.21-.33,0-.84-.28-.89-.52a1.27,1.27,0,0,1,.39-1,3.51,3.51,0,0,1,1.16-.45c-.33-1.41-.33-1.41-1-1.54,0,1.25-.44,1.95-3,1.6l1.09-2.7,1.21-.43c-1-.34-1-.87-.69-1.61a3.28,3.28,0,0,0,.09-.9l-.36,0c0,.79-1.13,1.16-.77,2.13a7.34,7.34,0,0,1-1,.52c.17-1.49-1-1.19-1.56-1.61-.36-.27-.84-.46-1.06-.81-.1-.16.3-.63.49-1l-1-.16a6.84,6.84,0,0,0,.28-1.45c0-1.46,0-1.51,1.39-1.14a3,3,0,0,0,.32.06l.56-2L21.55,3c.05,1.08-.7.93-1.4.8-.29-.06-.55-.27-.84-.33-.13,0-.31.16-.46.24.08.12.15.29.26.34,1.27.53,1.19,1.67,1.12,2.7,0,.4-.53.77-.79,1.11h.78c.09,1.3.09,1.3-1.66,1.43L18,10.44c1.43-1.86,3-.62,4.6-.46a2.69,2.69,0,0,1-.6.88c-.11.11-.31.22-.31.33A3.08,3.08,0,0,1,21,13a2.22,2.22,0,0,1-1.44,1.26l1.33.9c.7-2.77,1.57-3.77,3.14-3.57l-.36.9c-.08.2-.3.44-.24.58.35.89-.14,1.25-.85,1.48s-1.08.47-.8,1.23l1.08.08V17l-1.46-.4-.5.39,2.73,1.44,1.26-1c.09.66.13,1,.15,1.15a10.26,10.26,0,0,1,1.48.19c.07,0,.13.65,0,.72a8.13,8.13,0,0,1-1.31.57l-.48-1a12.31,12.31,0,0,1-.68,1.51A17.61,17.61,0,0,1,22.93,22l-.6-.22c-.62-.24-1.27-.46-1.87-.69-.83-.31-.87-.63-.7-1.31-2,.1-.75-1.51-1.08-2L17.29,17a1.34,1.34,0,0,0,.1.43c.25.39.53.77.8,1.16a6.4,6.4,0,0,1-1.34.76,5.92,5.92,0,0,1-1.53,0l-.41.66a10.83,10.83,0,0,1,2.35,0,2.59,2.59,0,0,1,1.65,1,7.66,7.66,0,0,1,.47,2.72c0,.62-.37,1.73-.2,1.81.93.43.3,1,.43,1.55-1.2,0-1.32-.11-1.36-1.15,0-.18-.29-.36-.57-.68-.27,2.8-.27,2.8-1.53,2.55a4.65,4.65,0,0,0,.14-1.79c-.28-.83-.11-1.16.48-1.21a9.89,9.89,0,0,1,.06-2.19c.06-.29.71-.44,1.35-.79l-1.52-.7C17,22.85,15.6,22.53,15.13,23a7.79,7.79,0,0,1-.49,2c0,.09-.71,0-.72,0-.11-.6-.15-1.21-.22-1.87l-1-.43-1.31,1.5L14,26.46a3.92,3.92,0,0,1,.88-.89.9.9,0,0,1,.77.39c.15.53.14,1.1-.63,1.23-.13,0-.32.18-.33.29-.05.94-.64.76-1.26.66.15-1.06-.52-1.34-1.31-1.54l.33,1.16H11.22v-1l-.2-.12L8.77,29.31l1.23.4c.58-2,2-.49,3-.89v1.24l-.79,0c-.14.71-.27,1.32-.4,1.94l1.55-.82a1.92,1.92,0,0,1-1,2.5c-1.11.53-1.47-.84-2.33-1.12V33L11.4,34.2c1.84.06,1.84.06,1.74,1.28H11.25l-.16,1.29-1.24-.25-1,.48-.27-.28.48-.84L9.6,35l-1.68.58c.1,1.71.1,1.71-.85,1.69.26-1.08-.54-1.16-1.25-1.34,0,.13,0,.33,0,.36,1,.49.6,1.12.17,1.72a1.86,1.86,0,0,1,.42,2.36l.8,1.26H5.81c0-.35,0-.63.07-1.18-.45.34-.74.73-1.07.77-1.11.15-.82,1-.85,1.63,0,.17.63.32.9.55a2.07,2.07,0,0,1,.44.6c2.73.51,5.66.34,8.43.88a1.15,1.15,0,0,1,1.43-.62c-.1.29-.14.62-.23.9a11.05,11.05,0,0,1,1.93.73c0-.24-.06-.49-.1-.74-.09-.71.07-1.23.9-1.21V42.65a11.12,11.12,0,0,1-1.29,1,1.91,1.91,0,0,1-1,.2c-.11,0-.32-.46-.26-.57s.45-.38.66-.58.53-.58.79-.87h0a1.28,1.28,0,0,1-.5.24,11.29,11.29,0,0,1-1.3,0,4.23,4.23,0,0,1,.56-1,2.45,2.45,0,0,1,.85-.38l.39,1.17,0,0,0,0c.47-.19,1.09-.18,1.07-1,0-.12.59-.37.92-.39.94-.06,1.89,0,2.93,0-.05.63-.08,1.18-.11,1.64l1.91-1.58c-.16-.48.41-1.2-.45-1.95-.46-.41-.18-1.67-.24-2.56.84-.32,1.85,0,2.67-.66.11-.08.88.48,1.16.88a3.1,3.1,0,0,1,.26,1.25C29,37,29,37,29.69,38.5c.58-.3,0-1.56,1.11-1.37.23,0,.4.36.74.69.07-.63.13-1.23.18-1.69l-1.95-1c-.37-.2.13-1.24-.92-.83a1.6,1.6,0,0,1-1.93,1.5c1-1.32,0-3.1,1.34-4.29a7.48,7.48,0,0,0,.82-.64,6.77,6.77,0,0,0,1.76-3.43c0-.23.22-.57.39-.6s.42.23.64.36c1.37.77.67,1.8.27,2.79A2.81,2.81,0,0,0,30,32.46l.94.17c.12.66.24,1.29.36,1.93a6.13,6.13,0,0,0,1-.15c.43-.14.91-.07,1.11-.78.11-.39,1-.57,1.49-.85l1,1.84c-.55.27-.92.42-1.27.62a.65.65,0,0,0-.26.35c0,.06.16.26.22.25s.24-.17.37-.24a8,8,0,0,1,.8-.34c.19,0,.42,0,.6-.07.78-.33,1.63-.64.5-1.61-.15-.13,0-.59,0-.89l.93-.3c-.12-.39-.39-.79-.28-1A3.08,3.08,0,0,1,38.47,30.32ZM32.58,10.59a3,3,0,0,0-.11-1.05l.27-.3a7.92,7.92,0,0,1,1.14.83c.07.07-.18.47-.36.9l.24.82C32.22,12,32.19,11.93,32.58,10.59Zm-8.74,5.18V14.66c1.45-.16,1.76,0,1.75,1.11Zm12.24,4.84c.28,0,.55.3.83.47v.36c-.29.12-.62.39-.87.33s-.44-.43-.66-.66C35.61,20.93,35.85,20.6,36.08,20.61Zm-1,.65c.2,1.37,0,1.58-1.27,1.55C33.7,21.63,34,21.24,35.06,21.26Zm-2.33-.76c.06.21.58.28,1.1.51l-.62.79-.82-.69-1.94.13L31,19.76C31.58,20,32.43,19.53,32.73,20.5ZM30.56,24c-.09.35-.47.63-.72.94-.22-.19-.65-.4-.63-.56a6.38,6.38,0,0,1,.58-1.44C30.19,23.44,30.61,23.76,30.56,24ZM27,16c.07-.19.54-.23.83-.34a3.84,3.84,0,0,1,.21,1c0,.23-.22.45-.45.87,1.44-.76,1.88-.46,2.13,1.2l1.62-1.2.27.23v1.15L30.12,19c.71,1.2-.28,2.1-.43,3.16-.5,0-1.86-.9-1.72-1.24s.66-.7,1.12-1.15c-.42-.89-1.36-.05-2.14-.27,0-.26,0-.55-.07-.91l.93-.12c0-.06.09-.16.08-.17-.3-.28-.61-.55-.92-.82l-.3.15A7.94,7.94,0,0,1,27,16ZM26,20.46a5,5,0,0,1,1.25.51c.11.09,0,.72-.18.89s-.8.2-.9.06a3.93,3.93,0,0,1-.41-1.21Zm1,5.08c.05,1.19-.07,1.29-1.35,1.14C25.55,25.64,26.24,25.58,27,25.54Zm-2.78,2.31c.18,0,.58.49.53.63-.3.79-1,.56-1.57.5C23,28.05,23.63,27.87,24.26,27.85Zm-3-3.46a1.15,1.15,0,0,1,.9-.25c.24.08.37.49.69,1a14.45,14.45,0,0,1-1.58,0C21.18,25.08,21.1,24.48,21.22,24.39Zm-.65,4.7c.13,1,.11,1-1.07.92C19.32,29,19.9,29,20.57,29.09Zm-1.73,1.44c.19,0,.58.39.57.59,0,.66-.44.92-1.21.75C18.31,31.31,17.88,30.56,18.84,30.53Zm-2,1.07h1.23c-.18.66-.36,1.3-.55,2h-.94C16.65,32.91,16.73,32.29,16.82,31.6ZM15.45,35a1.57,1.57,0,0,1-1.55-1.67C14.83,33.11,15.53,33.82,15.45,35ZM9.58,37.13c.39.5.76.78.73,1s-.39.57-.61.85c-.26-.26-.63-.48-.75-.8S9.24,37.66,9.58,37.13Zm-2.07,4V39.43c.71-.13,1.22.11,1.14.82C8.62,40.53,8,40.75,7.51,41.15Zm3.33,1.54c-.59-.69-1.39,1.39-1.95-.17a1.52,1.52,0,0,1,.48-1.88c.24-.21.17-.76.25-1.22h1.49c-.22.55-.39,1-.63,1.63a4.9,4.9,0,0,1,.49.42c.16.15.42.39.39.51A2.87,2.87,0,0,1,10.84,42.69Zm.81-7H13l.07.91h-1.4Zm4.27,4.65c-.24-.85-.45-1.6-.73-2.64a5.07,5.07,0,0,0-1,1,2.89,2.89,0,0,0-.28,1.2c0,1-.61,1.07-1.71.81A12.35,12.35,0,0,0,13,39.57a1.13,1.13,0,0,0,.15-.77c-.25-.75-.18-1.32.68-1.56l-.78-1.32,1.33-.06c.06.33.13.65.15.79,1,0,2.28-.37,2.8.1s.53,1.79.65,2.75C18.06,40.12,17.15,40.47,15.92,40.36Zm2.61-4.12a1.23,1.23,0,0,1-.88-1.54c.93-.26,1.31.2,1.36.95C19,35.85,18.6,36.27,18.53,36.24Zm.78,2.69c-.2,0-.68-.43-.65-.51a1.75,1.75,0,0,1,1.72-1.11C20.76,38.48,20.1,38.81,19.31,38.93Zm2.14,1.22h-.92V39h.92Zm.39-4.37a5.68,5.68,0,0,1-1.49.42c-.06,0-.26-.32-.26-.49s.14-.54.28-.58a16.59,16.59,0,0,1,1.91-.39C22.07,35.25,22,35.67,21.84,35.78Zm-.4-3.2a13.89,13.89,0,0,1-.59,1.88c-.09.19-.6.41-.72.33a1.29,1.29,0,0,1-.45-.81,5.82,5.82,0,0,1,0-1.56c0-.3.21-.8.39-.83a3,3,0,0,1,1.09.2l1.25-.63C22.8,32.48,22.18,32.64,21.44,32.58Zm0-2.47c-.13-1.11.26-1.45,1.5-1.39V29.8Zm3,.68,1,.21v1.14a6.34,6.34,0,0,1-1-.14c0-1.11-2.16-.24-1.68-1.57a7.13,7.13,0,0,1,1.41-.89,1.9,1.9,0,0,1,1.2,0c.19.07.24.52.37.84l-1.29.19Zm2.83-2H26.11v-.93C26.89,27.72,27.41,27.8,27.26,28.8ZM27,22.89c1.32-.07,1.76.28,1.7,1.32C27.48,24.32,26.9,23.9,27,22.89Zm3.7,4.23h-2.2c-.13-1,0-1.08,1.09-.88l0-.27c.37-.21.87-.69,1.09-.58C31.8,26,30.18,26.5,30.66,27.12Zm.16-4.49c.25-.2.55-.62.74-.57.63.15,1.41.22,1.62,1.33-.28.16-.7.54-.86.45A10.74,10.74,0,0,1,30.82,22.63Zm2,10.92H31.73v-.93C32.46,32.5,33,32.51,32.82,33.55Zm.83-1.86c-.72.13-1.14-.14-1.15-.81,0-.19.37-.57.53-.55C33.86,30.41,33.77,31,33.65,31.69ZM33.1,27.3,32,27.07l.46-1.16H31.35c-.19-1.08.6-1.85,1.87-1.78.16.73.33,1.48.5,2.22,0,.13,0,.34.11.37,1.25.48.44,1.34.46,2.08C33.07,28.94,33.05,28.17,33.1,27.3Zm1.56,4c-.65.16-.81-.28-.69-1h1.35C35.05,30.74,34.9,31.21,34.66,31.28Z"/></svg>