<svg id="Layer_1" data-name="Layer 1" xmlns="http://www.w3.org/2000/svg" viewBox="0 0 41.6 111.39"><defs><style>.cls-1{fill:#1d1e1e;}</style></defs><path class="cls-1" d="M35,81.35a.09.09,0,0,0,0,.05h0Z"/><path class="cls-1" d="M41.47,95.32l0,.05.11,0-.07,0Z"/><path class="cls-1" d="M36.47,86h0v0Z"/><path class="cls-1" d="M30.45,74.34l-1,.52c.2.63.34,1.15.53,1.64s.31,1.37,1.33,1.37c.31,0,.93.78.87,1.08a11.68,11.68,0,0,0,.08,4.41c0,.17-.06.49-.16.52-.51.17-1.05.25-1.58.37-.15-.94-2.51-.33-1.45-2.21-.77.33-1.3.57-.43,1.38.7.65.6,1.29-.2,1.89a23.75,23.75,0,0,0-1.89,1.85c1.47-.56,2.54-1.35,3.45.25a1.2,1.2,0,0,0,2.16-.36c.22-.64.88-1.13,1.31-1.7a.9.9,0,0,0,.13-.56c-.06-.58-.44-1.46-.19-1.69a15.2,15.2,0,0,1,2.82-1.95,1,1,0,0,1,.87.17c.2.2.36.78.25.88-.93.85-.32,1.35.31,1.94a6.71,6.71,0,0,1,.74,1.34c-1.53-.6-1.35,3-3.28.92a2,2,0,0,1-.34.75c-.45.42-1.13.66-1.42,1.16-.78,1.3-2,.77-3,.78a6,6,0,0,1-2-.69c-.5.52-.87,1.17-1.13,1.13a6.9,6.9,0,0,1-1.82-1c0,1.54,0,3.1.07,4.88-.44.37-1,.88.24,1.55.37.2.36,1.11.51,1.63.94-.45,1.34-3,.4-3.86s-.57-1.33.18-1.6a5.06,5.06,0,0,0,1.63.65c1.69,0,2.26.52,2.11,2.13a3,3,0,0,0,.29,1c-.59.32-1.17.57-1.69.92s-.86.72-1.41,1.18c.59.81,1.15,1.55,1.7,2.3l.14-.08c-.11-.24-.33-.51-.29-.73a7.77,7.77,0,0,1,.5-1.37,10.49,10.49,0,0,1,1.72.74A2,2,0,0,1,31,99.07c-.53.41-.91.61-.91,1.48,0,1.21-1.56,1.68-2.71.94a6.17,6.17,0,0,1-1,.72,2.6,2.6,0,0,0-1.08.59,22.72,22.72,0,0,1,2.47.26c.79.17,1.53.58,2.33.74s2-.42,2.07,1.2l-1.23.76-.9-1.14-5.71.86c-.06-1.18-.12-2.6-.2-4.36A13.77,13.77,0,0,0,26.15,100a5.87,5.87,0,0,0,1-1.52,3.77,3.77,0,0,0-3.85,3.07c-.09.36-.46.64-.75,1l1.5,2-2,.58.63-.07-1.15,1.28,1.3.62c-.19-.47-.33-.79-.46-1.12,1.31-1,1.44-1,2.12.6l-1.13.71c.33.88.66,1.73,1,2.64l-1.29.69a22.8,22.8,0,0,0-2.4-2.64c-1.16-1-.57-2-.27-3.21l-2-.86-.49,1.5,2.18.61c-1.87,2-2.14,2.09-3.25,1.44l-1,1.42c-.93-1-1.19-1.76.1-2.29l-.61-2.34-1.93,1-.8-1.77-2.75,1,0,.86c.4.13.76.26,1.13.37s.54.14.82.19c.45.09,1.07,0,1.33.28s.23.89.25,1L14.54,109c-.63.28-1.28.81-1.9.78s-1.12-.67-1.71-1-1.15-.49-1.43-.61l-1.7,2c-.48-1.09-1.47-1.8-.1-2.59a1.38,1.38,0,0,0-.23-.69,19.06,19.06,0,0,0-2.38.18,4.83,4.83,0,0,1-3-1.59l1.33-.72-.08.33,2.47.81c-.27-1.78.69-2.3,3.07-1.91,0-1.38,0-1.38,2.61-2.12a7.34,7.34,0,0,1-.13-1.92c.06-.35.54-.7.9-.92a6,6,0,0,1,1.33-.48c.45-.13.9-.23,1.24-.31l-1.76-1.22-2.33,1.81c-.32-.47-.55-.82-.79-1.16l-.16.36-1.84-.55L9,95.77c.76.37,1.3.84,1.56.72.77-.37,1.74-.84,2-1.53s.4-1.47,1.31-1.15c.29.1.31,1,.45,1.52l1.58-1,1,1.26-.64-1.69,1.46-.78-.05-.38c-.9.47-1.94,1.35-2.44-.09-.14-.4.42-1,.64-1.53l-.21-2c-1.46-1-3.16-2.11-3.29-4.77l1.8-.36a25.77,25.77,0,0,1,1.68-2.4,4.3,4.3,0,0,1,1.38-.72c.18.51.36,1,.55,1.53-.16,1.11-1.39,1.23-1.91,2.29-1,2-1.36,1.77.5,2.74.5.27,1,.5,1.78.87-.66-2-.66-2,1.17-4.14L17.78,82.3c1.53-.19,1.24-1.52,1.54-2.45L17,79.31l-.36.26-.42-2.18-1.57-.73.11-.51,2.3-.9L17,75l-2,.47-.71-1.11c2.1-.33,1.38-2.51,2.64-3.79-1.19.38-1.81.26-2-.87-.12-.71-.65-.64-1.33.11,1.11,0,1.56.66,1.32,1.51a31.11,31.11,0,0,0-.56,3.06L12.7,75V73.08l-1.9-.75c.3,1.09.52,1.89.83,3a5,5,0,0,1-1.88.28A2.52,2.52,0,0,1,7.87,73c0-.29,1.09-.56,2-1,.33-1-1.24-1.61-1.54-2.76a2.12,2.12,0,0,1,3.07,1l-.85.7c1,.42,1.46.49,1.22-.77-.37-2,.82-3.11,3.08-2.91a5.36,5.36,0,0,0,1.47-.33c.26,1,.52,2.07.8,3.14,2.2-.81,2.79-1.44,2.49-2.33a6.57,6.57,0,0,1-1.06.89c-.08.05-.69-.47-.65-.59.3-.85.7-1.66,1.07-2.48l.46.11L18.51,64l-.4,0,.15,1.51c-1.29,1-2.38.67-2.92-.41.51-1.3.86-2.25,1.25-3.18.1-.23.37-.57.51-.55a6.11,6.11,0,0,1,1.14.37l.33-1.57c-.56-.82-1.26-1.82-1.95-2.81l-.49-.06c1.73,2.32.38,3.89-.56,5.76-.54.64-1.1,1.82-1.6,1.79a3,3,0,0,1-2.11-1.49A1.36,1.36,0,0,1,13,61.31c.56,0,1.15.67,1.74,1l.9-3.24-2,1.51L12.6,59a13.31,13.31,0,0,1-1.27,1.37,8.17,8.17,0,0,1-1.32.75l-.39-1.63-.06.08-.64-1.48,0,.06,1.8-.3c0-.48-1.24-1.69.63-1.84-1-2.17-.84-2.54,1.18-2.78l.78,2.14,1.37-.74c-.29-.76-.56-1.43-.82-2.1,1-.82,2-1.67,3-2.44A24.78,24.78,0,0,1,19,48.74l.18-1.6a19.82,19.82,0,0,0-2.66-.26,8.36,8.36,0,0,0-.41,1.74L15,49.14l.63,1.44c-.46.13-1,.48-1.32.33s-.44-.78-.64-1.21A10.54,10.54,0,0,0,13,48.35a12.8,12.8,0,0,0-1.22-1.29c-.93.76-2,1.65-3.19,2.6.15.27.51.62.47.94a5.79,5.79,0,0,1-.59,1.48,4.45,4.45,0,0,1-1.2-.65,5.47,5.47,0,0,1-1.12-1.58,1.77,1.77,0,0,1,0-1.32c.16-.36.78-.9,1-.82,1.27.57,1.88,0,2.38-1.08.08-.17.35-.27.55-.41l-.68-1.46,1.38-.87L9.15,42.35l3.62-1c-.29-1.71-.55-3.27-.83-4.87l-1.3.69c.4.94,0,1.5-1,1.69l.06,0L9,38.2,7.52,39.56l-1.25-3c-1.15,2.63,1.67,3.24,1.88,5.39l-2.22,0,.85,3.43c-.85.81-1.54.77-2-.43,0,0,0-.1-.07-.12C3,43.56,3.42,42.11,4.43,40.84c.64-.82.13-.76-.36-.9-1-.27-1.85-.58-1.54-2s.82-1.61,1.92-1a7,7,0,0,0,.43-1.16,1.08,1.08,0,0,0-.24-.66c-1.72.26-1-1.25-1.46-1.85,1.52-1.05,2.75-.8,3.6.59.66,1.08.47,1.7-.82,1.85v.43l1.87-.34c0-2.21,1.32-3.07,3.11-2.18a1.54,1.54,0,0,0,1.08,0,21.17,21.17,0,0,0,1.89-1c.93,1.43.81,1.71-.89,2.25.09.22.18.43.25.65a6,6,0,0,1,.12.68c.23-.23.42-.39.59-.57.33-.38.64-1.08,1-1.09A11,11,0,0,1,18,35c.5.12.9.6,1.35.92-.41.35-.81.71-1.23,1-.12.09-.34,0-.64.08l.62,1.16,1.26-.83.83,2.73c.43-2,2,0,2.9-.84-.26-.7-.36-1.53-1.5-1.4-.18,0-.56-.15-.56-.24-.05-1.22-1.15-2.32-.4-3.61L23,29.72c-.64.42-1.05.67-1.44,1s-.92.95-1.21.87-.7-.77-1.12-1.31c-1.5.07-1.5.07-1.67,1.17l1.27-.68.82,1.36-4.37,1.53L14.18,32.3l1.66-2.9c.2-.89.38-1.81.63-2.7,0-.09.7-.16.76-.06a18.29,18.29,0,0,1,.82,1.81l2.15.91.07-.22a15.77,15.77,0,0,1-2.09-2.41c-.72-1.28.69-1.09,1.25-1.46l.49,1.45.23-.28,2.79,2.24c0-1.23-.07-2.62-.11-4l-1.51,1.44-.14-.42-1.76-.42A1.41,1.41,0,0,1,18.81,23c.53-.76,1.19-1.42,1.72-2.18.17-.24.08-.66.11-1l.12-1.11,2-1.94.54.27-.08,1.64,1.16.28,0,.5-.51-1.21a32.57,32.57,0,0,1,3.27-.82c.23,0,.56.58.85.9a16,16,0,0,0,.5,3c.28.8.47,1.33-.47,1.74s-1.09-.39-1.45-.93a1.87,1.87,0,0,0-.89-.76,5.11,5.11,0,0,0-1.33-.11l-1.45,2.28c3.18-.56.83,2.38,2.48,3.06.2-.48.29-1.14.65-1.41a5.09,5.09,0,0,1,1.83-.42c.48-.31,1.14-.7,1.75-1.15a5.23,5.23,0,0,0,1.1-1.05c.1-.13-.15-.72-.21-.72-1.93.19-.79-1.33-1.09-2-.07-.16.28-.61.52-.73s.5.18.77.27.5.15,1.07.3l-1.12-1.34-1.83,1-.85-1c0-.88.09-1.77.05-2.65-.06-1.21-.72-2.47.37-3.61-.89-1.15-.53-2.17,0-3.46S30.1,7,31.05,6.23L30.5,4C32.87,2.55,32.87,2.55,32.4.7,33.09,0,33.69,0,34.07,1l2.09-1c0,1.33,0,2.4,0,3.68l-2,.3,2.18,1-.12.69H34.5l0-.44L31.8,6.63l.24.75L29.5,8.74a26.33,26.33,0,0,1,2.83-.14c1,.06,1.26-.71,1.78-1.23a6.15,6.15,0,0,1,1.38-1c.11-.06.7.39.68.56a7.43,7.43,0,0,1-.49,1.49c-.31.86-.66,1.69-1.7,1.84a7.9,7.9,0,0,1-1.4-.06l1.09,1.74.17-.31,1.88,1-1.53.83-.85.17c-.52.11-1.17.46-1.54.27s-.27-1-.4-1.48l-.34.16c-1.68.88-1.69,1.13-.42,2.55A2.58,2.58,0,0,1,31,16.42,14.34,14.34,0,0,1,31,17.89l.39.11c.25-.23.74-.56.7-.68-.85-2.15.64-3,2.07-3.93l.54,1.35c.62-.64,1.56-.71,1.68-1.8,0-.22,1-.6,1.34-.45s.63.83.93,1.28c-.47.2-.93.42-1.4.61a2.63,2.63,0,0,1-.64,0c1.09.91-1.74,2.47.88,3.12l-.48-1.17,1-.54,2.81,3.48-3.18.09c-1,.22-1.69.64-2.13.43s-.95-1-1.4-1.61l-.33.16L34.89,21l-.14.46c-1.06.7-2,.92-2.19-.83l-.85.56,2.52,2.31C34,25.07,32,24.9,32.13,26.38c.69-.12,1.57-.43,1.69-.25a2.55,2.55,0,0,1,.51,1.9,1.63,1.63,0,0,1-2.65.9,22,22,0,0,1-1.58,2.28c-.51.56-1.16,1-.25,1.69,1.29,1,1.37,1.38.32,2.49l.76,1.1c-.22.76-.37,1.26-.46,1.55l3.09-.24-2.85-1.87L32,35.27a14.89,14.89,0,0,0,2,.43,12.22,12.22,0,0,0,1.8-.19l0,0c.43.55.55,1-.08,1.58-.35.31-.42.94-.62,1.42l.3.4-2.93.66A21.36,21.36,0,0,1,32.69,42c0,.16-.6.35-1,.57.19,1.23.39,2.59.59,3.94a2.94,2.94,0,0,0,.12.59c.18.47.65,1,.53,1.38s-.82.52-1.27.76l-.46.25,2.09,1.22c-.6.65.12,1.08.41,1.25.88.54,1.88.87,2.8,1.33a9.73,9.73,0,0,1,1.22.88c-2.3,1.62-4.17.16-6.08-.3l-.18.35a12.57,12.57,0,0,1,1.46,1.36c.9,1.14,2.15,2.24,2.48,3.56.38,1.53,2.07,2.62,1.39,4.59-.24.68.63,1.73.95,2.63.14.38.36,1,.2,1.17a7.46,7.46,0,0,1-1.81,1.27c-.09,0-.75-.56-.7-.74.42-1.39-.26-2.63-.41-3.94,0-.32.21-.67.3-.93-2.11-.73-2.36.65-2.41,2.23.51.61,2.51.1,1.91,1.72s-1.68,0-2.26.27c-.69.88-1.21,2.13-2.11,2.53s-2.23,0-3.25-.07L26,71.62,27.63,73l-1,1,.16.26c.36-.17.81-.24,1-.51,1.43-1.59,1.71-1.58,2.73.21Zm-4-16.09c.68,1.51.56,1.77-.91,2.28A1.34,1.34,0,0,0,25,61c-.28.4-.51.83-.75,1.25l-.48-.16-.46-2-1.58,1.48c.82,1,1.72,2.16,2.77,3.49-1.57,0-1.42,2.54-3.31,1.87.66.21,1.81.43,1.91.19.57-1.29,1.08-1,1.89-.27.21.18,1,0,1.24-.3a2.22,2.22,0,0,0,.33-1.47c0-.15-.72-.2-1.09-.37s-1-.52-1.63-.86c1.08-.78,1.07-.76,1.87-.32a.8.8,0,0,0,.74,0c.93-.8,1.71-1.67,1.22-3.07a1.43,1.43,0,0,1,.15-.91c.34-.74.74-1.47,1-2l-2.38.74a7.31,7.31,0,0,1-.74-1c-.18-.39-.45-1.09-.3-1.22a5.5,5.5,0,0,1,1.69-.68c-.62-.59-.21-2-1.78-2.32-.36-.07-.78-.76-.82-1.19s.39-.81.7-1.12a3.53,3.53,0,0,1,.91-.52l-1.06-.53-.83.86L22.8,49.08l-1,.37.62,1.37-1.08.74.45,1.24-1.07.81.38.14-.37,1.69-2-.72-2.41,1.56,2.39-.56c.52.55,1,1.09,1.39,1.5A6.09,6.09,0,0,1,21,56c.09-.08.86.37.83.5-.25,1.48,1.36,1.39,1.83,2.57C24.41,57.49,25.43,57.76,26.49,58.25Zm-5,9.77-.54.11c.1.65.48,1.45.23,1.91s-1.14.79-1.76,1.17l1.82,3.39a6.25,6.25,0,0,0,.12-1.29c.1-.47.33-1.24.61-1.29,1.68-.27,1.12-1.1.61-2C22.18,69.38,21.83,68.7,21.47,68ZM18,40.93l-1-1.38-1.31,2.11.56,1.24h-.4l-.15,1.58,2.33.1.16-1.24C16.71,42.82,16.67,42.06,18,40.93Zm9.12-9.37c.11-1.12.08-2.24,1.38-2.75.23-.09.34-.48.5-.73a6.32,6.32,0,0,0-1.84-.33c-.21,0-.31.84-.51,1.27s-.52,1-.61,1c-1.48-.47-1.16.74-1.47,1.52l1.88-.89Zm-3.29,52.3,1.44-.65c-4.11,1.13-4.74,1.67-4.14,3.72a19.19,19.19,0,0,1,1.26-1.54c.44-.44.72-1.67,1.64-.47,0,0,.13,0,.25,0Zm.32-42,2.07-1.7-1.31.21-2,1.83c.71.87,1.51,1.87,2.31,2.87l.17-.06ZM34.77,61.29l.25-.57c-1.54.74-.68-1.35-2-1.09a8.47,8.47,0,0,1-2.61-.36l.18.94c.84-.12,1.67-.48,2-.22a6.55,6.55,0,0,1,1.18,2Zm-5.56,7.32a2.08,2.08,0,0,0,1.68-2.07c0-.39-.28-.82-.44-1.23l-.34.15ZM24.74,38.17l1.32-1.38-.88-.92C25.05,36.66,23.57,36.92,24.74,38.17ZM17.79,95.1c-.24.93-.55,1.58-1.63.64l.5,1.47,2.08-1.66ZM19.9,49.58l2.88-1.2L21,48l.09.34L19.6,49Z"/></svg>