<svg id="Layer_1" data-name="Layer 1" xmlns="http://www.w3.org/2000/svg" viewBox="0 0 104.74 115.45"><defs><style>.cls-1{fill:#1d1e1e;}</style></defs><path class="cls-1" d="M101.89,34.84c.06.48.12.9.15,1.17l1.23-.73c-.7-1.56.1-2,1.47-2.2a22.24,22.24,0,0,0-2.37.58c-.87.14-1.82,1.2-2.64-.42-.49-.94-1.71-1.5-2.84-2.42A7.69,7.69,0,0,1,97,29.9c1.48,0,1.1-1.46,1.52-2-.3-.27-.93-.66-.87-.83.13-.43.58-.76.9-1.13l1.42-1.57-1.37-.7c-.84,2.86-2.83.93-4.26,1.19-.14-.67-.27-1.25-.39-1.82-.26,2.27.52,3,3.55,3.49-.42.68-.76,1.25-1.12,1.81-.18.27-.57.56-.53.78.25,1.46-.61,1.89-1.59,2,.59,1.12,1.2,2.25,1.8,3.39l-.51.38-3-1.49c.1,2.58-2.15.6-2.89,1.66-.09.13-1.3-.15-1.42-.47a3.69,3.69,0,0,1,.09-1.91c.06-.3.36-.56.61-.91-3.77-.17-4.77-.88-4.44-3.24,1.82.93,2.29-1,3.42-1.57a7,7,0,0,1,3.22-.77c.7,0,1.4.72,2.09,1.11l.29-.5c-.82-.81-1.54-1.84-3-1.6s-3.06.6-4.78.95c.08,1.79-1.45,1.45-2.9,1.54.55,1.38-.14,3.2,2,3.49.06.95-1.39,2.86-2.19,2.91-1.09.06-1.17-.68-1.09-1.48A13.61,13.61,0,0,0,81.83,31a1.34,1.34,0,0,0-.58-.91c-.22-.13-.85-.05-.92.1-.56,1.33-1.21,1-2.1.31-.29-.23-.92,0-1.41,0v1.79l.45-.22c.34.59.69,1.18,1.1,1.91-2.66.48-2.66.48-3.22-.68l-3.58,1.63v-8.5H75a2.57,2.57,0,0,0,1.66,3.35c0-.46-.45-.79-.47-1.15a5.86,5.86,0,0,1,.24-2.41A1.88,1.88,0,0,1,78.13,26c.53.7.68.11,1-.07.82-.44,1.61-1.24,2.57-.14.16.19.74,0,.94,0-.5-1-.85-1.86-1.35-2.64s-1.7-1.57-1.7-2.35c0-1.77-1.2-1.73-2.25-2.07-.27-.09-.54-.14-.85-.21-.08,1.61-1,1.47-1.6,1.09l-4.19,2.22c-.16.21-.51,1.1-1,1.21s-1.33-.44-1.73-.94c-.21-.27.18-1,.25-1.35-.31-.67-1.11-1.71-.88-2,.57-.81.51-2.86,2.51-1.83.07.7.15,1.42.26,2.46,1.18-2.14,2.81-1,4.14-1.27.34-1.34,0-1.06,6.39-.23l.61,1.64.2-.19V15.69c-.31.38-.57,1-.79.94-1.16-.06-2.52.06-3.42-.5-1.5-.95-1.83-1.09-2.9.29a2.93,2.93,0,0,1-1.17.9c-.17.06-.81-.47-.78-.64A3,3,0,0,1,73.07,15a22.48,22.48,0,0,1,2.63-1.77l-2-1.66c-.78,1.31-3.55,1-2.84,3.6-2.69.82-1.7-1.43-2.28-2.38,0,.48-.08,1-.17,2l-5.25-2.25a1.68,1.68,0,0,1-1.94,1.71c-.44-.06-.76-1-1.22-1.66l2.28-.67c.2-.78.27-1.75.5-1.79a11.47,11.47,0,0,1,2.59.1c.52-1.46,1.35-1.85,3.85-1.5l-.21,2.05c1.41.54,3.13.74,3.62.06s1-1.26,1.95-.77c.71.37,1.36.84,1.88,1.16l2.82-.87A4.94,4.94,0,0,1,78,9.85c-.57-.4-1.32-.81-1.54-1.4a10.82,10.82,0,0,1-.42-2.87c-.15-1.79-1.41-.66-2.15-.76-.3-.05-.69.54-1.26,1,1.44.12,2.7-.78,3,.81.1.52-.63,1.2-1,1.81L72.41,7c-.26.6-.64,1.62-1.13,2.58-.14.29-.69.64-.91.56a1.34,1.34,0,0,1-.72-.91,8.78,8.78,0,0,1,0-2.05,3.26,3.26,0,0,1,.33-1c.18-.37.43-.72.64-1.08-.17-.09-.47-.31-.51-.27-.36.35-1,.83-.94,1.13.66,2.86-1.78,1.53-2.83,2.54-.09-.9-.13-1.39-.17-1.81-.61-.2-1.5-.28-1.55-.52C64.15,4,62.63,3.62,60.69,3.67c.1-.69.19-1.26.29-2A12.69,12.69,0,0,1,59.52,2a14.15,14.15,0,0,1-1.46.05c.59,1.18.45,2-1.17,2.14,1,.54,1.81,1.5,2.65,0,.09-.15.94,0,1.36.21.25.11.56.67.47.85-.43.87-.4,1.48.55,2,.21.12.24.88.11,1.26a16.66,16.66,0,0,1-1.1,2.23l-2.81-2c-.26-.58-.67-1.48-1-2.17a11.78,11.78,0,0,1-2.27.76c-1.52-2.64-1.12.85-1.84.55L52.66,10l-2.4-1.92A5.54,5.54,0,0,0,50,9.51a5.46,5.46,0,0,0,.44,1.35c.27-.26.5-.7.8-.75a3.3,3.3,0,0,1,1.48.19c.32.1.57.56.86.56,1.73,0,1.67,1.43,1.56,2.38-.06.52-1.22.9-2.13,1.51-.12-1.06-.18-1.54-.22-1.94-1.51-.1-1.32.89-1.27,1.8l3.65.44V16.6a27.6,27.6,0,0,1-3.6.67c-.22,0-.52-1-.79-1.59H49.24c-.06-.61-.11-1.09-.16-1.63H47.64c-.24.86-.44,1.61-.68,2.45l2,.37-.55,2.18c1.57-.32,1.09.74,1,2l.22,0-.68,2.64,1.74-1.31c-.22-.74-.42-1.39-.63-2.1,2.36-.25,2.36-.25,2.62,2.51.93-.17,2,0,1.63-1.61-.07-.3.18-.69.31-1.05h0s0-.05,0-.06l-4-.73V17.8a13.4,13.4,0,0,1,3.32.37c.4.14.46,1.21.66,1.9h.06s0,0,0,0a2.81,2.81,0,0,0,.65-.05c1.92-.51,2.2-.28,2.33,1.81l.7-1.79c1.18,0,2.9-.5,3.93.12,1.51.93,2.79,1.48,4.51,1a4.4,4.4,0,0,1,.75,1.89c0,.34-.66.88-1.11,1a16,16,0,0,0-2,.35c1.71.13,1.89,1.08,1.83,2.37,0,.55.5,1.09.67,1.66a2.78,2.78,0,0,1,.18,1.58,1.37,1.37,0,0,1-1.24.5,1.9,1.9,0,0,1-1-1,10.73,10.73,0,0,1-.5-1.78c-.7.35-1.46,1-2.12,1-.51-.07-.91-1.09-1.49-1.87.29,1.53.54,2.87.79,4.22H58a3.51,3.51,0,0,1,.51,3.9c-.42,1.26-1.11,2.69-2.87,1.16-.2-.17-.79.1-1.11.15l2,2.38H52.43c-.44.72-1,1.5-2,.13-.59-.79-1.42-.39-1.93.84,1.2.31,2.73,2.16,2.65,3.16C51,44.91,49.71,45.31,48,45c-.46,1.16,0,1.5.93,1.38,1.84-.23,2.08.78,1.84,2.34L49,48.77c.06.66.13,1.29.19,1.92l.05,0,0,.06,1.19.13c0,.6.08,1.15.12,1.7,2.54.93.66,3,1.58,4.58H50.35c-.19-.73-.39-1.47-.5-1.87-1.58.1-3,.24-4.41.21-.18,0-.33-.89-.52-1.45l3.46-.58.87-2.72h0v0a18.32,18.32,0,0,1-2.07.37A1.56,1.56,0,0,1,46,50.72a1.27,1.27,0,0,1-.05-1.22c.89-.84.34-1.51-.1-2.23-.89-1.46-.59-2.17,1.27-2.79-1.47-.75-1.14-1.7-.07-2.84-2-.15-3.71,0-5.24-.51-1-.33-1.65-1.62-2.46-2.49l.35-.41,2.86-.13c-.42-1.18.36-2.84-1.51-3.3,0,0,0-.32,0-.49,0-.69-.1-1.38-.14-2-1.79.43-.51,3-2.62,2.79-.43,0-.82-.52-1.06-.69a22.56,22.56,0,0,1-3,1.33c-.2.06-.9-.78-1-1.29a23.76,23.76,0,0,1-.25-3.14c-1,.09-1.88.43-2.41.15a2.73,2.73,0,0,1-1.36-1.85c0-.51.83-1.1,1.33-1.7-.88-.62-2.87.39-2.36-1.88l1.63-.2L30,22.84l-1.63.42-1.69,3c1.39,1.1,1,2.53.51,3.86-.29.87-2.74,1.54-3.29,1-.73-.76-1.36-1.62-1.87-2.24l-3,1.62c-.24,1.42,0,3.16-.8,4.09-1.39,1.71-1.12,3.88-2.17,5.59h0v0a7.85,7.85,0,0,1,1,0c1.55.1,1.55.11,1.9-1.07l4.28-1.06c-.18,1.43-.33,2.67-.5,4l-1.41.21c.14.58.34,1.14.42,1.71a6,6,0,0,1,0,2c0,.18-1.15.4-1.28.22a4.76,4.76,0,0,1-.66-1.73,3.79,3.79,0,0,1,0-.95l-3.73-2.2V40.23h-.05l0,0-3.43-.76.08-.17H9.89l-1.4,2.59C6.08,42,6.08,42,6,42.82l1.77.33c.83-1.47,1.81-1.28,3.14.92,0-.61.06-1.16.09-1.69,2.57-.62,1,1.76,1.86,2.41.18.14,0,1-.25,1.33a1.07,1.07,0,0,1-1.06.13c-1-1-1.84,0-2.78.14.8,1.4.5,4.28-.59,4.85-.48.25-1.26-.05-2-.11,0,0-.32.64-.43.6a14.4,14.4,0,0,1-2.09-1,13.17,13.17,0,0,1,.8,1.9,10,10,0,0,1,.1,1.78c.77-.36,1.54-1,1.82-.81A2.74,2.74,0,0,1,7.5,55.32a1.87,1.87,0,0,1-.81,1.48c-1.83,1-2,1.31-1.64,3.75.81-2.3,2.5-.67,3.33-.74L7.29,56.73c2.2-.11,2.51.32,2.12,2.31l1.44,1c.35-1,.43-2.2,1.08-2.72s2-.57,3.07-.83c.05.82.09,1.33.14,2.06.49-1.23.9-2.24,1.32-3.27-1.74-.1-.91-1.22-.94-1.68a62.64,62.64,0,0,1,6-2.52,57.35,57.35,0,0,1,6.07-1.26c.09-.72.16-1.2.21-1.66h2.3a36.73,36.73,0,0,1-1.94,4.27c-.39.63-1.24.88-1.5-.37-.06-.27-.39-.48-.59-.71l-.51.24c.19.67.41,1.32.57,2,.09.36.27.91.1,1.09-.9.95-1.9,1.81-2.87,2.7l-.45-.29v3.07c-.65-.24-1.48-.41-1.48-.58,0-1.79-1.14-2-2.52-2.14-.36,0-.68-.55-1.12-.94.06.71.12,1.33.17,1.9h2.61c-.05.59-.09,1.07-.13,1.48l-1.61.27c.06,2.28,1.91.74,2.63,1.34v1.76H18.28c-.29-2-1.29-2.92-2.69-2.84-.07,1.33-.15,2.62-.22,3.89-1.61.35-2.68.07-2.76-1.24l-2.68.81a9.82,9.82,0,0,0,1,.54c1.26.49,3.42-.35,3.17,2.07l1.6-.31c0,1.89,0,3.57,0,5.25,0,.29-.57.81-.85.79a11.71,11.71,0,0,1-2.13-.55c.22-.66.45-1.32.69-2l-3.37-1c-.06-.4-.14-.91-.22-1.43L9.3,67.1c-.26,1-.51,2-.72,2.78l3.66.38c-.17,2.41-.12,3.67-3.19,3.23-.08-.38-.18-.8-.27-1.21l-.48-.2-1,1.74,2.19.27c-.34.79-.44,1.69-.91,2-1.88,1.14-2.62-1.19-4-1.6-.15,1-.29,1.84-.4,2.52l2.45,1.16,1.91-.87a4.11,4.11,0,0,1,1.15-.49c.15,0,.58.56.51.71-.15.35-.53.6-.8.89L7,81v.06a3.33,3.33,0,0,1,2.62,3.41c-.12.65-.32,1.28-.5,2l-1.9.18,1.13,1.46c.32-.27.63-.56,1-.8.74-.52,1.5-1,2.27-1.55a1.31,1.31,0,0,1-.67-.28c-.36-.33-.85-.79-.86-1.2A1.89,1.89,0,0,1,10.78,83c.21-.14.8.34,1.24.42s1.08.24,1.4,0c1.07-.7,2.05-1.54,3-2.34.16-.12.23-.45.39-.49,3.5-.73,2.83-3.55,3-5.94h0V74.6l-2,.68,0,.07,0-.06h0c.07,2.56-.32,2.86-2.79,2.12-.66,2.26-.66,2.26-2.15,2.19A4.47,4.47,0,0,1,15,75.28c.19-.11.25-.43.41-.61.33-.36.68-.7,1-1l1,1.22c.12.14.21.3.32.45h0c.24-1.08.47-2.16.72-3.29h1.73c-.17,1-.31,1.78-.46,2.61h0v.07l2.12.59c-.54-1.57-.48-3.72-2.74-4.74-.4-.19-.53-1-.78-1.51a8.92,8.92,0,0,1-.5-3.69c-.06-1.45,1.81-1.44,3-1.56s2.21,0,3.37-.12c-1.31-.3-2.13-.9-1.73-2.36,1.52-.43,1.95-2.93,4.14-2.18.25.88.54,1.85.94,3.23.55-1.24-.23-3,1.56-2.61s.06,1.82.6,2.84l1.47.3v1.71l-3.84-1-.38.88a5.15,5.15,0,0,1,1.28.91c.51.67.53,1.58-.44,1.68s-2.38.64-3.11-.88c-.09-.2-1.11,0-1.68.12a14.68,14.68,0,0,0-2,.67c-.45.17-.88.39-1.32.59.25.43.48.88.77,1.28a11,11,0,0,0,.86,1c0-.34.07-.76.12-1.23H23.5l-1.29,3.19c2.94.36,3.31.8,2.3,2.57l.29.15c.36-2.24,2.9-2.65,3.85-4.52.36-.71,2-.8,3.13-1.07a17.92,17.92,0,0,0,2.47-.32c1.68-.67,2.16-.45,2.34,1.21l1.91.6a15.61,15.61,0,0,1-.76,1.6c-.47.79-1,1.55-1.67,2.52-1.27.13-1.37,0-1.08-1.66-1.35-1.16-2.54-1.14-3.34.18a13.24,13.24,0,0,1,1.45,1.88,11.17,11.17,0,0,1,.71,2,19,19,0,0,0,2.43-1.22,14.73,14.73,0,0,0,2.3-2,25.12,25.12,0,0,0,1.64-2.2l.58.19c-.22-.47-.44-.95-.67-1.42s-.49-1-.74-1.55l1.85-.74c-.05.1.08,0,.08-.18,0-.87.36-1.64,1.29-1a2.38,2.38,0,0,1,.68,1.91,10.11,10.11,0,0,1-.88,2.51l2.81.25h0l-1.66-.79c.35-1.27.79-2.58,1.07-3.93.13-.62-.16-1.32-.07-2s.33-1.39.7-1.51c.95-.31,1.3.39,1.21,1.27-.27,2.65.36,3.26,3.6,3.43a13.31,13.31,0,0,1,1.91.35,7.07,7.07,0,0,1,2.18-.64c.87,0,1.21.84.5,1.39-1.12.87-1.88,2.53-3.93,1.8-.49-.17-1.48,1-2.11,1.85-1.06.61-1.82,0-2.52-.9-.18-.23-.6-.27-.9-.39l0,0,0,0h0c.83,1.09.16,3.08,2.13,3.54.14,0,.1.81.15,1.3-1.35.38-2.24.24-2.09-1.4l-1.46-.27L43,75.91c1,1.36.93,1.78-.49,2.92-.44.35-.54,1.13-.77,1.67-.59.23-1.25.44-1.86.75a2,2,0,0,0-1,2.81.66.66,0,0,1,0,.5c-.3.56-.65,1.11-1,1.66l-1.55-1.51-1.22.13h0l.05,0h-.05c-.08,1.72-1.54,2.79-3.54,2.59-.3-2.06.91-3.15,2.92-2.63a2.56,2.56,0,0,0,.62,0v0L33.5,83.48l-.29.25c-.17-1-.38-2-.47-3a6.78,6.78,0,0,1,1.27-.4c.09.66.16,1.14.23,1.65l2.5.68c-.51-2.55-2.15-3.08-6.3-2,0,.54-.05,1.09-.08,1.6-1.31.67-1.73,0-1.84-1.53l-3.06,4.68c.5,0,.83.1,1,0a18.72,18.72,0,0,0,1.87-1.22c.26-.19.42-.54.7-.69a4.42,4.42,0,0,1,1.58-.62c.34,0,.72.37,1.08.58A11,11,0,0,0,31,84.59c-.19.38-.27.81-.68.82a39.7,39.7,0,0,0-3.36,2.12c-1.46,1.11-2.42-.1-3.45-.68-.34-.19-.33-1-.41-1.62a2.48,2.48,0,0,1,.23-.84L22.16,84l.16.35c-.77.4-1.55.78-2.31,1.2a5.77,5.77,0,0,0-1.17.77c-.55.51-1,1.08-1.55,1.63l-.56-.14,1.12,2,.46-.17c.1-.51.19-1,.36-2,.84.5,1.49,1.17,2.19,1.23a9.22,9.22,0,0,0,2.77-.77v4l.38,0a3.47,3.47,0,0,0,0-.56c-.18-1.31-.18-2,1.7-1.88a7.48,7.48,0,0,1,2.88,1.12A1.25,1.25,0,0,1,29,92a7.59,7.59,0,0,1-1.66,1.22c-.22,1,1.91,2.26,0,3.52l1.38.2c-.14,1.16.77,2.59-1.16,3.21-.26.09-.17,1.26-.25,2.06-1,0-1.85.35-2.4-1.18-.45-1.22-1.7-2.15-2.59-3.22l-.45.51,1.62,1.06L22.24,101l-.11-.15c-.29.72-.59,1.43-1,2.56,0,.56.08,1.66.14,2.76-1.2.37-1.95.29-1.82-.86l-2.91-1c-.3.15-.92.72-1.39.61s-.92-.84-1.64-1.57l-1.27,1.87c-.42-.09-1.66.91-1.6-1l-2.71,3.46c-.67,1.17-2-1.52-2.77.57A3,3,0,0,1,7.37,111a3.71,3.71,0,0,1,2.14,1.92c.78,0,1.56,0,2.35,0-.13-.37-.22-.89-.38-1.34h3.73c-.05.2-.1.42-.14.63,1.11-.69,2.16.49,2.66,0-.13-.14-.22-.27-.2-.35a3,3,0,0,1,.5-1s0-.07,0-.12,0,.08,0,.12a1.25,1.25,0,0,1,.51-.42,13.88,13.88,0,0,1,2.74-.46c.6,2.1,2.28,2.1,3.92,2.39a9.7,9.7,0,0,0,.08-1.31c-.08-1.06.43-1.33,1.42-1.39a26.22,26.22,0,0,0,3.43-.66c-1.22-1.25-3.55,1.69-3.44-1.12a8.6,8.6,0,0,1,1.84-1.41,2.28,2.28,0,0,1,1.76,0c1.08.64,3,.7,3.3-.37.55-2.17,2.14-1.27,3.19-1.55a12.86,12.86,0,0,1,1.2-1.85,1.18,1.18,0,0,1,1.1-.07c1.08.67,2.1,1.44,3.15,2.17h.05l.14-1.28,2.37.21c-.14-.53-.31-1.12-.5-1.8h1.84v0h0c-.54-.85-1.11-1.68-1.6-2.56a1.59,1.59,0,0,1-.13-1.13c.26-.89.65-1.75,1-2.78A24.36,24.36,0,0,0,50.6,92.6a1.46,1.46,0,0,1,2.3.46l.76,1.54c.66-3.43.66-3.43,1.93-3.72.69-1.33,1-2.93,2-3.58,1.13-.77,2.81-.72,4.27-1C61.61,84.49,62,84,64,83.5c.65-.15,1.32-.18,2-.36a8.46,8.46,0,0,0,1.27-.58,5.23,5.23,0,0,1-.67-1A5.91,5.91,0,0,1,66,79.44c0-.26.93-.49,1.44-.72s1.3-.55,1.83-.77l-2-1.69c.31-.31.81-.94.92-.88A15.82,15.82,0,0,1,70,76.77a3,3,0,0,0,1.68.28,9.06,9.06,0,0,0,3.05-.11c.79-.31,1.31-1.3,1.94-2-1.49-1.29.18-2.66-.39-4.37,2.45.79,3.26,2.51,4.31,4.25.26-.7.57-1.94.33-2.06-1.85-.92-.6-2.3-.31-3.16A3.25,3.25,0,0,1,83,67.92c1.07-.12,1.81-.87,2.62-1,1.67-.29,1.26-1.55,1.63-2.64l4.08.91c.1-.88.16-1.48.25-2.29a6.48,6.48,0,0,0,1.95.54,7.31,7.31,0,0,0,2-.69c-1.24-.26-1.86-.73-1.74-2.09a14.68,14.68,0,0,0-.31-3h1.61c.21,1,.39,1.89.57,2.79,0-.17.06-.35.1-.52,1,.06,2.1.15,3.16.16a8.29,8.29,0,0,0,1.4-.2l-.08-.5-1.32-.26V56.94l-2.37-.13c2.2-2.5,2-5.25,2-8-1.21,0-2.35,0-1.87-1.7,2.56.33,1.7-1.71,2-3.29l2.36.93v-5L102.8,39c-1.49-.47-1.62-.73-1.34-2.2a6.13,6.13,0,0,1-1.16-1c-.15-.21,0-.62,0-1Zm-25-15.36c1.25-.17,2.16-.06,1.8,1.56C77.59,21.14,76.35,21.51,76.89,19.48ZM57.75,14.87c0-.25-.06-.52-.08-.79s0-.56,0-.95c-1.22-.39-2.57-.71-2.32-2.16.29-1.73,1.93-1.2,3-1.46a22,22,0,0,1,1.37,3.32C60.24,15,60.13,15.09,57.75,14.87Zm3.35,4.25c-.48-.56-1-.93-1-1.21a1,1,0,0,1,1.89,0C62.07,18.16,61.55,18.55,61.1,19.12Zm2.32.51c-.41-1-.73-2-1.14-2.9-.84-1.84-.7-2.09,1.27-2l1.3,4.91Zm3.23-.91c-.07.19-.71.4-.84.29a2.18,2.18,0,0,1-.54-.72,9.83,9.83,0,0,0,0-1.7c-.28-1.1.35-1.34,1.19-1.23.37,0,1,.45,1,.58A15.84,15.84,0,0,1,66.65,18.72ZM8.3,52.71a1.56,1.56,0,0,1,.95-1.19c1-.17,2,1,1.93,2.42C10.13,53.41,8.48,54.81,8.3,52.71Zm3.11-3a1.2,1.2,0,0,1-.7-.95,2.94,2.94,0,0,1,.86-1.43,4.31,4.31,0,0,1,1.85-1.1c.48-.11,1.45.21,1.56.54a19,19,0,0,1,.47,3.38C13.93,50,12.66,49.92,11.41,49.69Zm3.94-5.64c-.2-.16-.17-.86,0-1.14s.87-.4,1-.26c.83.78,1.58,1.67,2.35,2.52l-.71.76C17.12,45.31,16.18,44.75,15.35,44.05Zm2.76,6.38c.21-1-.56-2.34,1.18-2.33.41,0,1.18.65,1.16,1C20.37,50.43,19.29,50.38,18.11,50.43ZM11,80.36c-.38-.06-.67-.63-1-1,.35-.33.68-.88,1-.92s.77.48,1.5,1C11.75,79.93,11.31,80.42,11,80.36Zm7.35,28.85c-.12.36-1.06.46-2,.84.25-1.55.41-2.52.62-3.75.5.15,1.32.21,1.38.45A4.89,4.89,0,0,1,18.31,109.21ZM35.4,94c-.45-2.13-.16-2.44,2-2.17C37.63,93.77,37.36,94.06,35.4,94Zm1.06-6.63v2.15c-.92.21-1.59.18-1.63-1S35.36,87.09,36.46,87.37ZM32.2,92.45h2.12c.14,1.68.08,1.72-2.12,1.48Zm-2.08,3a2,2,0,0,1,2.61,2,15.44,15.44,0,0,1-2.66,0c-.39-.08-.69-.65-1-1C29.4,96.1,29.72,95.53,30.12,95.48ZM23.48,109c-1.73.16-1.15-1.17-1.25-2.23,1.23-.23,2.22-.16,2.31,1.2C24.57,108.32,23.88,109,23.48,109Zm3.9-4.25c0,.59-.06,1.14-.1,2-1.08-.15-2.09-.3-3.1-.43a4.78,4.78,0,0,1-.77,0c-.52-.18-1-.42-1.51-.64.32-.55.58-1.53,1-1.59a27,27,0,0,1,4-.08l2.08-1.47c.06,1,.09,1.43.12,2Zm9-1.31c-2.45.32-2.48.29-2.69-1.67L32,101.16c-.62.23-1.76.84-1.91.65A12.68,12.68,0,0,1,28.72,99l7.7.51Zm.42-6c-.63-.33-.8-1.54-1.22-2.45,1.84-.29,4.17,1.06,4.31,2.55C38.8,97.54,37.63,97.85,36.84,97.44Zm3.94,4.42-1.51-1.24,1.2-1.09,1.09,1.64Zm1.86-.69c-1.57-.11-.81-1.33-1-2.24,1.3-.22,2,.22,2,1.31A1.37,1.37,0,0,1,42.64,101.17ZM43.9,83.7c-2.23.28-2.32.21-2.11-1.75C43.64,81.72,44,82,43.9,83.7ZM79.2,34.49h2.44c-.65.76-1,1.49-1.4,1.56C79.1,36.24,79.08,35.41,79.2,34.49Zm1,8.93c.41-.13.65-.71,1-1a21.82,21.82,0,0,1,2.91-1.53c.21-.09.94.42.93.61-.07,1,0,2.18-.58,2.79s-1.79.57-2.29-1.15a17.14,17.14,0,0,1-.66,2.75c-.48,1.05-1.38,1-2,.09a5.77,5.77,0,0,0-.69-.71l-1.52-1.51A20.53,20.53,0,0,0,80.15,43.42Zm-3.32,2a10.21,10.21,0,0,1,.89,1.91H75.31a7.89,7.89,0,0,1,.49-1.79A1.12,1.12,0,0,1,76.83,45.4Zm.94,6.38-1.61,1.29-.7-.67,1.24-1.62Zm-4.26,5.86c.23.86.43,1.64.64,2.44-2.55.48-2.48.47-2.72-1.77-.08-.78.28-2.17-1.37-1.78-.24-2.61.85-3.22,5.21-3l.15,1.52-1.78.19C75,56.34,74.28,57.06,73.51,57.64Zm.59-19.73H76c.18,1.45-.22,2.22-1.9,1.85ZM72.37,48c-.28.05-1-.82-1-1.23.11-1.86,1.56-.77,2.51-1.12C74.36,47.25,73.44,47.79,72.37,48Zm1.14-11.43c.15,1.69,0,1.81-1.83,1.39C71.45,36.34,72.4,36.36,73.51,36.54Zm-1.25,5.07V44a13,13,0,0,1-2.13-.5c-.16-.06-.24-.95-.11-1A16.17,16.17,0,0,1,72.26,41.61ZM69.38,31.1,70.87,31c0,.65.07,1.19.11,1.95h-1.6Zm-9.58,2,3.57,1.51c-.23,2.26,1.52,1.83,3,1.83.14.5.26.93.49,1.7L68,34.74l-.85-1H64.6L64,31c1.73.31,3.21.42,4.28,1.71.78.94,2.31,2,2.18,2.77-.22,1.36-1.22,2.59-.73,4.13H67.89c-.13.7.33,2.43-2.07,1.86.09-.91.19-1.82.31-2.93-1,.12-2,.3-3,.33-2.14.07-2.16,0-2-2.28l1.1-.14C61.85,35.15,59.49,35.6,59.8,33.11Zm-5,6.83h2.14c0,.49,0,1,.09,1.54H54.75ZM58,46.39l-2.2,2c-.68-1.69-.26-2.62.85-3C57,45.3,57.54,46,58,46.39ZM54.13,42l.38.3v1.77l-.42.42c-.4-.43-1.1-.85-1.1-1.27S53.72,42.45,54.13,42Zm-2.51,7.37-.67,0c.35-.78.52-1.78,1.11-2.28,1.27-1.08,2.39-.41,2.57,1.28,0,.47.48.89.7,1.34a3,3,0,0,1,.53,1.41c0,.24-.77.57-1.19.57a5.45,5.45,0,0,1-1.49-.31Zm-11-2.53a1.57,1.57,0,0,0,2-1.38l-1.51.2c0-.56-.08-1-.14-1.71a4.85,4.85,0,0,1,1.53.1,8.14,8.14,0,0,1,1.85,1.25A1.84,1.84,0,0,1,45,46.5c0,.28-.49.61-.81.85-.16.11-.57,0-.62.13C42.3,50.06,40,49.09,38,49.12c-.44,0-.89,0-1.4,0,0,.55-.1,1-.17,1.69-1.15-.48-2.74.95-3.28-1-.23-.83.22-1,2.34-1.07C36.35,46.79,38,46.19,40.58,46.88ZM39.37,36.66c-.19,1.1-.36,2.11-.53,3.09-1.37.35-1.75-.3-1.61-1.4S37.42,36.05,39.37,36.66Zm-1.49,7c.15.05,0,1-.05,1.5a20.47,20.47,0,0,1-3.16-.57c-.45-.15-.72-.85-1.07-1.3l.52-.66C35.38,43,36.66,43.25,37.88,43.69Zm-8-8.17c.09.52.4,1.17.21,1.54a6.07,6.07,0,0,1-1.45,1.35l.12.58c-.56-.22-1.48-.32-1.61-.69a2.16,2.16,0,0,1,.28-1.95A7.24,7.24,0,0,1,29.89,35.52ZM26.4,31.07h2.23c-.46.68-.69,1.47-1.1,1.57C26.46,32.91,26.2,32.17,26.4,31.07Zm-5.13-.85a5.33,5.33,0,0,1,1.78.56c.21.16.14,1-.1,1.34s-.91.53-1.68.94ZM23,36.32a9.16,9.16,0,0,0-1.29.74c-.24-.52-.47-1-.7-1.58,3.15-1.16,3.17-1.17,3.23.62h0A6,6,0,0,1,25,34.63a5.66,5.66,0,0,1,1.36-.87c.19.48.62,1,.52,1.43a17.58,17.58,0,0,1-1.39,3.75c-.22.42-1.07.51-1.64.75l-.43-.34c.28-1.08.56-2.17.85-3.25h0l0,0v0A7,7,0,0,0,23,36.32ZM21.11,49.6c.17-1,.34-1.91.5-2.85H23.4C23.67,48.67,22.91,49.69,21.11,49.6Zm3.72-6.72H23.34V41.07C25,40.91,25,40.92,24.83,42.88Zm.52-3.11c1.09.14,2.11.22,3.1.44a1.17,1.17,0,0,1,.17,1,1.88,1.88,0,0,1-1.23.64,9,9,0,0,1-2-.43Zm3,6.23c-.54.19-1.54.27-1.73,0a13.13,13.13,0,0,1-1.13-2.74c1.46-1,4.17,2.11,4.34-1.59l1.91-.2.15-.34a3.86,3.86,0,0,1-1-.69,1.79,1.79,0,0,1-.43-1.15,1,1,0,0,1,.74-.71c.37,0,1.07.24,1.1.45.23,1.71,1.48,1.47,2.71,1.52.08-.51.16-1,.26-1.6l1.53-.09c0,.48.2,1,0,1.2a12.53,12.53,0,0,1-3.47,2.29c-.29.78-.93,1.62-.78,2.3.1.45,1.31.67,2.1,1a2.86,2.86,0,0,1-2.62,2.62c-.53-1.08-1-2.11-1.69-3.44A12.32,12.32,0,0,1,28.33,46Zm4.18,13.17,4.73-.84c-.54-2.26-2.37-2.49-3.83-3.19v0l1.92,1.78c.56,1.23.06,1.7-1.69,1.29a8.38,8.38,0,0,1-1.82-1.08,2.39,2.39,0,0,0-1.3-.46c-2.2.34-2.59,0-2.39-2.62l2,.7a4.68,4.68,0,0,1,.32-1.27c.25-.5.64-1.25,1-1.29,1.08-.12,1,.72.92,1.51s-.31,1.68,1,1.45h0l-.06,0,.06,0c.23-1.87.25-1.87,3.46-.67,1.09-.89,1.43-2.93,3.63-2.2.34,1.16.31,2.2-1.19,2.48l1.28,2.93-2.82.71c.49,1.93-1.43,2.24-2.24,3.26a4.76,4.76,0,0,1-1.69,1.14,1.56,1.56,0,0,1-1.24.11,1.56,1.56,0,0,1-.45-1.1C33.18,61,32.19,60,32.51,59.17ZM41,60.27H38.68c0-.51-.06-1-.1-1.56.52,0,1.06-.22,1.33,0S40.52,59.52,41,60.27Zm2.56,5.5-6.91,1.29c-.09-.37-.19-.79-.28-1.19-1.77-.36-2.51.33-2.2,2.46-.81-.28-1.89-.43-1.92-.71a3.18,3.18,0,0,1,.42-2.43,15.84,15.84,0,0,1,3.65-2.1c.36-.17.89,0,1.34.06l0,0h0c-.16-.28-.45-.61-.38-.8a9.75,9.75,0,0,1,.94-1.62c.46.32,1.2.56,1.33,1,.29.92-.2,1.49-1.25,1.39a3.44,3.44,0,0,0-.64,0h0l5.94,1.55Zm-.53-9.64c1.84-.43,2.32,0,2.26,2C43.62,58.27,43.2,57.87,43.06,56.13ZM47,77l1.66,2c-1.72.55-2.47.27-2.5-.89C46.13,77.81,46.67,77.42,47,77Zm-2.25,8.26c.31-.37.58-1,1-1s.81.39,1.6.83c-.71.56-1.09,1.09-1.45,1.07S45.09,85.6,44.72,85.29Zm4,5.93H45.48c0-.43,0-.91-.07-1.47h3.26Zm-.61-7.31c-.91-3.53-.91-3.53,2-3.4C49.16,81.67,50.31,83.63,48.06,83.91Zm4.28,6.32c-.42-.06-1.14-.8-1.07-1.06a5.32,5.32,0,0,1,1.14-1.57L54,89.33C53.26,89.77,52.76,90.3,52.34,90.23Zm5-6.33c-.58.71-3.41,0-3.77-.64L50,84.39c-.09-1.56,1.36-3.66,2.44-3.91s2.68.71,3.33,2.07l1.93-.09C57.59,83,57.63,83.58,57.37,83.9Zm.1-2.13c-1.44.14-2.19-.71-2-2.5a14.29,14.29,0,0,1,2.49.65c.35.17.5.79.73,1.2C58.27,81.35,57.88,81.73,57.47,81.77Zm5.42,1.57a11,11,0,0,1-2.31-.28,1.85,1.85,0,0,1,0-1.49,1.89,1.89,0,0,1,1.68-.28c.47.22.7,1,1,1.48Zm3.54-7.15c-.23.53-1.14.76-1.64,1l1.12,1.9-4.29-.51A4.21,4.21,0,0,1,64,74.34l.17,0,2.12-.39C66.37,74.69,66.7,75.57,66.43,76.19ZM66.2,73c.08-1-.56-2.07.93-1.87l-2.37-1.09-1.24,1.14c-.57.52-1.28,1.26-1.87.31a2.92,2.92,0,0,1-.23-2.39,5.88,5.88,0,0,1,1.66-1.73,21.82,21.82,0,0,0-1.87-1.18.85.85,0,0,0-.77.27,19.46,19.46,0,0,0-1,1.74c.33.46.74,1,1,1.36l-2.35,1.79L60,73.05l-.52.74c-.49-.3-1-.62-1.47-.9a4.37,4.37,0,0,0-.72-.25,2,2,0,0,0-.21.75c.08.69.23,1.38.38,2.18h-2v-3h-.06c-.7.57-1.56,1.06-.76,2.22.11.16-.09.81-.24.84a6.67,6.67,0,0,1-2.08.22c-.29,0-.54-.53-.71-.71l-2,1.27V74l1.49.07a4.33,4.33,0,0,1,4.09-2.76c.05.4.11.81.17,1.23l.06,0v.06c1.87,0,.85-1.41.82-2a17.94,17.94,0,0,0-.9-3.57L54,66.66V64.91c1.35-.45,1.74.23,1.67,1.37l3.58-1.56c.1-1.39-.28-1.74-1.78-1.4-.86.2-1.74.32-2.71.49l-.24-2c-1.6-.28-3.67.21-4.16-2.17-.84.6-1.67,1.19-.3,2.26.28.22.17.95.21,1.23.76-.11,1.86-.51,2.06-.24a6.77,6.77,0,0,1,1.17,2.82c.05.27-.95,1.09-1.34,1s-.89-.84-1.59-1.6h-2V62.94l-1.49-.41c.09-.58.18-1.21.29-1.94a5.21,5.21,0,0,0-.56.33c-.29.24-.54.68-.83.71s-.86-.39-.85-.58A3,3,0,0,1,45.72,60s.14,0,.15-.06c.69-3.31,3.33-2.14,5.36-2.29,1.6-.11,1.92-.43,1.56-1.94-.49-2.05-.28-2.25,1.77-1.86a9.31,9.31,0,0,0,1.59,0c.12,1.72.24,3.33.37,5l1.22.16,1.11,3,3.29-1.37c.07-1-.13-2,.27-2.4s1.41-.08,2.17-.08l.5-2.31,3.18.9A13.12,13.12,0,0,0,67,58.64c-.42.9-1.39,1.72-.45,2.91a5.3,5.3,0,0,1,.57,1.75l-2.27.47.85,1.53c.68-.37,1.22-.89,1.63-.81a1.71,1.71,0,0,1,.9,1.25c.19,1.55.14,3.13.35,4.67a7.19,7.19,0,0,0,1,2Zm1.1-18.23c-.54.11-1.18-.32-1.75-.88l-3.38.37c-.24,1.23-.45,2.58-.78,3.9a4.26,4.26,0,0,1-.87,1.64,1.08,1.08,0,0,1-1.07-.05,1.41,1.41,0,0,1-.35-1.18,11.55,11.55,0,0,1,1-1.89c-.79,0-1.78.29-2.31-.09s-.44-1.39-.66-2.25l2.79-.46,0-.34-1.51-.12a23,23,0,0,1-1-2.6c-.28-1.12.27-1.6,1.51-1.38.08.62.16,1.27.26,2.07.67-.42,1.24-1,1.81-1s1,.65,1.86,1.23c.78.06,1.78-1.91,3.16-.4.07-.48.15-1,.22-1.44-1.84-.19-3.68-.39-5.52-.49-.93-.05-1.37-.29-1.32-1.27s0-2,0-3l-2-.23V42.76c.88.67,1.41,1.11,2,1.49.29.18.88.43.94.34a8.11,8.11,0,0,0,1.58-2.83l-2.17,1c-1.33-2.26.82-2.34,1.6-2.76,1-.56,2.42.54,3.66-.08.16.57.31,1.14.55,2l1.53,1.21c.08-.39.15-.74.3-1.52.8.4,1.88.59,2.11,1.14C70,44,69,44.38,67.85,44.39l-.12.49,2.8,1.62v1.76c.23,0,.67,0,.9.16a3.74,3.74,0,0,1,1.19,1.39c.21.61.11,1.16-.83,1.47s-2.18.8-2,2.45C69.82,54,68.21,54.62,67.3,54.81Zm3,12.53c-.73-.75-.35-2.68-.28-4.08,0-.27.86-.49,1.29-.73L72,64a6.13,6.13,0,0,1,.83-1c.77-.59,1.59-1.12,2.39-1.67l.65.58c-.55,1.76-3,3-1.14,5.53C72.93,67.49,71,68,70.28,67.34ZM79,69.24c0,.24-.9.67-1,.58-1-.91-2.15,0-3.67-.53.43-.9.66-2.17,1.16-2.28a6.21,6.21,0,0,1,3.22.39C79.05,67.51,79.1,68.62,79,69.24Zm-.23-8.59c-.46-.46-1.31-.93-1.3-1.38,0-1.59,1.31-.82,2.1-1l.46.35Zm5.38-5.84a4.71,4.71,0,0,1-.89,1.7c-.06.08-.82-.12-.84-.26-.28-1.55-1.54-.86-2.9-1.25l.07-.18c-.43.25-.9.71-1.3.66s-.82-.59-1.23-.92c.38-.35.73-.92,1.16-1s.91.37,1.37.59c0,.21,0,.42,0,.62.46-1,.87-2,1.16-2.61L79,49.87c1.41-.09,1.93-.35,2.35.83.35,1,1.68,1.69,2.46,2.61A2.08,2.08,0,0,1,84.19,54.81Zm2-2.48c-2.41.31-2.54.24-2.43-1.49h2.43ZM84.34,48c-.19-2.72,0-3.14,1.72-3.27C86.62,47.09,86.19,47.94,84.34,48ZM97.59,34.48h1.53v1.74C97.62,36.53,97.56,36.47,97.59,34.48Zm-7.13,5.8h1.83v1.55C91.09,42,90.19,42,90.46,40.28Zm-2-1.37c.25-.09.74.51,1.54,1.1-1,.56-1.49,1.12-2,1.14s-.83-.69-1.25-1.08A8.24,8.24,0,0,1,88.41,38.91Zm-.06,14a13,13,0,0,1,.79,1.36c.21.47.58,1.09.42,1.43a1.85,1.85,0,0,1-1.33.82c-.27,0-.63-.56-.92-.9a3.41,3.41,0,0,1-.45-.69C86.15,53.5,86.66,52.85,88.35,52.88Zm1.93,10.48-3.25.5V62.19l3.25-1ZM96.74,52c-1.91,0-.82,3.7-3.64,2.72a5.94,5.94,0,0,1,.19-2.4,28.69,28.69,0,0,1,2.63-3.46l.58.37Zm1.06-6.83-4.37,1,2.2.25c.29,1.56-1.28,3.29-3.32,3.27l1.06-3.35a12.32,12.32,0,0,1-2.15,0,7.21,7.21,0,0,1-1.5-.69c.44-.44.84-1.2,1.32-1.25a36.73,36.73,0,0,1,4.12-.06L97.8,42.9Zm2.7-4.73c.2.1.08.84.11,1.24-1.26.88-2.48-.22-3.81.1-1,.24-2.3-.85-3.49-1.36-.35-1.9,2.86-3.78,6.4-3.47C99.22,38.32,98.88,39.61,100.5,40.42Z"/></svg>