<svg id="Layer_1" data-name="Layer 1" xmlns="http://www.w3.org/2000/svg" viewBox="0 0 33.41 33.95"><defs><style>.cls-1{fill:#1d1e1e;}</style></defs><path class="cls-1" d="M16.2,11.07c0-1.49,1.49-1,2.36-1.41.43-.21.81-.5,1.23-.72.62-.33,1.46-.48,1.85-1C22.4,7,24,8,24.45,6.64c0-.09.24-.15.37-.16,1.28-.1,2.55-.18,3.91-.27.06,1.89-1.61,1.55-2.57,2.27,0,1-.13,1.89-1.68,1.28l-.12.73-5.73,2.13c.08.75-.37,1.18-1.43,1.16-.57,0-1.61.34-1.63.59-.17,2.05-2.22,2.06-3.16,3.09l1.24,1.75H12l-.18-1.12.21.23a14.1,14.1,0,0,1-2,2.89,2.5,2.5,0,0,0-1.05,2.14,1.5,1.5,0,0,1-.74,1.1c-.52.24-1,.05-1-.75,0-.13-.42-.27-.83-.32,1.07,1.59.45,3-.2,4.52l-2.2,1c-.54-1-.93-1.77-1.3-2.51-.5-1,.08-1.54,1.73-1.67a5,5,0,0,1,1.09-4.17c.92-1.28,2.37-1.6,3.2-2.76a3,3,0,0,0,.57-1.07c.26-1.33.65-2.39,2.18-2.84.8-.24,1.37-1.17,2.14-1.63A22.8,22.8,0,0,1,16.2,11.07Z"/></svg>