<svg id="Layer_1" data-name="Layer 1" xmlns="http://www.w3.org/2000/svg" viewBox="0 0 133.35 79.51"><defs><style>.cls-1{fill:#1d1e1e;}</style></defs><path class="cls-1" d="M0,40.8a.08.08,0,0,0,0,0H0Z"/><path class="cls-1" d="M35.49,66.71h0v0Z"/><path class="cls-1" d="M1.66,70.44H1.59v0h0Z"/><path class="cls-1" d="M7.2,56.13a.22.22,0,0,0,0-.08l0-.06v.1Z"/><path class="cls-1" d="M7.22,52.26l0,0v0h0Z"/><path class="cls-1" d="M13.25,56.47a0,0,0,0,0,0,0h0Z"/><path class="cls-1" d="M28.93,50.14l.43-1.46a17.5,17.5,0,0,0,3,.28c.46,0,.89-.59,1.33-.92l2-1.5L35.16,48l2.57-.58-.4,1.34c1.48,1.05,1.62,1,2.18-.35l-1-.55-.45-2.61c.83-.12,1.65-.27,2.47-.36s1.91.19,1.74-1.39c1.8,2,1.8,2,2.56.74l1.38.53a3.46,3.46,0,0,0,.46-1.34A3.28,3.28,0,0,1,49,39.82c.51-.2.81-.94,1.28-1.54l1.1.37c1.24-1.29-.35-1.82-.69-2.78a5.17,5.17,0,0,0,1.28.21,12.77,12.77,0,0,0,1.89-.41c.17,0,.34-.26.49-.25,1.55.13,2.57-1,3.75-1.64a15.12,15.12,0,0,1,1.42-.65l.51.24c.11-1.55.23-3.1.34-4.64l-.44-.1,1.64-1L61.13,29l1.18.54c-.3,1.22-2.52,2.62.07,4L63.94,31c1.88.89,2,.84,2.38-.73-1.62-.88-1.62-.88-2.36.79.06-.62.17-1.24.17-1.86a11.25,11.25,0,0,0-.25-1.57c1.51-1.79,2.18-1.92,3.34-.45-1.8,1.75-1.7,2.16,1,3.13l1.49-3.7,2.1-1.17c1.35.39,2.47-.4,3.15-2.57.83.36,1.65,1.34,2.53,0,.11-.16.8-.08,1.13.07a2.92,2.92,0,0,0,4.12-1.48,7.06,7.06,0,0,1,.42-1.2c.32-.43.54-1.11,1.41-.42a3.13,3.13,0,0,0,4.7-1.72,31.83,31.83,0,0,0,4.83.58c.68,0,1.34-.92,2.2-1.56l3.47.2,2.42-2.78a1.8,1.8,0,0,0,2.35.49A8.2,8.2,0,0,0,106.33,14l2.1,2.45c1.48-1.46,4.09-1.38,4-3.87l1,1.4.58-.17c0-.93-.09-1.85-.13-2.71,1.47-.75,2.81-.55,3.87,1.2.35-1,1-1.44,0-2-.5-.28-.26-2,.17-2.42l1.15,1.45C119.69,7.4,121,7.9,121.85,8c.26.52.37,1.15.68,1.26s.8-.29,1.47-.59l-1.73-1.25c1.09-.12,1.87,1.64,2.46.24l1,1.77.52-.12c.16-.88.31-1.75.47-2.69l1.33.31-.27.16,1.11,1.71.87-1.88c-2.45-.63-.8-1.94-.6-2.87l2.24,1.53c-1.51.83-.5,1.8,0,2.56l-1.74.76.12.67,1.7.08-1.13.08.91,1.07c-2,0,.43,1.86-.5,2.58l-.5-.14c-1.08.83-2,1.51-3,2.27,1.17.88,2,1.1,2.63-.11l2,.65c.13.52.29,1.17.51,2.09l-1.77-.82c-1.7,1.51.8,1.93.75,3-1.29,0-2,.64-2.26,2.22-.22,1.25-.17,1.32,1.39,1.89.14-.76.27-1.48.4-2.21l.08.5,1.36-.41c-.19,1.32-.48,3.3-.7,4.86A14.22,14.22,0,0,0,129,28.51c-.64.53-1,1.39-2.06.9-.09,0-.28.09-.38.17-.85.67-1.34,3.39-1,4.58l-1.77-2.06-.94,2-1.55-1.05c-1.54,1.44-3,2.78-5.34,1.75a1,1,0,0,0-1,.29,3.74,3.74,0,0,0-.28,1.26C113.4,36,113.4,36,113,37.64c-1,.1-2.44.66-3,.2-1.38-1-2,.15-2.9.54,0-2.71-2.21,0-2.68-1.15l-2.11,4.57a3,3,0,0,0-.19-1,13,13,0,0,0-1-1.31,9.47,9.47,0,0,0-1,1.06,4.26,4.26,0,0,0-.36,1A7.23,7.23,0,0,1,98.31,41a17.69,17.69,0,0,1-1.58-1.51l-.68,1.48,1.34.79,0,.39a14.27,14.27,0,0,1-2-.14c-1.67-.35-3.2-.95-4.85.54-.56.5-2.23,1.95-3.46.17-.09-.14-.45-.28-.5-.23-1.48,1.47-3.93-.56-5.33,1.48-.26.37-1.29.21-2.19.32-.12-.73-.23-1.73-.48-2.68-.06-.25-.72-.59-.84-.51a1.77,1.77,0,0,0-.76,1A27.23,27.23,0,0,0,76.86,45c-1.45-.27-2.7-.28-2.86-1.72.68-.3,1.41-.4,1.54-.75s-.25-1-.52-1.78l-.91,1.45c-.51,0-1,0-1.42,0s-.86.16-1.29.24l-.25-1.39a1.74,1.74,0,0,0-2.33.53,14.2,14.2,0,0,0,1.69,1.6c0,1-.15,2.22-2,2.37-.26,0-.43,1-.65,1.61-.1-.1-.65-.47-.59-.64.35-1.1-.22-1.32-1-2-1.78-1.41-2.11-1.51-3,.76.53.17.95,1.12,1.56,0,.07-.13.38-.13.58-.19.05.21.21.46.14.6-.45,1-1,2-1.37,2.85-.5-.67-.75-1.24-1.18-1.5a3.73,3.73,0,0,0-1.48-.22c0-.45.33-1.26,0-1.71s-1.14-.42-1.88-.64L60.32,43l2.42,2,2.49-3.3L64,41l-.94,1.52L60.4,40.88c.45-.5.86-1,1.32-1.46.25-.25.62-.66.84-.6,1.17.27,1.82-.43,2.48-1.16a2.23,2.23,0,0,0-.25.66,1.93,1.93,0,0,0,.14,1.12,1,1,0,0,0,1,.15,1.63,1.63,0,0,0,.56-1.21c-.08-.35-.64-.59-1-.89a6.82,6.82,0,0,0,1.36-1,5.49,5.49,0,0,0,.67-1.4c-1.38-.83-2.07-.68-2.66.53-.43.87-1.68.62-2.58-.51s-1.68-.88-2.18.32l1.57,1.74c-.84-.12-2.1.68-2.14-1,0-.13-.41-.38-.58-.34-.33.06-.78.22-.9.47a6.61,6.61,0,0,0-.49,1.87,4.75,4.75,0,0,0,1,.31c.52.13,1,.23,1.57.34l0,.45c-.51.16-1.22.19-1.5.55s-.08,1-.09,1.51c-1.44-.38-.83.85-.84,1.63-1.71.14-1.93.61-1.93,3.93C54.25,47.75,52,47,50.76,49l.32-1.34-.69-.32a9.27,9.27,0,0,0-1.17-1.53c-.09-.08-.91.37-.9.56a6.23,6.23,0,0,0,.37,1.53,5.93,5.93,0,0,0-1,1.19c-.39.85-.36,1.69,1,2.18-1.18.2-2.37-1.5-2.9.4a2.94,2.94,0,0,0-3.4,1c-.85,0-1.8-.3-2.06,0a1.25,1.25,0,0,0,.44,2c1,.58.52,1.34.1,2l-.23-.3a6,6,0,0,0-1.6,1,8.23,8.23,0,0,0-.94,1.93l-.43-.19L38,58c-1.47-.92-1.49-.91-2.32,1.23l1.34.61-.24.18,1.56,1.82,1-1.36.12.28c.66-.16,1.65-.11,1.94-.53a24.51,24.51,0,0,0,1.75-3.64,1,1,0,0,1,.14.57c-.13.65-.45,1.27-.53,1.92A3.81,3.81,0,0,0,43,60.83c-.44.93-.33,2.46-2.08,2.48.15-.93.25-1.85-1.07-1.88-1.2,2-2.1,2.39-4.14,1.18a19.41,19.41,0,0,0-1.92-.9c-.16.08-.3.1-.31.16a7.65,7.65,0,0,1-2.56,4.82c-.16.12,0,.56-.14.79a4,4,0,0,1-.59.72c-.17-.32-.56-.74-.47-.94a10.85,10.85,0,0,1,1-1.46c.2-.29.53-.66.48-.94a1.11,1.11,0,0,0-.75-.74c-.26-.05-.66.25-.88.51-.73.86-1.38,1.69-2.73,1.7S23.76,67.92,23.07,69c-.4-.56-.75-1.41-1.38-1.79-.27-.16-1.34.56-1.65,1.1-.16.29.51,1.06.89,1.75l-.38.43c-.9.18-1.65.12-2,.46s-.31,1.08-.46,1.78l-.5-.06c-.17-1-.34-2-.54-3.18l-1.24-.57.34,1.93-2.3,1.7-.72.49a2.88,2.88,0,0,0-.17-.73c-.2-.38-.45-.73-.81-1.28L10.48,73.3l2.11,1.12-.24.45c-1.08-.66-2.16-1.31-3.22-2-.46-.28-1.06-1-1.3-.86-.5.24-.81.89-1.36,1.57-1.74,1.13-3.25-.33-4.88-1.15.41-2.09.51-2.17,2.15-1.91l0,0c-.12.36-.42.79-.31,1.07.15.44.72,1.14.87,1.09a13.26,13.26,0,0,0,2.37-1.28c.35-.23.57-.64.9-.9,1.2-1,1.17-1.83-.14-2.67-.09-.06-.14-.19-.22-.29.62.06,1.27.3,1.72.1.27-.12.21-1,.35-1.71.49.5,1,1,1.51,1.56.64.76,1.21,1.15,1.85,0a1,1,0,0,1,.58-.5c1.17-.18,2-.62,1.7-1.62a20.94,20.94,0,0,0,3.25.2c.23,0,.38-1,.6-1.7.76.26,1.3-.16,1.41-1.18l1.43,1.21L21,65.34c1,.76,1.62.72,2.06-.44.3-.82.75-1.39,1.84-.94.31.13,1-.38,1.34-.72a1.33,1.33,0,0,0,.27-1c0-.69-.17-1.37-.26-2.06l.49-.24c1.23.71,2.44,1.47,3.72,2.1a4.27,4.27,0,0,0,1.53.07l-.36-1.43c0-.13,0-.26-.09-.59,1.57.29,3,.33,3.32-1.89l-3.23,0-1,.81.45-1.33-1-.48a5.19,5.19,0,0,1-1.19.95c-1.71.64-3.78.58-4.7,2.71-.36-.25-.65-.41-.9-.61-1.33-1.08-2.18-.76-2.53.89a9.69,9.69,0,0,1-.6,1.6l-.51-.58,1.12-1.94a6,6,0,0,0-1.71-.74c-.37,0-1.14.54-1.1.66.31,1-.37,1.68-.84,2.43A5.5,5.5,0,0,0,16.68,64l-.42-.14,1-2.57c-1.23-.65-1-1.59-.3-2.55,1.16-1.62,1.17-1.61-.52-2.45l0,0,1-1.3-1-.78.18-.24a12.62,12.62,0,0,1,1.06.84c.37.35.83,1.12,1,1.06a6.06,6.06,0,0,0,2-1.29,5.2,5.2,0,0,0,.76-1.55c.74.11,1.38.24,2,.31a1.41,1.41,0,0,0,1.6-1.11c.22-.63.45-1.37,1.41-1,.14-.47.31-.92.41-1.4a2.53,2.53,0,0,0,0-.72,5.06,5.06,0,0,1,.73.38c.32.23.6.52.9.78a4.39,4.39,0,0,0-.87.58c-.25.27-.57.66-.54,1s.66.71.77.64c.76-.45,1.45-1,2.33-1.66Zm85.93-23c1.75-.78.68-2.09.21-3.38.71.48,1.17,1,1.54,1s.76-.68,1.09-1c-.81-.85-1.35-1.83-2.13-2.1s-1.8.17-2.9.33l-.3.92,1.36.75-1.85,2.63Zm2.07,4.11c.15-.42.55-1,.4-1.22a2,2,0,0,0-1.37-.82c-.39,0-.76.64-1.26,1.11l1.33.76-.68.76v-.39l-2.16-.11c0,.4-.19,1,0,1.16.73.61,1.58,1,2.21-.12l1.77.66C117.06,32.22,117,31.65,116.93,31.22Zm-1.69-3.87-1.94.24L112.23,27c-.51.41-1,1-1.23.95-1.21-.34-.89.59-1.15,1l.16.51,4.64-.88ZM56.78,40.77c-.77.23-1.47.23-1.64.53C54.47,42.47,54,43.74,53.4,45,54.94,45.74,55,45.66,56.78,40.77ZM14.5,71c.78-2.27.64-2.63-1-3.07L12.27,70.5ZM35.43,51.83V48.69l-1-.39-1.48,2.38ZM72.58,31.09a9.46,9.46,0,0,0-1.2-2c-.16-.14-1.06.18-1.26.51a1.25,1.25,0,0,0,.64,2C71.12,31.71,71.66,31.35,72.58,31.09ZM67.9,32.32c1.65,1.33,2.63,1.28,3.07-.16C68.59,30.65,68.59,30.65,67.9,32.32Zm3.63,2.14a15.38,15.38,0,0,0-2.16-.53,1.08,1.08,0,0,0-.85.54,1.09,1.09,0,0,0,.21,1A1.84,1.84,0,0,0,71.53,34.46Zm18.78,7c0-.29-.06-.72-.09-1.16-.4.1-.8.19-1.2.3-.16,0-.36.2-.47.15-1.2-.52-1.38.29-1.76,1.63Zm-15-8.39c0-.38.13-.94-.09-1.19s-.8-.26-1.23-.34a1.19,1.19,0,0,0-.65,0,10.34,10.34,0,0,0-1.14.6,4.54,4.54,0,0,0,1.15.79A10.18,10.18,0,0,0,75.3,33.06ZM38.82,55.66l-2.72-.78L35.58,56l2.53,1.16Zm81.61-25.22.28.71A12.55,12.55,0,0,0,123,30.6c.22-.1.32-.89.2-1.26a1.16,1.16,0,0,0-1.08-.33A12.12,12.12,0,0,0,120.43,30.44ZM44.25,49.29c-1.57-.78-1.68-.7-2.41,1.57C43.05,51.5,43.53,51.19,44.25,49.29Zm7.09-7-.73-1.65c-.43.22-1.06.34-1.23.69s.13.92.22,1.4ZM45.15,49.6c.8.35,1.5,1,1.94-.11.14-.35-.11-1.22-.37-1.31C45.47,47.75,45.65,49,45.15,49.6ZM68.78,36.48,67.55,36c-1.11,1.93-1.1,2,.33,2.43Zm26.37-7.93c-1.48-.83-1.59-.79-2,.78L94.5,30ZM22.9,55.68a8.05,8.05,0,0,0,1.79,0c.16,0,.39-.7.28-.84a7,7,0,0,0-1.21-1Zm94.47-21.59a9,9,0,0,0,1.76,0,1,1,0,0,0,.31-.84,7.31,7.31,0,0,0-1.21-1.08ZM51.59,41.46c-.62.77-.58,1.31.34,1.69s1.17-.15,1.33-.92Zm.78,2.69c-.62.45-1.15.65-1.21.94s.29.74.46,1.11c.37-.17.92-.26,1.07-.55S52.55,44.9,52.37,44.15ZM37.29,62.93c1.2-1.4.06-1.52-.92-1.86l-.46,1.22ZM27.39,62l-.85,1.84a5.52,5.52,0,0,0,1.59-.3c.24-.15.29-.63.43-1ZM37.81,49.85c-.94,1.21-.14,1.54.83,1.84l.56-1.21ZM72.75,38.24c.81-1.2.13-1.58-.87-1.85l-.55,1.2ZM71.57,27.83l1.23.49c.79-1.46.78-1.48-.57-1.91Zm26,5.19c.73-1.54.71-1.61-.67-1.92-.19.45-.37.91-.56,1.35ZM114.5,17.75l.84-1.84a5.51,5.51,0,0,0-1.58.3c-.25.14-.29.63-.43,1ZM90.63,21c-.79-.53-1.46-.6-1.63.33-.06.35.46.81.83,1.4Zm33.06,9.94,1.84.85c-.22-.81-.2-1.5-.51-1.7C124.22,29.52,123.86,30.1,123.69,30.92Zm-13.54-5.46-.56,1.21,1.19.54.56-1.21Z"/></svg>