<svg id="Layer_1" data-name="Layer 1" xmlns="http://www.w3.org/2000/svg" viewBox="0 0 106.68 42.06"><defs><style>.cls-1{fill:#1d1e1e;}</style></defs><path class="cls-1" d="M25.47,9a2.5,2.5,0,0,0,.39.11,3.53,3.53,0,0,1,2.29.79c-.24-.44-.47-.85-.71-1.3l.82-.18c-.4.49-.15.76.14,1l.4.28-.49.18-.12,0a5.22,5.22,0,0,1,1.33,1.9,2.09,2.09,0,0,0,1.74.62c.19,0,.41.3.55.51a4.29,4.29,0,0,1,.35.77l1.5-.48.22,1.17,1.47-.25L37.2,15.3c-.35.12-.71.15-.73.26a3.16,3.16,0,0,0,.08.93,1.64,1.64,0,0,0,.48-.16c.38-.29.61-.3.93.17a1.16,1.16,0,0,0,2,.14l.31-.24c.59.79,1.18,1.59,2.17,1.55l-.05.77.25.12.74-.77a3.19,3.19,0,0,1,.44.54c.19.34.25.81.85.57.09,0,.29.22.39.31l.84,0,0,.19-.7.41a7.56,7.56,0,0,0,1.08.9c.09.06.39-.24.6-.35a1.43,1.43,0,0,1,.68-.24.66.66,0,0,1,.39.46c.22,1.31.35,1.39,1.62.87l.26-.1c.56.77.56.77,1,.67.47,1,1.31.69,2.23.59-.63.78-.16,1.31.27,1.79.1.12.49,0,.82,0l-.33-.92a6.5,6.5,0,0,1,.47.48c.15.18.28.37.42.56.25-.26.52-.5.75-.77a3,3,0,0,0,.27-.64l.48.77,1.17-.67,0,1.23,1.17-.44.08.16-.53.37a1.18,1.18,0,0,0,1.64.45,3.43,3.43,0,0,0-.13-.38,3,3,0,0,0-.19-.35l1-.08a3.16,3.16,0,0,1,.25,3c.89-.12,1-.76,1.11-1.22.15-.79.23-.94.92-.51.47.3.58.15.71-.27,0-.15.22-.25.28-.31.42.38.8.69,1.15,1s.68.68,1.09,1.09l.66-.28-1-1.38a7.13,7.13,0,0,1,1.21-.32,1.53,1.53,0,0,1,.83.28,5.33,5.33,0,0,1,.73.65l-.54.23-.22-.6-.86.37,1.13,1a.78.78,0,0,1,1,.33c.3.43.7.18.86-.21s.35-.43.66-.29c.33-.06.6-.07.63.41s.19.54.64.72,1.22.39,1.48,1.07a.42.42,0,0,0,.75-.33c-.22-.89-.24-.89.6-1.07l.27,1,.74-.43a3.91,3.91,0,0,1,.43.54,7.79,7.79,0,0,1,.36.82l.91-.61c.08.48,1.49-.5,1,.8h-.77l-.12.25c.28.22.55.57.84.6s.51-.36.64-.46c.34.13.71.42.95.34s.45-.51.69-.82l1.52,1.69,1.14-1.05.18,0c-.18.57-.5,1.2.63,1.19-.23.2-.35.26-.41.36s-.22.33-.18.46.23.26.38.35.41.16.75.3l.48-.21c-.06-.68,0-.73,1-1l.37.68a1.62,1.62,0,0,1,1.86.44c.69.67,1.37.41,2.09.24A3.7,3.7,0,0,0,91,33c0,.35.09.66,0,.81-.26.36-.21.7.09.83s.62-.15.78-.36c.35-.49.52-.52,1,0l-.7.4c0,.47.26.68.74.42,1.12-.6,1.12-.61,1.86.17a7.32,7.32,0,0,1,1.07-.14c.67,0,1,.68,1.07,1.09s.05.64.31.94c.46.52.63.53,1-.14l2.23,1.53.25-.13c.23-.14.6-.48.67-.42a2.9,2.9,0,0,1,1,1.06c.21.59.54.86,1,.58.15-.08.44-.13.54,0s.28.46.21.58c-.21.33-.31.69.07.82a2.12,2.12,0,0,0,1.06-.14c.08,0,.14-.14.21-.23l-.53-1.24c.39-.31.44-1.74,0-1.93-.67-.31-.7-.87-.78-1.45-.07-.41-.14-.83-.76-.63-.06,0-.26-.23-.32-.38a1.27,1.27,0,0,1,0-.51c.15-1-.67-1.54-1.2-2.2l-.24-.29c-.85.1-.61.77-.59,1.22-.23-.23-.47-.68-.69-.67-.77,0-.16.72-.35,1a3.55,3.55,0,0,1-.7-.5c-.11-.11-.11-.35-.12-.54s.07-.39,0-.46A.59.59,0,0,0,98.7,32a5.89,5.89,0,0,0-.85.35l.25-1.11-.87.23-.33-.92a2.63,2.63,0,0,0-.37-.87c-.1-.11-.46,0-.83.06l.57,1.05c-.79-.17-.56-.76-.72-1.11l.08-.11a7.47,7.47,0,0,0,.73-.76c0-.05-.25-.42-.27-.41-.29.14-.55.34-.83.51a3.61,3.61,0,0,1-.35.15c0-.35-.07-.66-.14-1,0,0-.39-.06-.43,0a1.82,1.82,0,0,0-.14.61l-.39.05-.94-.54.5-.22-.25-.57-1.05.19c-.17-.22-.32-.43-.48-.65l-.89.73L89.9,27l-.8.83c-.45-.1.06-.84-.65-1.14-.89-.37-.74.36-1.12.63-.58-.68-1.11-1.35-1.7-2a.69.69,0,0,0-.65-.13,15,15,0,0,0-1.24,1.19,9.83,9.83,0,0,0,.29-1.2c.07-.51-.08-.85-.69-.62-.28-.42-.65-.73-.52-1.35.06-.32-.24-.78-.82-.53a2.1,2.1,0,0,1-.75.16.59.59,0,0,1-.45-.2c0-.06,0-.33.14-.4a.6.6,0,0,1,.5-.09c.63.31.6.32.84-.36a.6.6,0,0,1,.55-.13,10.09,10.09,0,0,1,.88,1l-.66.35c.1.56.56,1,1,.75s.63-.61,1-1l-.8-.86,2.17-.5.44,1h0l.74-.6.34.79-.55.69-.53-.88,0,0v0c-.21,0-.42,0-.63,0s-.51.09-.82.14l.28.65.67-.15.47,1.09.73-.31a1.14,1.14,0,0,0,1.73.34l-.08-.43,1-.8c-.66-1.51-2-2-3.49-2.28l-1,.27-.08-.17.17-.28L85,20.29a.88.88,0,0,0,0,.15c-.83.63-.9.63-1.4,0h0l0,0c-.78-.47-.71.34-.88.76l-.79-.9a.93.93,0,0,1,1.67.14h0v0c.16-.09.39-.15.45-.28s.11-.66,0-.69a6.23,6.23,0,0,0-1.29-.31c-.2,0-.42,0-.62,0-.77,0-1,.29-.83,1a.58.58,0,0,1,0,.18c-.2-.23-.36-.53-.59-.61s-.4.28-.7.52c0-.35,0-.71,0-1.07s-.07-.82-.68-.62a.5.5,0,0,1-.38,0c-.49-.32-.94-.43-1.16,0a10.06,10.06,0,0,0-1.12-1.14c-.09-.07-.48.25-.79.42-.19-.33-.52-.36-.89,0v.36l-1,.34a3.14,3.14,0,0,0,.38.84.86.86,0,0,0,.62.12c.24-.49.69-.5,1.11-.62a2.59,2.59,0,0,0,.64-.37l.11.19-1.23.6c.24.65-.16.91-.72,1-1,.21-1,.21-.63,1.05h0l0,0,1.7-.7,0,0,0,0a2.6,2.6,0,0,1,.36-.77.68.68,0,0,1,.64-.1c.15.09.19.41.21.63a3.78,3.78,0,0,1-.09.75c.78-.28.93-.69.82-1.81l1.32.06c-.15.63-1.22.77-.47,1.54l.58-.17.26.6c-.92-.14-1.79-.28-2.4.63-.14-.37-.26-.69-.37-1-.15-.5-.42-.64-.86-.35v0l0,0c-.11.13-.2.27-.31.4L75,22l-.68-.49h0v0l-.78.14.11.62-.14,0c0-.22-.1-.44-.12-.66s.07-.69,0-.71a3,3,0,0,0-1.15-.18,2.58,2.58,0,0,0-.79.32c-.23-.29-.43-.54-.64-.78a.69.69,0,0,0-1-.12c-.29.16-.62.36-.85-.1-.2.13-.41.24-.61.38a1.51,1.51,0,0,0-.22.28A3,3,0,0,1,68,20.3a5.73,5.73,0,0,1-.07-.58l-.22-.09-.64.39a8.69,8.69,0,0,0-1-1.08c-.18-.14-.52-.08-.79-.1L64,18.75l.65-.37-1.14-.63.59-.37c-.2-.87-.25-.91-.91-.59l.19.54-.7,1.1c-.34-.22-.69-.44-1-.68s-.64-.69-1.1-.06c0-1.32,0-1.32-.69-1.11l-.34-.65c-.21.11-.48.17-.61.34a1.62,1.62,0,0,1-2,.55c-.25-.1-.61.08-1,.14l-.28-.49c-.88.06-.47.78-.66,1.24a2.58,2.58,0,0,0-.4-.5,7.42,7.42,0,0,0-.83-.47c-.08,0-.21,0-.26-.07-.53-.56-1.26-.49-1.92-.63a7,7,0,0,1-.74-.23l-.1-.25L49.1,17.15l.13.18-.94-.17.62-.38-.25-.59c.51-.34,1.79-.13,1.29-1.49l-1.4.42v0c-.23.21-.47.4-.68.63a4.53,4.53,0,0,0-.42.66c-1.15.16-1.44,0-1.38-.94,1.24,0,1.34-.23.67-1.48L45,14.84l-1.15-.27c-.37-.59-1-.67-2-.09-.18-.41-.17-1-.92-.85-.09,0-.31-.23-.39-.4a1.44,1.44,0,0,0-2-.81c-.19.08-.35.26-.55.3s-.56.23-.65-.31A1.54,1.54,0,0,0,35,11.5a15.29,15.29,0,0,0-1.58-1.81c-.26-.22-.8-.1-1.33-.15-.33-.34-.77-.77-1.21-1.21l-1.8.22a.9.9,0,0,0-.7-1,4.39,4.39,0,0,0-1-.16c0-.56,0-1.09,0-1.59-1,0-1.95-.84-2.73.11l.08-.86L24.48,5l-.84,1a1.3,1.3,0,0,1-1-1.71c-.45.24-.86.18-.67.74.1.26-.57.83-.85.83L21.14,5c-.84.49-1.14-.11-1.45-.43.08-.27.24-.54.17-.69s-.4-.15-.74-.26l.22,1c-.43-.32-.14-1.22-.82-.9l.21-1-.23-.12-1.06.83-.38-.55.15,0,.16-1-.94.4c.69,1-.35,1-.73,1.25l-.32-1.3a1,1,0,0,0,.34,0l-.4-.9a23.65,23.65,0,0,1-2.07,1.4l-.46,1.14-.26-.7c-.31.19-.62.4-.94.61.08.45.16.89.24,1.29L11,5l.07.58A1.67,1.67,0,0,0,9.19,6.9C7.85,7,8.06,8.06,8,9c-.39-.29-.73-.59-.85.23,0,.23-.37.44-.59.64s-.4.45-.08.76c0,0-.11.4-.25.47a8.82,8.82,0,0,1-1.29.59c-.57.21-.6.24-.52.71l-.58.38-.08-.56a1,1,0,0,0-.85.77,1.19,1.19,0,0,1-.51.69c-1.38.6-1.39.59-.87,1.95a3.68,3.68,0,0,0-.32.61,6,6,0,0,0,.81.49l.35-.84.6.92c-.51.24-1,.48-.24,1.06.18.14.18.51.27.77l.19-.22.12.24c.55-.53.25-1-.07-1.53L4,16.84l.14,1.1c1.26-.06,1.16.37,1.2,1.76l1.1-1.23.17.1,0-.71-.73,0,0-.15.48-.3-.16-.81.57-.25c0,.06.1.09.11.12,0,.73.65.76,1.09.83s.68-.32.64-.8a7,7,0,0,1-.08-1.12A1.56,1.56,0,0,1,10.69,14s.09,0,.14,0l.05-.2c-.06-.18-.23-.43-.16-.55A5.46,5.46,0,0,0,11.43,12c0-.32,0-.65.07-1.19l.34.54a2.23,2.23,0,0,1,.58-.24,2.6,2.6,0,0,1,.66.14c-.08.24-.15.49-.23.73,0,0,0,0,0,0-1,.06-.88.83-.92,1.49,0,0-.08,0-.12.07l-.37.3v.32a11.81,11.81,0,0,0,1.11.68c.05,0,.4-.31.37-.4-.21-.63.26-.71.69-.9l.42.8,3.13-1.13c-.17-.51-.35-1-.51-1.45.43-.19,1-.26,1.22-.58s.16-1,.21-1.41c.44.78.64.79,1.41,0,.54.88,1.4,0,2,.24a20.71,20.71,0,0,1,4-.9A.53.53,0,0,1,25.47,9ZM98.3,35a4,4,0,0,1,.6.48l-.05.23-1,.06-.48.38.32-1,.26.21C98.09,35.24,98.27,35,98.3,35Zm-7.12-6.15.15.64-.22.18-.45-.65,1.15-.95C92,28.54,92,28.54,91.18,28.88Zm-8.9-.81.36,1L81.75,29c.11-.36.21-.66.3-1ZM81,26.69l-.47.4-.59-1.36ZM79.06,27c-.4.2-1.07-.43-1.1.45L77,25.83Zm-2.38-.74-1.14-.51.09-.25C76,25.65,76.65,25.23,76.68,26.24Zm-2,.28c-1.06.69-1.11.69-1.53-.12C73.8,26.07,74.52,26.12,74.71,26.52Zm1.62-4.1c-.07.19-.27.33-.43.52l-.48-.64.93-.57A2.26,2.26,0,0,1,76.33,22.42Zm-7.67.6c.16.88.3,1,1,.69.68.83,1.36,1.63,2.12,2.55l-1.11-.16.1-.1-.64-.53c-.17-.14-.48-.28-.49-.43,0-.95-.57-.63-1.09-.48.45-.74,0-1.14-.54-1.56ZM61.1,24l-.19-.73,1,.15.07.41Zm4.17-2.08a4,4,0,0,1,.68.36s0,.43-.12.44c-.27,0-.63.1-.81,0-.38-.28-1-.6-.42-1.13Zm-4.37-.46a18.22,18.22,0,0,1,1.93-.42c.62-.08.74-.4.62-.94.78.16.09.62.24.9-.54.1-.24.54-.33.82.24.3,1,.4.4,1-.16.17-.35.41-.59,0a2.41,2.41,0,0,0-.51-.44,3.23,3.23,0,0,1-.53,0c-.32,0-.62-.08-.93-.07s-.84.08-1.25.08c-.66,0-.85-.38-.75-1,.86.66.87-.3,1.23-.74Zm-4.22-.07c.17.1.46,0,.76,0,0,0-.06.31-.12.31a5.47,5.47,0,0,1-1-.12,3,3,0,0,0-.6-.16c-.08,0-.14.28-.27.54L55,22l-.28-.54a7.86,7.86,0,0,1-.86.36,1.48,1.48,0,0,1-.83,0c.91-.3,2-.28,2-1.59C55.63,20.68,56.13,21.08,56.68,21.41ZM54,18.74a2.16,2.16,0,0,1-.48-.24,5.49,5.49,0,0,1-.55-.66l.45,0,.1-.88C53.66,17.66,53.79,18.14,54,18.74Zm-3.38.18-.33.08c0,.36.08.72.14,1.28.2-.21.34-.37.5-.52s.16-.14.23-.13a.8.8,0,0,1,.43.17,6.71,6.71,0,0,1,.43.85c-.42.32-.89-1.08-1.16.08-.46-.13-.68-.9-1.15-.35-.66-.37-.44-.9-.33-1.43,0-.09-.3-.23-.43-.38s-.29-.39-.47-.64ZM35.18,12.85l-.34.22-.7-1.21.21-.14C34.63,12.09,34.9,12.47,35.18,12.85ZM33,10.91c-.28.67,0,.86.63.82l-1.24.45C32.29,11.2,32.29,11.2,33,10.91ZM16.11,5.62l.24-1.22-.2,0,1-.81,1.34,1.2Zm-7.5,4.87c-.13,0-.27-.16-.4-.25a1.48,1.48,0,0,1,.25-.35c.16-.14.36-.25.57-.4C9.32,10.12,9.18,10.45,8.61,10.49Zm-2.7,4.36a5.57,5.57,0,0,1,0,1l.15.23-1.47.39-.13-.74-.34,0a1,1,0,0,0,.42-1.44c-.08-.23.11-.56.17-.85a1.6,1.6,0,0,1,.44.26c.12.13-.07.65.42.32A3.82,3.82,0,0,1,5.91,14.85Zm2-2.51a1.5,1.5,0,0,1-.65-.1c-.21-.05-.41-.12-.62-.19h0c0,.27,0,.54,0,.85a2.73,2.73,0,0,1,.69-.11c.08,0,.21.29.19.31-.32.3-.67.57-1.14,1a4.16,4.16,0,0,0,.18-1.19c0-.19-.38-.32-.69-.56.1-.54.27-.65.75-.26h0a1.86,1.86,0,0,1,1.86-.11A2.05,2.05,0,0,1,7.93,12.34Zm8-1.43-.35-1.17.6-.29.43.55Z"/></svg>